<?xml version="1.0" encoding="UTF-8"?>
<svg id="Layer_1" data-name="Layer 1" xmlns="http://www.w3.org/2000/svg" xmlns:xlink="http://www.w3.org/1999/xlink" viewBox="0 0 1080 1080">
  <defs>
    <style>
      .cls-1 {
        fill: none;
      }

      .cls-2 {
        clip-path: url(#clippath);
      }

      .cls-3 {
        fill: lime;
      }

      .cls-4 {
        fill: #805cdd;
      }

      .cls-5 {
        fill: #302353;
      }

      .cls-6 {
        clip-path: url(#clippath-1);
      }

      .cls-7 {
        clip-path: url(#clippath-2);
      }
    </style>
    <clipPath id="clippath">
      <rect class="cls-1" x="1299.5" y="1687.5" width="1088" height="1079" transform="translate(4070.5 383.5) rotate(90)"/>
    </clipPath>
    <clipPath id="clippath-1">
      <rect class="cls-1" x="1299.5" y="-1257.5" width="1088" height="1079" transform="translate(1125.5 -2561.5) rotate(90)"/>
    </clipPath>
    <clipPath id="clippath-2">
      <rect class="cls-5" x="-1303.84" y="1688.92" width="1083.48" height="1083.48"/>
    </clipPath>
  </defs>
  <g class="cls-2">
    <g>
      <path class="cls-4" d="m1077.34,717.83c0,5.3,4.29,9.6,9.59,9.6s9.6-4.3,9.6-9.6-4.3-9.6-9.6-9.6-9.59,4.3-9.59,9.6Z"/>
      <path class="cls-4" d="m953.3,466.5c0,4.4,3.57,7.97,7.97,7.97s7.97-3.57,7.97-7.97-3.57-7.97-7.97-7.97-7.97,3.57-7.97,7.97Z"/>
      <path class="cls-4" d="m957.65,592.16c0,2,1.62,3.62,3.62,3.62s3.63-1.62,3.63-3.62-1.62-3.62-3.63-3.62-3.62,1.62-3.62,3.62Z"/>
      <circle class="cls-4" cx="961.27" cy="717.83" r="7.46"/>
      <path class="cls-4" d="m953.8,843.49c0,4.13,3.35,7.47,7.47,7.47s7.48-3.35,7.48-7.47-3.35-7.47-7.48-7.47-7.47,3.35-7.47,7.47Z"/>
      <path class="cls-4" d="m953.68,969.16c0,4.2,3.4,7.6,7.6,7.6s7.6-3.4,7.6-7.6-3.4-7.6-7.6-7.6-7.6,3.4-7.6,7.6Z"/>
      <path class="cls-4" d="m831.93,466.5c0,2.03,1.65,3.68,3.68,3.68s3.68-1.65,3.68-3.68-1.65-3.68-3.68-3.68-3.68,1.65-3.68,3.68Z"/>
      <path class="cls-4" d="m825.02,592.16c0,5.85,4.74,10.59,10.58,10.59s10.59-4.74,10.59-10.59-4.74-10.59-10.59-10.59-10.58,4.74-10.58,10.59Z"/>
      <path class="cls-4" d="m828.44,717.83c0,3.96,3.21,7.17,7.17,7.17s7.17-3.21,7.17-7.17-3.21-7.17-7.17-7.17-7.17,3.21-7.17,7.17Z"/>
      <circle class="cls-4" cx="835.61" cy="843.49" r="6.41"/>
      <path class="cls-4" d="m831.15,969.16c0,2.46,1.99,4.46,4.46,4.46s4.46-2,4.46-4.46-2-4.46-4.46-4.46-4.46,2-4.46,4.46Z"/>
    </g>
  </g>
  <g class="cls-6">
    <g>
      <path class="cls-4" d="m1073.11,160.47c0,7.64,6.19,13.83,13.83,13.83s13.83-6.19,13.83-13.83-6.19-13.83-13.83-13.83-13.83,6.19-13.83,13.83Z"/>
      <path class="cls-4" d="m1074.98,286.14c0,6.6,5.35,11.96,11.96,11.96s11.96-5.35,11.96-11.96-5.35-11.96-11.96-11.96-11.96,5.35-11.96,11.96Z"/>
      <path class="cls-4" d="m1079.41,663.13c0,4.16,3.37,7.52,7.52,7.52s7.53-3.37,7.53-7.52-3.37-7.53-7.53-7.53-7.52,3.37-7.52,7.53Z"/>
      <circle class="cls-4" cx="1086.94" cy="1040.13" r="15.28"/>
      <path class="cls-4" d="m946.71,34.81c0,8.04,6.52,14.56,14.56,14.56s14.57-6.52,14.57-14.56-6.52-14.57-14.57-14.57-14.56,6.52-14.56,14.57Z"/>
      <path class="cls-4" d="m960.28,160.47c0,.55.45,1,1,1s1-.45,1-1-.45-1-1-1-1,.45-1,1Z"/>
      <path class="cls-4" d="m958.36,286.14c0,1.61,1.31,2.92,2.92,2.92s2.92-1.31,2.92-2.92-1.31-2.92-2.92-2.92-2.92,1.31-2.92,2.92Z"/>
      <circle class="cls-4" cx="961.27" cy="411.8" r="10.24"/>
      <path class="cls-4" d="m956.67,537.47c0,2.54,2.06,4.6,4.6,4.6s4.6-2.06,4.6-4.6-2.06-4.6-4.6-4.6-4.6,2.06-4.6,4.6Z"/>
      <path class="cls-4" d="m953.28,663.13c0,4.41,3.58,8,8,8s8-3.58,8-8-3.58-8-8-8-8,3.58-8,8Z"/>
      <path class="cls-4" d="m951.34,788.8c0,5.48,4.45,9.93,9.93,9.93s9.93-4.45,9.93-9.93-4.45-9.93-9.93-9.93-9.93,4.45-9.93,9.93Z"/>
      <path class="cls-4" d="m952.65,914.47c0,4.76,3.86,8.62,8.62,8.62s8.63-3.86,8.63-8.62-3.86-8.63-8.63-8.63-8.62,3.86-8.62,8.63Z"/>
      <path class="cls-4" d="m940.16,1040.13c0,11.66,9.45,21.11,21.11,21.11s21.12-9.45,21.12-21.11-9.45-21.12-21.12-21.12-21.11,9.45-21.11,21.12Z"/>
      <circle class="cls-4" cx="835.61" cy="34.81" r="11.27"/>
      <path class="cls-4" d="m828.29,160.47c0,4.04,3.28,7.32,7.32,7.32s7.32-3.28,7.32-7.32-3.28-7.32-7.32-7.32-7.32,3.28-7.32,7.32Z"/>
      <path class="cls-4" d="m820.75,286.14c0,8.21,6.65,14.86,14.86,14.86s14.86-6.65,14.86-14.86-6.65-14.86-14.86-14.86-14.86,6.65-14.86,14.86Z"/>
      <path class="cls-4" d="m832.75,411.8c0,1.57,1.28,2.85,2.85,2.85s2.86-1.28,2.86-2.85-1.28-2.86-2.86-2.86-2.85,1.28-2.85,2.86Z"/>
      <path class="cls-4" d="m830.38,537.47c0,2.89,2.34,5.22,5.22,5.22s5.23-2.34,5.23-5.22-2.34-5.23-5.23-5.23-5.22,2.34-5.22,5.23Z"/>
      <path class="cls-4" d="m827.71,663.13c0,4.36,3.54,7.9,7.9,7.9s7.9-3.54,7.9-7.9-3.54-7.9-7.9-7.9-7.9,3.54-7.9,7.9Z"/>
      <path class="cls-4" d="m830.24,788.8c0,2.96,2.4,5.37,5.37,5.37s5.37-2.4,5.37-5.37-2.4-5.37-5.37-5.37-5.37,2.4-5.37,5.37Z"/>
      <path class="cls-4" d="m833.49,914.47c0,1.17.95,2.12,2.12,2.12s2.12-.95,2.12-2.12-.95-2.12-2.12-2.12-2.12.95-2.12,2.12Z"/>
      <circle class="cls-4" cx="835.61" cy="1040.13" r="7.02"/>
    </g>
  </g>
  <g>
    <rect class="cls-5" x="-1303.84" y="1688.92" width="1083.48" height="1083.48"/>
    <g class="cls-7">
      <g>
        <path class="cls-4" d="m-4.47,1073.78c8.69,0,15.75-7.05,15.75-15.74s-7.06-15.75-15.75-15.75-15.75,7.05-15.75,15.75,7.06,15.74,15.75,15.74Z"/>
        <path class="cls-4" d="m57.12,1092.5c9.43,0,17.07-7.65,17.07-17.08s-7.64-17.08-17.07-17.08-17.07,7.65-17.07,17.08,7.63,17.08,17.07,17.08Z"/>
        <path class="cls-4" d="m11.3,1023.38c7.7,0,13.93-6.23,13.93-13.93s-6.23-13.93-13.93-13.93-13.93,6.23-13.93,13.93,6.24,13.93,13.93,13.93Z"/>
        <ellipse class="cls-4" cx="72.86" cy="1026.96" rx="15.75" ry="15.74"/>
        <path class="cls-4" d="m132.97,1064.6c8.62,0,15.62-7,15.62-15.63s-6.99-15.62-15.62-15.62-15.63,6.99-15.63,15.62,6.99,15.63,15.63,15.63Z"/>
        <path class="cls-4" d="m191.27,1091.48c8.9,0,16.11-7.22,16.11-16.11s-7.21-16.1-16.11-16.1-16.1,7.21-16.1,16.1,7.21,16.11,16.1,16.11Z"/>
        <path class="cls-4" d="m27.08,969.98c5.04,0,9.11-4.08,9.11-9.11s-4.07-9.11-9.11-9.11-9.1,4.08-9.1,9.11,4.07,9.11,9.1,9.11Z"/>
        <path class="cls-4" d="m88.6,992.44c7.71,0,13.94-6.23,13.94-13.93s-6.23-13.92-13.94-13.92-13.92,6.23-13.92,13.92,6.24,13.93,13.92,13.93Z"/>
        <path class="cls-4" d="m148.75,1014.21c7.63,0,13.8-6.18,13.8-13.81s-6.16-13.81-13.8-13.81-13.81,6.18-13.81,13.81,6.18,13.81,13.81,13.81Z"/>
        <path class="cls-4" d="m207.22,1041.94c8.57,0,15.51-6.94,15.51-15.5s-6.94-15.5-15.51-15.5-15.5,6.94-15.5,15.5,6.95,15.5,15.5,15.5Z"/>
        <path class="cls-4" d="m263.74,1070.54c7.76,0,14.05-6.29,14.05-14.05s-6.29-14.05-14.05-14.05-14.05,6.29-14.05,14.05,6.28,14.05,14.05,14.05Z"/>
        <path class="cls-4" d="m318.02,1106.51c8.89,0,16.11-7.21,16.11-16.11s-7.22-16.11-16.11-16.11-16.11,7.21-16.11,16.11,7.21,16.11,16.11,16.11Z"/>
        <path class="cls-4" d="m42.85,919.31c3.87,0,7-3.14,7-7s-3.14-7-7-7-7,3.14-7,7,3.14,7,7,7Z"/>
        <path class="cls-4" d="m104.35,941.44c6.28,0,11.38-5.09,11.38-11.38s-5.1-11.39-11.38-11.39-11.39,5.09-11.39,11.39,5.11,11.38,11.39,11.38Z"/>
        <path class="cls-4" d="m164.54,963.23c6.29,0,11.38-5.1,11.38-11.38s-5.1-11.39-11.38-11.39-11.39,5.1-11.39,11.39,5.11,11.38,11.39,11.38Z"/>
        <path class="cls-4" d="m223.14,991.36c7.63,0,13.82-6.18,13.82-13.81s-6.19-13.81-13.82-13.81-13.8,6.18-13.8,13.81,6.18,13.81,13.8,13.81Z"/>
        <path class="cls-4" d="m279.94,1020.89c7.62,0,13.79-6.18,13.79-13.81s-6.17-13.81-13.79-13.81-13.81,6.18-13.81,13.81,6.18,13.81,13.81,13.81Z"/>
        <path class="cls-4" d="m334.65,1054.35c7.75,0,14.04-6.29,14.04-14.05s-6.29-14.06-14.04-14.06-14.06,6.3-14.06,14.06,6.29,14.05,14.06,14.05Z"/>
        <path class="cls-4" d="m387.04,1092.8c8.69,0,15.75-7.05,15.75-15.74s-7.06-15.74-15.75-15.74-15.74,7.04-15.74,15.74,7.05,15.74,15.74,15.74Z"/>
        <path class="cls-4" d="m-3.83,854.97c2.85,0,5.17-2.32,5.17-5.18s-2.33-5.18-5.17-5.18-5.19,2.32-5.19,5.18,2.32,5.18,5.19,5.18Z"/>
        <path class="cls-4" d="m58.63,868.11c2.39,0,4.36-1.95,4.36-4.36s-1.96-4.36-4.36-4.36-4.37,1.95-4.37,4.36,1.96,4.36,4.37,4.36Z"/>
        <path class="cls-4" d="m120.1,889.85c4.54,0,8.23-3.69,8.23-8.24s-3.69-8.24-8.23-8.24-8.24,3.69-8.24,8.24,3.69,8.24,8.24,8.24Z"/>
        <path class="cls-4" d="m180.32,911.54c4.54,0,8.23-3.69,8.23-8.24s-3.69-8.24-8.23-8.24-8.24,3.68-8.24,8.24,3.68,8.24,8.24,8.24Z"/>
        <path class="cls-4" d="m239.07,940.1c6.29,0,11.38-5.09,11.38-11.38s-5.1-11.39-11.38-11.39-11.39,5.09-11.39,11.39,5.11,11.38,11.39,11.38Z"/>
        <path class="cls-4" d="m296.09,966.5c4.82,0,8.73-3.91,8.73-8.73s-3.9-8.72-8.73-8.72-8.72,3.91-8.72,8.72,3.9,8.73,8.72,8.73Z"/>
        <path class="cls-4" d="m351.19,998.59c4.54,0,8.23-3.68,8.23-8.24s-3.69-8.24-8.23-8.24-8.24,3.69-8.24,8.24,3.69,8.24,8.24,8.24Z"/>
        <path class="cls-4" d="m404.13,1035.66c5.15,0,9.32-4.18,9.32-9.33s-4.17-9.32-9.32-9.32-9.34,4.17-9.34,9.32,4.19,9.33,9.34,9.33Z"/>
        <circle class="cls-4" cx="454.7" cy="1065.56" r="8.84"/>
        <path class="cls-4" d="m12,802.69c.95,0,1.73-.77,1.73-1.72s-.78-1.72-1.73-1.72-1.73.76-1.73,1.72.77,1.72,1.73,1.72Z"/>
        <path class="cls-4" d="m74.39,816.67c.81,0,1.45-.65,1.45-1.46s-.65-1.45-1.45-1.45-1.45.65-1.45,1.45.65,1.46,1.45,1.46Z"/>
        <path class="cls-4" d="m135.84,837.52c2.4,0,4.36-1.95,4.36-4.36s-1.95-4.36-4.36-4.36-4.36,1.95-4.36,4.36,1.95,4.36,4.36,4.36Z"/>
        <path class="cls-4" d="m196.09,859.11c2.41,0,4.35-1.95,4.35-4.36s-1.94-4.36-4.35-4.36-4.35,1.96-4.35,4.36,1.95,4.36,4.35,4.36Z"/>
        <path class="cls-4" d="m254.95,884.27c2.39,0,4.36-1.95,4.36-4.37s-1.96-4.35-4.36-4.35-4.36,1.94-4.36,4.35,1.95,4.37,4.36,4.37Z"/>
        <path class="cls-4" d="m312.19,912.78c2.35,0,4.25-1.89,4.25-4.24s-1.9-4.24-4.25-4.24-4.24,1.89-4.24,4.24,1.9,4.24,4.24,4.24Z"/>
        <path class="cls-4" d="m367.63,946.62c3.35,0,6.07-2.72,6.07-6.08s-2.72-6.08-6.07-6.08-6.08,2.72-6.08,6.08,2.72,6.08,6.08,6.08Z"/>
        <path class="cls-4" d="m421.05,981.38c3.07,0,5.57-2.49,5.57-5.57s-2.5-5.57-5.57-5.57-5.57,2.5-5.57,5.57,2.49,5.57,5.57,5.57Z"/>
        <path class="cls-4" d="m472.26,1016.26c1.14,0,2.06-.92,2.06-2.06s-.92-2.06-2.06-2.06-2.05.92-2.05,2.06.92,2.06,2.05,2.06Z"/>
        <path class="cls-4" d="m521.09,1057.52c1.07,0,1.94-.87,1.94-1.93s-.87-1.94-1.94-1.94-1.93.87-1.93,1.94.87,1.93,1.93,1.93Z"/>
      </g>
    </g>
  </g>
  <g>
    <polygon class="cls-4" points="1076.69 -2 710.31 730.76 1049.41 .38 1044.29 -2 1038.08 -2 695.73 735.36 1010.79 .22 1005.6 -2 999.45 -2 681.61 739.63 972.16 .07 966.9 -2 960.82 -2 667.8 743.91 933.52 -.1 928.2 -2 922.21 -2 654.35 748.02 894.87 -.27 889.5 -2 883.58 -2 641.4 751.45 811.57 155.58 800.29 154.03 628.82 754.37 817.57 -.63 812.1 -2 806.27 -2 616.54 756.96 778.92 -.83 773.39 -2 767.62 -2 604.46 759.39 740.25 -1.01 734.7 -2 728.96 -2 592.63 761.45 701.58 -1.21 695.99 -2 690.29 -2 581.02 762.96 652.48 78.93 641.19 78.32 569.53 764.19 624.23 -1.61 618.59 -2 612.94 -2 558.16 764.89 585.54 -1.8 579.9 -2 574.25 -2 546.84 765.38 546.84 108.79 535.55 108.79 535.55 765.38 508.15 -2 502.49 -2 496.85 -1.8 524.23 764.89 469.45 -2 463.8 -2 458.16 -1.61 512.86 764.19 430.77 -2 425.09 -2 419.48 -1.39 501.37 762.96 392.1 -2 386.4 -2 380.81 -1.21 489.76 761.45 353.43 -2 347.69 -2 342.14 -1.01 477.93 759.39 314.77 -2 309 -2 303.47 -.83 465.85 756.96 358.19 327.41 346.89 328.78 453.57 754.37 237.46 -2 231.59 -2 226.17 -.44 441 751.45 198.81 -2 192.89 -2 187.52 -.27 428.04 748.02 160.18 -2 154.19 -2 148.87 -.1 414.59 743.91 121.57 -2 115.5 -2 110.24 .07 400.78 739.63 82.94 -2 76.79 -2 71.6 .22 386.66 735.36 44.32 -2 38.1 -2 32.98 .38 372.08 730.76 5.7 -2 -.61 -2 -.61 10.62 534.89 1081.61 547.51 1081.61 1083 10.62 1083 -2 1076.69 -2"/>
    <g>
      <rect class="cls-3" x="803.33" y="122.3" width="6.14" height="23.54" transform="translate(330.99 -530.94) rotate(45)"/>
      <rect class="cls-3" x="803.33" y="122.3" width="6.14" height="23.54" transform="translate(1471.41 -341.34) rotate(135)"/>
    </g>
    <g>
      <rect class="cls-3" x="644.81" y="36.52" width="8.3" height="31.83" transform="translate(227.15 -443.53) rotate(45)"/>
      <rect class="cls-3" x="644.81" y="36.52" width="8.3" height="31.83" transform="translate(1144.92 -369.37) rotate(135)"/>
    </g>
    <g>
      <rect class="cls-3" x="537.58" y="69.39" width="8.19" height="31.39" transform="translate(218.82 -358.1) rotate(45)"/>
      <rect class="cls-3" x="537.58" y="69.39" width="8.19" height="31.39" transform="translate(984.86 -237.76) rotate(135)"/>
    </g>
    <g>
      <rect class="cls-3" x="344.67" y="294.75" width="6.82" height="26.16" transform="translate(319.62 -155.97) rotate(45)"/>
      <rect class="cls-3" x="344.67" y="294.75" width="6.82" height="26.16" transform="translate(811.88 279.37) rotate(135)"/>
    </g>
  </g>
</svg>