<?xml version="1.0" encoding="UTF-8"?>
<svg id="Layer_1" data-name="Layer 1" xmlns="http://www.w3.org/2000/svg" viewBox="0 0 1080 393">
  <defs>
    <style>
      .cls-1 {
        fill: #fff;
      }
    </style>
  </defs>
  <path class="cls-1" d="m58.43,147.91H12.68V18.16h45.93c18.3,0,33.4,5.8,45.29,17.39,11.9,11.59,17.84,27.51,17.84,47.76s-5.98,35.93-17.93,47.4c-11.96,11.47-27.08,17.2-45.38,17.2Zm-23.79-20.13h23.06c11.95,0,21.81-3.81,29.55-11.44,7.75-7.62,11.62-18.63,11.62-33.03s-3.84-25.65-11.53-33.4c-7.69-7.75-17.51-11.62-29.46-11.62h-23.24v89.49Z"/>
  <path class="cls-1" d="m204.27,116.8l17.93,5.67c-2.56,8.17-7.35,14.91-14.37,20.22-7.02,5.31-15.65,7.96-25.89,7.96-12.69,0-23.46-4.33-32.3-12.99-8.85-8.66-13.27-20.25-13.27-34.77,0-13.66,4.3-24.89,12.9-33.67s18.76-13.18,30.47-13.18c13.66,0,24.34,4.18,32.02,12.54,7.69,8.36,11.53,19.61,11.53,33.76,0,3.78-.18,6.04-.55,6.77h-65.15c.24,6.71,2.71,12.26,7.41,16.65,4.69,4.39,10.34,6.59,16.93,6.59,11.47,0,18.91-5.18,22.33-15.55Zm-46.12-23.24h43.74c-.25-5.61-2.23-10.31-5.95-14.09-3.72-3.78-9.06-5.67-16.01-5.67-6.35,0-11.47,1.98-15.37,5.95-3.91,3.97-6.04,8.57-6.41,13.82Z"/>
  <path class="cls-1" d="m325.97,15.42v116.21c0,5.98.3,11.41.92,16.29h-20.31c-.61-3.41-.91-7.26-.91-11.53-2.2,4.03-5.61,7.32-10.25,9.88-4.64,2.56-9.94,3.84-15.92,3.84-12.69,0-23-4.45-30.93-13.36-7.93-8.9-11.9-20.13-11.9-33.67s3.99-24.09,11.99-33.12c7.99-9.03,18.15-13.54,30.47-13.54,7.07,0,12.78,1.28,17.11,3.84,4.33,2.56,7.35,5.55,9.06,8.97V15.42h20.68Zm-68.08,87.66c0,8.54,2.2,15.4,6.59,20.59,4.39,5.19,10.19,7.78,17.39,7.78s12.63-2.62,17.02-7.87c4.39-5.24,6.59-12.14,6.59-20.68s-2.14-15.13-6.41-20.13c-4.27-5-9.94-7.5-17.02-7.5s-12.87,2.53-17.38,7.59c-4.52,5.06-6.77,11.8-6.77,20.22Z"/>
  <path class="cls-1" d="m354.51,37.19c-2.69-2.68-4.03-5.92-4.03-9.7s1.34-7.05,4.03-9.79c2.68-2.75,5.92-4.12,9.7-4.12s7.2,1.34,9.88,4.03c2.68,2.69,4.03,5.98,4.03,9.88s-1.34,7.02-4.03,9.7c-2.69,2.68-5.98,4.03-9.88,4.03s-7.02-1.34-9.7-4.03Zm20.31,110.71h-21.04V58.79h21.04v89.12Z"/>
  <path class="cls-1" d="m441.07,75.62c-6.83,0-12.63,2.47-17.38,7.41-4.76,4.94-7.14,11.68-7.14,20.22s2.41,15.49,7.23,20.5c4.82,5,10.71,7.5,17.66,7.5,6.22,0,11.19-1.68,14.91-5.03,3.72-3.35,6.19-7.17,7.41-11.44l18.67,6.77c-2.44,7.93-7.17,14.76-14.18,20.5-7.02,5.74-15.95,8.6-26.81,8.6-13.06,0-24-4.51-32.85-13.54-8.85-9.03-13.27-20.31-13.27-33.85s4.36-24.95,13.08-33.85c8.72-8.9,19.55-13.36,32.48-13.36,11.1,0,20.16,2.87,27.18,8.6,7.01,5.74,11.56,12.63,13.63,20.68l-19.03,6.95c-1.22-4.64-3.57-8.57-7.05-11.8-3.48-3.23-8.33-4.85-14.55-4.85Z"/>
  <path class="cls-1" d="m495.24,123.75c0-7.56,2.47-13.63,7.41-18.21,4.94-4.58,11.44-7.47,19.49-8.69l22.87-3.48c4.39-.61,6.59-2.74,6.59-6.4,0-4.03-1.4-7.29-4.21-9.79-2.81-2.5-7.02-3.75-12.63-3.75s-9.64,1.5-12.81,4.48c-3.17,2.99-5,6.86-5.49,11.62l-19.4-4.39c.85-8.05,4.7-14.91,11.53-20.59,6.83-5.67,15.49-8.51,25.99-8.51,12.93,0,22.48,3.11,28.64,9.33,6.16,6.22,9.24,14.21,9.24,23.97v44.29c0,5.86.37,10.61,1.1,14.27h-19.76c-.61-1.83-.92-5.61-.92-11.35-5.86,9.4-15.01,14.09-27.45,14.09-9.03,0-16.32-2.65-21.87-7.96-5.55-5.31-8.33-11.62-8.33-18.94Zm34.22,10.25c6.59,0,11.92-1.8,16.01-5.4,4.09-3.6,6.13-9.48,6.13-17.66v-4.03l-23.24,3.48c-7.93,1.34-11.9,5.37-11.9,12.08,0,3.17,1.16,5.89,3.48,8.14,2.32,2.26,5.49,3.39,9.52,3.39Z"/>
  <path class="cls-1" d="m624.62,31.52v27.27h18.48v18.85h-18.48v41.36c0,3.91.92,6.74,2.75,8.51,1.83,1.77,4.7,2.65,8.6,2.65,2.44,0,4.88-.24,7.32-.73v17.57c-3.17,1.34-7.5,2.01-12.99,2.01-8.3,0-14.82-2.35-19.58-7.05-4.76-4.7-7.14-11.19-7.14-19.49v-44.83h-16.47v-18.85h4.57c4.51,0,7.93-1.28,10.25-3.84,2.32-2.56,3.48-5.92,3.48-10.06v-13.36h19.21Z"/>
  <path class="cls-1" d="m724.9,116.8l17.93,5.67c-2.56,8.17-7.35,14.91-14.37,20.22-7.02,5.31-15.65,7.96-25.89,7.96-12.69,0-23.46-4.33-32.3-12.99-8.85-8.66-13.27-20.25-13.27-34.77,0-13.66,4.3-24.89,12.9-33.67,8.6-8.78,18.76-13.18,30.47-13.18,13.66,0,24.34,4.18,32.03,12.54,7.69,8.36,11.53,19.61,11.53,33.76,0,3.78-.18,6.04-.55,6.77h-65.15c.24,6.71,2.71,12.26,7.41,16.65,4.7,4.39,10.34,6.59,16.93,6.59,11.47,0,18.91-5.18,22.33-15.55Zm-46.12-23.24h43.74c-.25-5.61-2.23-10.31-5.95-14.09-3.72-3.78-9.06-5.67-16.01-5.67-6.34,0-11.47,1.98-15.37,5.95-3.91,3.97-6.04,8.57-6.41,13.82Z"/>
  <path class="cls-1" d="m846.6,15.42v116.21c0,5.98.3,11.41.92,16.29h-20.31c-.61-3.41-.92-7.26-.92-11.53-2.2,4.03-5.61,7.32-10.25,9.88-4.64,2.56-9.94,3.84-15.92,3.84-12.69,0-23-4.45-30.93-13.36-7.93-8.9-11.89-20.13-11.89-33.67s3.99-24.09,11.99-33.12c7.99-9.03,18.15-13.54,30.47-13.54,7.07,0,12.78,1.28,17.11,3.84,4.33,2.56,7.35,5.55,9.06,8.97V15.42h20.68Zm-68.08,87.66c0,8.54,2.2,15.4,6.59,20.59,4.39,5.19,10.19,7.78,17.38,7.78s12.63-2.62,17.02-7.87c4.39-5.24,6.59-12.14,6.59-20.68s-2.14-15.13-6.41-20.13c-4.27-5-9.94-7.5-17.02-7.5s-12.87,2.53-17.39,7.59c-4.51,5.06-6.77,11.8-6.77,20.22Z"/>
  <path class="cls-1" d="m946.69,31.52v27.27h18.48v18.85h-18.48v41.36c0,3.91.92,6.74,2.75,8.51,1.83,1.77,4.7,2.65,8.6,2.65,2.44,0,4.88-.24,7.32-.73v17.57c-3.17,1.34-7.5,2.01-12.99,2.01-8.3,0-14.82-2.35-19.58-7.05-4.76-4.7-7.14-11.19-7.14-19.49v-44.83h-16.47v-18.85h4.57c4.51,0,7.93-1.28,10.25-3.84,2.32-2.56,3.48-5.92,3.48-10.06v-13.36h19.21Z"/>
  <path class="cls-1" d="m1025.2,56.04c13.42,0,24.49,4.46,33.21,13.36,8.72,8.91,13.08,20.19,13.08,33.85s-4.36,24.98-13.08,33.95c-8.72,8.97-19.8,13.45-33.21,13.45s-24.31-4.48-33.03-13.45c-8.72-8.97-13.08-20.28-13.08-33.95s4.36-24.95,13.08-33.85c8.72-8.9,19.73-13.36,33.03-13.36Zm-17.66,67.98c4.82,5.06,10.71,7.59,17.66,7.59s12.84-2.5,17.66-7.5c4.82-5,7.23-11.96,7.23-20.86s-2.41-15.65-7.23-20.59c-4.82-4.94-10.71-7.41-17.66-7.41s-12.84,2.47-17.66,7.41c-4.82,4.94-7.23,11.8-7.23,20.59s2.41,15.71,7.23,20.77Z"/>
  <path class="cls-1" d="m93.2,235.02v116.21c0,5.98.3,11.41.92,16.29h-20.31c-.61-3.41-.91-7.26-.91-11.53-2.2,4.03-5.61,7.32-10.25,9.88-4.64,2.56-9.94,3.84-15.92,3.84-12.69,0-23-4.45-30.93-13.36-7.93-8.9-11.9-20.13-11.9-33.67s3.99-24.09,11.99-33.12c7.99-9.03,18.15-13.54,30.47-13.54,7.07,0,12.78,1.28,17.11,3.84,4.33,2.56,7.35,5.55,9.06,8.97v-53.8h20.68Zm-68.08,87.66c0,8.54,2.2,15.4,6.59,20.59,4.39,5.19,10.19,7.78,17.39,7.78s12.63-2.62,17.02-7.87c4.39-5.24,6.59-12.14,6.59-20.68s-2.14-15.13-6.41-20.13c-4.27-5-9.94-7.5-17.02-7.5s-12.87,2.53-17.38,7.59c-4.52,5.06-6.77,11.8-6.77,20.22Z"/>
  <path class="cls-1" d="m181.95,336.4l17.93,5.67c-2.56,8.17-7.35,14.91-14.37,20.22-7.02,5.31-15.65,7.96-25.89,7.96-12.69,0-23.46-4.33-32.3-12.99-8.85-8.66-13.27-20.25-13.27-34.77,0-13.66,4.3-24.89,12.9-33.67s18.76-13.18,30.47-13.18c13.66,0,24.34,4.18,32.02,12.54,7.69,8.36,11.53,19.61,11.53,33.76,0,3.78-.18,6.04-.55,6.77h-65.15c.24,6.71,2.71,12.26,7.41,16.65,4.69,4.39,10.34,6.59,16.93,6.59,11.47,0,18.91-5.18,22.33-15.55Zm-46.12-23.24h43.74c-.25-5.61-2.23-10.31-5.95-14.09-3.72-3.78-9.06-5.67-16.01-5.67-6.35,0-11.47,1.98-15.37,5.95-3.91,3.97-6.04,8.57-6.41,13.82Z"/>
  <path class="cls-1" d="m273.45,277.84v21.59c-2.44-.37-4.76-.55-6.95-.55-15.98,0-23.97,8.72-23.97,26.17v42.46h-21.23v-89.12h20.68v14.27c2.07-4.76,5.43-8.51,10.07-11.25,4.63-2.75,9.88-4.12,15.74-4.12,1.95,0,3.84.18,5.67.55Z"/>
  <path class="cls-1" d="m291.93,256.79c-2.69-2.68-4.03-5.92-4.03-9.7s1.34-7.05,4.03-9.79c2.68-2.75,5.92-4.12,9.7-4.12s7.2,1.34,9.88,4.03c2.68,2.69,4.03,5.98,4.03,9.88s-1.34,7.02-4.03,9.7c-2.69,2.68-5.98,4.03-9.88,4.03s-7.02-1.34-9.7-4.03Zm20.31,110.71h-21.04v-89.12h21.04v89.12Z"/>
  <path class="cls-1" d="m420.21,278.39l-34.95,89.12h-21.23l-36.23-89.12h23.42l23.61,63.68,23.06-63.68h22.33Z"/>
  <path class="cls-1" d="m429.73,343.35c0-7.56,2.47-13.63,7.41-18.21,4.94-4.58,11.44-7.47,19.49-8.69l22.88-3.48c4.39-.61,6.59-2.74,6.59-6.4,0-4.03-1.4-7.29-4.21-9.79-2.81-2.5-7.02-3.75-12.63-3.75s-9.64,1.5-12.81,4.48c-3.17,2.99-5,6.86-5.49,11.62l-19.4-4.39c.85-8.05,4.7-14.91,11.53-20.59,6.83-5.67,15.49-8.51,25.99-8.51,12.93,0,22.48,3.11,28.64,9.33,6.16,6.22,9.24,14.21,9.24,23.97v44.29c0,5.86.37,10.61,1.1,14.27h-19.76c-.61-1.83-.92-5.61-.92-11.35-5.86,9.4-15.01,14.09-27.45,14.09-9.03,0-16.32-2.65-21.87-7.96-5.55-5.31-8.33-11.62-8.33-18.94Zm34.22,10.25c6.59,0,11.92-1.8,16.01-5.4,4.09-3.6,6.13-9.48,6.13-17.66v-4.03l-23.24,3.48c-7.93,1.34-11.9,5.37-11.9,12.08,0,3.17,1.16,5.89,3.48,8.14,2.32,2.26,5.49,3.39,9.52,3.39Z"/>
  <path class="cls-1" d="m559.11,251.12v27.27h18.48v18.85h-18.48v41.36c0,3.91.92,6.74,2.75,8.51,1.83,1.77,4.7,2.65,8.6,2.65,2.44,0,4.88-.24,7.32-.73v17.57c-3.17,1.34-7.5,2.01-12.99,2.01-8.3,0-14.82-2.35-19.58-7.05-4.76-4.7-7.14-11.19-7.14-19.49v-44.83h-16.47v-18.85h4.58c4.51,0,7.93-1.28,10.25-3.84,2.32-2.56,3.48-5.92,3.48-10.06v-13.36h19.21Z"/>
  <path class="cls-1" d="m600.1,256.79c-2.68-2.68-4.03-5.92-4.03-9.7s1.34-7.05,4.03-9.79c2.68-2.75,5.92-4.12,9.7-4.12s7.2,1.34,9.88,4.03c2.68,2.69,4.03,5.98,4.03,9.88s-1.34,7.02-4.03,9.7c-2.68,2.68-5.98,4.03-9.88,4.03s-7.02-1.34-9.7-4.03Zm20.31,110.71h-21.04v-89.12h21.04v89.12Z"/>
  <path class="cls-1" d="m728.38,278.39l-34.95,89.12h-21.23l-36.23-89.12h23.42l23.61,63.68,23.06-63.68h22.33Z"/>
  <path class="cls-1" d="m802.13,336.4l17.93,5.67c-2.56,8.17-7.35,14.91-14.37,20.22-7.02,5.31-15.65,7.96-25.89,7.96-12.69,0-23.46-4.33-32.3-12.99-8.85-8.66-13.27-20.25-13.27-34.77,0-13.66,4.3-24.89,12.9-33.67,8.6-8.78,18.76-13.18,30.47-13.18,13.66,0,24.34,4.18,32.03,12.54,7.69,8.36,11.53,19.61,11.53,33.76,0,3.78-.18,6.04-.55,6.77h-65.15c.24,6.71,2.71,12.26,7.41,16.65,4.7,4.39,10.34,6.59,16.93,6.59,11.47,0,18.91-5.18,22.33-15.55Zm-46.12-23.24h43.74c-.25-5.61-2.23-10.31-5.95-14.09-3.72-3.78-9.06-5.67-16.01-5.67-6.34,0-11.47,1.98-15.37,5.95-3.91,3.97-6.04,8.57-6.41,13.82Z"/>
  <path class="cls-1" d="m833.6,343.35l18.48-5.12c.37,4.27,2.13,7.87,5.31,10.8,3.17,2.93,7.44,4.39,12.81,4.39,4.15,0,7.41-.98,9.79-2.93,2.38-1.95,3.57-4.39,3.57-7.32,0-5.12-3.48-8.42-10.43-9.88l-13.18-2.93c-7.69-1.71-13.6-4.88-17.75-9.52-4.15-4.63-6.22-10.12-6.22-16.47,0-7.81,3.17-14.55,9.52-20.22,6.34-5.67,14.09-8.51,23.24-8.51,5.86,0,11.04.85,15.55,2.56,4.51,1.71,8.02,3.93,10.52,6.68,2.5,2.75,4.42,5.4,5.76,7.96,1.34,2.56,2.2,5.12,2.56,7.69l-17.93,5.12c-.49-3.41-2.04-6.5-4.67-9.24-2.62-2.74-6.56-4.12-11.8-4.12-3.66,0-6.71,1.01-9.15,3.02-2.44,2.01-3.66,4.42-3.66,7.23,0,5,2.99,8.11,8.97,9.33l13.54,2.74c8.29,1.83,14.64,5.12,19.03,9.88,4.39,4.76,6.59,10.49,6.59,17.2,0,7.44-2.96,14.06-8.88,19.86-5.92,5.8-14.18,8.69-24.8,8.69-6.1,0-11.56-.92-16.38-2.75-4.82-1.83-8.6-4.18-11.35-7.05-2.74-2.87-4.88-5.73-6.4-8.6-1.53-2.87-2.41-5.7-2.65-8.51Z"/>
</svg>