<?xml version="1.0" encoding="UTF-8"?>
<svg id="Layer_1" data-name="Layer 1" xmlns="http://www.w3.org/2000/svg" xmlns:xlink="http://www.w3.org/1999/xlink" viewBox="0 0 1080 1080">
  <defs>
    <style>
      .cls-1 {
        fill: none;
      }

      .cls-2 {
        clip-path: url(#clippath);
      }

      .cls-3 {
        fill: lime;
      }

      .cls-4 {
        fill: #805CDD;
      }
    </style>
    <clipPath id="clippath">
      <rect class="cls-1" x=".16" y="-2.08" width="1083.48" height="1083.48"/>
    </clipPath>
  </defs>
  <g class="cls-2">
    <g>
      <g>
        <path class="cls-4" d="m1068.04,190.04c.27,0,.48-.22.48-.49s-.22-.48-.48-.48-.49.22-.49.48.22.49.49.49Z"/>
        <path class="cls-4" d="m1068.04,130.64c.53,0,.97-.43.97-.97s-.43-.97-.97-.97-.97.43-.97.97.43.97.97.97Z"/>
        <path class="cls-4" d="m1077.76,257.49c.53,0,.96-.43.96-.97s-.43-.97-.96-.97-.97.43-.97.97.43.97.97.97Z"/>
        <path class="cls-4" d="m1026.81,220.48c.53,0,.97-.43.97-.97s-.43-.97-.97-.97-.96.43-.96.97.43.97.96.97Z"/>
        <path class="cls-4" d="m1007.35,160.58c.54,0,.97-.43.97-.97s-.43-.96-.97-.96-.96.43-.96.96.43.97.96.97Z"/>
        <path class="cls-4" d="m1026.81,101.3c.87,0,1.57-.71,1.57-1.58s-.7-1.57-1.57-1.57-1.58.71-1.58,1.57.71,1.58,1.58,1.58Z"/>
        <path class="cls-4" d="m1077.76,64.05c.74,0,1.33-.6,1.33-1.33s-.59-1.33-1.33-1.33-1.33.6-1.33,1.33.6,1.33,1.33,1.33Z"/>
        <path class="cls-4" d="m1032.83,293.55c.87,0,1.58-.71,1.58-1.58s-.71-1.57-1.58-1.57-1.57.7-1.57,1.57.7,1.58,1.57,1.58Z"/>
        <path class="cls-4" d="m985.6,253.08c2.01,0,3.63-1.63,3.63-3.64s-1.62-3.63-3.63-3.63-3.63,1.63-3.63,3.63,1.62,3.64,3.63,3.64Z"/>
        <path class="cls-4" d="m959.76,194.42c1.67,0,3.03-1.36,3.03-3.03s-1.36-3.02-3.03-3.02-3.03,1.35-3.03,3.02,1.35,3.03,3.03,3.03Z"/>
        <path class="cls-4" d="m959.76,131.35c1.93,0,3.51-1.57,3.51-3.51s-1.58-3.51-3.51-3.51-3.51,1.57-3.51,3.51,1.57,3.51,3.51,3.51Z"/>
        <path class="cls-4" d="m985.6,73.3c1.94,0,3.51-1.57,3.51-3.51s-1.57-3.51-3.51-3.51-3.51,1.57-3.51,3.51,1.57,3.51,3.51,3.51Z"/>
        <path class="cls-4" d="m1032.83,30.77c1.94,0,3.51-1.57,3.51-3.51s-1.58-3.51-3.51-3.51-3.51,1.58-3.51,3.51,1.57,3.51,3.51,3.51Z"/>
        <path class="cls-4" d="m1046.27,359.11c3.15,0,5.69-2.56,5.69-5.7s-2.55-5.69-5.69-5.69-5.69,2.55-5.69,5.69,2.55,5.7,5.69,5.7Z"/>
        <path class="cls-4" d="m944.39,283.03c2,0,3.63-1.63,3.63-3.64s-1.63-3.64-3.63-3.64-3.63,1.63-3.63,3.64,1.62,3.64,3.63,3.64Z"/>
        <path class="cls-4" d="m985.18,326.9c2,0,3.63-1.63,3.63-3.64s-1.63-3.64-3.63-3.64-3.63,1.63-3.63,3.64,1.62,3.64,3.63,3.64Z"/>
        <path class="cls-4" d="m915.44,226.59c2.21,0,3.99-1.79,3.99-4s-1.78-4-3.99-4-3.99,1.79-3.99,4,1.78,4,3.99,4Z"/>
        <path class="cls-4" d="m905.47,164.34c2.61,0,4.72-2.12,4.72-4.72s-2.12-4.72-4.72-4.72-4.72,2.12-4.72,4.72,2.11,4.72,4.72,4.72Z"/>
        <path class="cls-4" d="m915.44,101.73c2.81,0,5.09-2.28,5.09-5.09s-2.28-5.08-5.09-5.08-5.09,2.28-5.09,5.08,2.28,5.09,5.09,5.09Z"/>
        <path class="cls-4" d="m944.39,44.81c2.74,0,4.96-2.22,4.96-4.96s-2.22-4.97-4.96-4.97-4.97,2.22-4.97,4.97,2.22,4.96,4.97,4.96Z"/>
        <path class="cls-4" d="m1061.52,415.88c3.35,0,6.06-2.71,6.06-6.06s-2.71-6.05-6.06-6.05-6.05,2.71-6.05,6.05,2.71,6.06,6.05,6.06Z"/>
        <path class="cls-4" d="m1000.79,396.27c3.41,0,6.18-2.77,6.18-6.19s-2.76-6.18-6.18-6.18-6.18,2.77-6.18,6.18,2.77,6.19,6.18,6.19Z"/>
        <path class="cls-4" d="m946.88,363.5c4.21,0,7.64-3.41,7.64-7.63s-3.42-7.62-7.64-7.62-7.63,3.42-7.63,7.62,3.42,7.63,7.63,7.63Z"/>
        <path class="cls-4" d="m903.17,315.99c3.69,0,6.66-2.99,6.66-6.66s-2.98-6.66-6.66-6.66-6.66,2.98-6.66,6.66,2.99,6.66,6.66,6.66Z"/>
        <path class="cls-4" d="m872.41,259.92c3.62,0,6.55-2.91,6.55-6.53s-2.93-6.55-6.55-6.55-6.54,2.94-6.54,6.55,2.92,6.53,6.54,6.53Z"/>
        <path class="cls-4" d="m856.53,197.48c3.28,0,5.94-2.66,5.94-5.94s-2.66-5.93-5.94-5.93-5.93,2.66-5.93,5.93,2.66,5.94,5.93,5.94Z"/>
        <path class="cls-4" d="m856.53,133.87c3.41,0,6.18-2.76,6.18-6.18s-2.77-6.18-6.18-6.18-6.18,2.77-6.18,6.18,2.77,6.18,6.18,6.18Z"/>
        <path class="cls-4" d="m872.41,71.78c3.28,0,5.94-2.66,5.94-5.94s-2.66-5.93-5.94-5.93-5.93,2.66-5.93,5.93,2.66,5.94,5.93,5.94Z"/>
        <path class="cls-4" d="m1014.8,460.01c5.35,0,9.69-4.36,9.69-9.7s-4.34-9.69-9.69-9.69-9.69,4.35-9.69,9.69,4.34,9.7,9.69,9.7Z"/>
        <path class="cls-4" d="m956.41,432.2c4.35,0,7.88-3.52,7.88-7.87s-3.53-7.87-7.88-7.87-7.87,3.52-7.87,7.87,3.53,7.87,7.87,7.87Z"/>
        <path class="cls-4" d="m904.72,393.3c3.62,0,6.54-2.91,6.54-6.55s-2.92-6.54-6.54-6.54-6.54,2.94-6.54,6.54,2.93,6.55,6.54,6.55Z"/>
        <path class="cls-4" d="m861.96,347.15c4.35,0,7.87-3.52,7.87-7.88s-3.52-7.87-7.87-7.87-7.88,3.53-7.88,7.87,3.53,7.88,7.88,7.88Z"/>
        <path class="cls-4" d="m830.01,293.62c5.35,0,9.69-4.34,9.69-9.68s-4.34-9.7-9.69-9.7-9.69,4.35-9.69,9.7,4.34,9.68,9.69,9.68Z"/>
        <path class="cls-4" d="m810.26,232.61c5.22,0,9.45-4.23,9.45-9.45s-4.23-9.44-9.45-9.44-9.44,4.22-9.44,9.44,4.23,9.45,9.44,9.45Z"/>
        <path class="cls-4" d="m803.58,167.08c4.12,0,7.46-3.34,7.46-7.46s-3.34-7.46-7.46-7.46-7.45,3.34-7.45,7.46,3.34,7.46,7.45,7.46Z"/>
        <path class="cls-4" d="m810.26,102.68c3.65,0,6.61-2.97,6.61-6.62s-2.96-6.61-6.61-6.61-6.62,2.96-6.62,6.61,2.97,6.62,6.62,6.62Z"/>
        <path class="cls-4" d="m830.01,44.61c5.16,0,9.33-4.18,9.33-9.32s-4.17-9.32-9.33-9.32-9.32,4.17-9.32,9.32,4.17,9.32,9.32,9.32Z"/>
        <path class="cls-4" d="m1029.89,520.24c7.16,0,12.96-5.8,12.96-12.97s-5.8-12.96-12.96-12.96-12.96,5.81-12.96,12.96,5.8,12.97,12.96,12.97Z"/>
        <path class="cls-4" d="m969.09,498.3c5.96,0,10.78-4.83,10.78-10.78s-4.82-10.78-10.78-10.78-10.77,4.83-10.77,10.78,4.82,10.78,10.77,10.78Z"/>
        <path class="cls-4" d="m912.79,468.72c6.36,0,11.51-5.15,11.51-11.5s-5.15-11.5-11.51-11.5-11.5,5.14-11.5,11.5,5.15,11.5,11.5,11.5Z"/>
        <path class="cls-4" d="m862.81,427.29c5.49,0,9.93-4.43,9.93-9.92s-4.45-9.93-9.93-9.93-9.93,4.44-9.93,9.93,4.45,9.92,9.93,9.92Z"/>
        <path class="cls-4" d="m820.74,381.45c6.76,0,12.24-5.48,12.24-12.23s-5.48-12.22-12.24-12.22-12.23,5.46-12.23,12.22,5.47,12.23,12.23,12.23Z"/>
        <path class="cls-4" d="m787.96,325.13c5.95,0,10.78-4.84,10.78-10.79s-4.83-10.77-10.78-10.77-10.78,4.82-10.78,10.77,4.83,10.79,10.78,10.79Z"/>
        <path class="cls-4" d="m765.49,265.87c6.29,0,11.39-5.1,11.39-11.39s-5.09-11.38-11.39-11.38-11.38,5.1-11.38,11.38,5.1,11.39,11.38,11.39Z"/>
        <path class="cls-4" d="m754.08,201.51c5.48,0,9.93-4.44,9.93-9.93s-4.44-9.91-9.93-9.91-9.92,4.44-9.92,9.91,4.44,9.93,9.92,9.93Z"/>
        <path class="cls-4" d="m754.08,137.67c5.54,0,10.03-4.5,10.03-10.02s-4.49-10.03-10.03-10.03-10.03,4.5-10.03,10.03,4.49,10.02,10.03,10.02Z"/>
        <path class="cls-4" d="m765.49,72.87c4.49,0,8.13-3.64,8.13-8.13s-3.64-8.12-8.13-8.12-8.13,3.64-8.13,8.12,3.65,8.13,8.13,8.13Z"/>
        <path class="cls-4" d="m1045.49,574.22c6.67,0,12.07-5.41,12.07-12.08s-5.4-12.06-12.07-12.06-12.07,5.4-12.07,12.06,5.41,12.08,12.07,12.08Z"/>
        <path class="cls-4" d="m983.31,560.9c7.56,0,13.68-6.12,13.68-13.69s-6.13-13.68-13.68-13.68-13.69,6.12-13.69,13.68,6.13,13.69,13.69,13.69Z"/>
        <path class="cls-4" d="m924.23,535.7c7.16,0,12.96-5.8,12.96-12.96s-5.8-12.96-12.96-12.96-12.96,5.81-12.96,12.96,5.8,12.96,12.96,12.96Z"/>
        <ellipse class="cls-4" cx="869.7" cy="489.33" rx="12.23" ry="12.22"/>
        <path class="cls-4" d="m821.06,459.29c6.36,0,11.5-5.14,11.5-11.5s-5.15-11.51-11.5-11.51-11.5,5.15-11.5,11.51,5.15,11.5,11.5,11.5Z"/>
        <path class="cls-4" d="m779.53,412.12c7.15,0,12.96-5.8,12.96-12.96s-5.8-12.97-12.96-12.97-12.96,5.82-12.96,12.97,5.8,12.96,12.96,12.96Z"/>
        <path class="cls-4" d="m721.64,298.51c7.16,0,12.96-5.8,12.96-12.97s-5.8-12.96-12.96-12.96-12.96,5.81-12.96,12.96,5.8,12.97,12.96,12.97Z"/>
        <path class="cls-4" d="m706.72,233.64c5.67,0,10.27-4.6,10.27-10.27s-4.6-10.28-10.27-10.28-10.27,4.6-10.27,10.28,4.6,10.27,10.27,10.27Z"/>
        <path class="cls-4" d="m701.7,171.94c6.81,0,12.33-5.52,12.33-12.33s-5.52-12.32-12.33-12.32-12.33,5.52-12.33,12.32,5.52,12.33,12.33,12.33Z"/>
        <path class="cls-4" d="m706.72,106.72c5.99,0,10.85-4.86,10.85-10.86s-4.86-10.85-10.85-10.85-10.85,4.86-10.85,10.85,4.86,10.86,10.85,10.86Z"/>
        <path class="cls-4" d="m721.64,44.49c5.97,0,10.81-4.84,10.81-10.81s-4.84-10.81-10.81-10.81-10.81,4.84-10.81,10.81,4.84,10.81,10.81,10.81Z"/>
        <path class="cls-4" d="m1061.32,627.44c6.54,0,11.85-5.3,11.85-11.85s-5.3-11.84-11.85-11.84-11.84,5.31-11.84,11.84,5.3,11.85,11.84,11.85Z"/>
        <path class="cls-4" d="m998.33,618.6c7.8,0,14.12-6.32,14.12-14.12s-6.32-14.12-14.12-14.12-14.13,6.33-14.13,14.12,6.33,14.12,14.13,14.12Z"/>
        <path class="cls-4" d="m937.49,600.47c8.69,0,15.74-7.05,15.74-15.75s-7.05-15.75-15.74-15.75-15.75,7.04-15.75,15.75,7.05,15.75,15.75,15.75Z"/>
        <path class="cls-4" d="m879.99,572.43c8.7,0,15.75-7.05,15.75-15.74s-7.05-15.75-15.75-15.75-15.74,7.05-15.74,15.75,7.05,15.74,15.74,15.74Z"/>
        <path class="cls-4" d="m826.97,535.81c8.23,0,14.89-6.68,14.89-14.89s-6.66-14.9-14.89-14.9-14.9,6.67-14.9,14.9,6.67,14.89,14.9,14.89Z"/>
        <path class="cls-4" d="m779.44,492.16c7.75,0,14.05-6.29,14.05-14.05s-6.3-14.06-14.05-14.06-14.06,6.3-14.06,14.06,6.29,14.05,14.06,14.05Z"/>
        <path class="cls-4" d="m738.32,442.06c7.16,0,12.96-5.8,12.96-12.96s-5.8-12.97-12.96-12.97-12.96,5.82-12.96,12.97,5.8,12.96,12.96,12.96Z"/>
        <path class="cls-4" d="m704.42,389.03c7.83,0,14.17-6.34,14.17-14.17s-6.34-14.16-14.17-14.16-14.17,6.34-14.17,14.16,6.34,14.17,14.17,14.17Z"/>
        <path class="cls-4" d="m678.4,332.64c8.97,0,16.23-7.25,16.23-16.23s-7.27-16.22-16.23-16.22-16.23,7.26-16.23,16.22,7.27,16.23,16.23,16.23Z"/>
        <path class="cls-4" d="m660.77,267.01c6.66,0,12.06-5.4,12.06-12.06s-5.4-12.05-12.06-12.05-12.06,5.4-12.06,12.05,5.41,12.06,12.06,12.06Z"/>
        <path class="cls-4" d="m651.87,204.51c7.13,0,12.91-5.78,12.91-12.9s-5.78-12.91-12.91-12.91-12.92,5.78-12.92,12.91,5.78,12.9,12.92,12.9Z"/>
        <path class="cls-4" d="m651.87,139.23c6.4,0,11.6-5.19,11.6-11.6s-5.2-11.6-11.6-11.6-11.6,5.19-11.6,11.6,5.19,11.6,11.6,11.6Z"/>
        <path class="cls-4" d="m660.77,74.96c5.9,0,10.68-4.78,10.68-10.67s-4.78-10.67-10.68-10.67-10.67,4.78-10.67,10.67,4.78,10.67,10.67,10.67Z"/>
        <path class="cls-4" d="m1013.79,675.3c8.44,0,15.28-6.83,15.28-15.27s-6.84-15.28-15.28-15.28-15.28,6.84-15.28,15.28,6.84,15.27,15.28,15.27Z"/>
        <path class="cls-4" d="m951.82,656.61c6.91,0,12.5-5.59,12.5-12.5s-5.59-12.49-12.5-12.49-12.49,5.58-12.49,12.49,5.59,12.5,12.49,12.5Z"/>
        <path class="cls-4" d="m892.33,636.31c8.7,0,15.75-7.05,15.75-15.75s-7.05-15.75-15.75-15.75-15.74,7.04-15.74,15.75,7.05,15.75,15.74,15.75Z"/>
        <path class="cls-4" d="m836.27,606.22c9.1,0,16.47-7.38,16.47-16.48s-7.37-16.48-16.47-16.48-16.47,7.38-16.47,16.48,7.37,16.48,16.47,16.48Z"/>
        <path class="cls-4" d="m784.52,569.21c9.43,0,17.08-7.64,17.08-17.07s-7.65-17.09-17.08-17.09-17.07,7.64-17.07,17.09,7.64,17.07,17.07,17.07Z"/>
        <path class="cls-4" d="m737.88,524.45c8.9,0,16.11-7.21,16.11-16.11s-7.21-16.11-16.11-16.11-16.11,7.21-16.11,16.11,7.21,16.11,16.11,16.11Z"/>
        <path class="cls-4" d="m697.1,474.79c8.69,0,15.74-7.05,15.74-15.75s-7.05-15.73-15.74-15.73-15.74,7.04-15.74,15.73,7.05,15.75,15.74,15.75Z"/>
        <path class="cls-4" d="m662.83,422c9.36,0,16.95-7.6,16.95-16.96s-7.59-16.95-16.95-16.95-16.96,7.6-16.96,16.95,7.59,16.96,16.96,16.96Z"/>
        <path class="cls-4" d="m635.59,363.37c8.97,0,16.23-7.26,16.23-16.22s-7.26-16.23-16.23-16.23-16.23,7.26-16.23,16.23,7.27,16.22,16.23,16.22Z"/>
        <path class="cls-4" d="m615.81,303.15c9.3,0,16.84-7.54,16.84-16.85s-7.54-16.83-16.84-16.83-16.83,7.54-16.83,16.83,7.54,16.85,16.83,16.85Z"/>
        <path class="cls-4" d="m603.83,239.92c9.08,0,16.45-7.37,16.45-16.45s-7.36-16.46-16.45-16.46-16.45,7.37-16.45,16.46,7.37,16.45,16.45,16.45Z"/>
        <path class="cls-4" d="m599.81,175.16c8.59,0,15.55-6.96,15.55-15.54s-6.96-15.54-15.55-15.54-15.54,6.96-15.54,15.54,6.96,15.54,15.54,15.54Z"/>
        <path class="cls-4" d="m603.83,110.31c8.03,0,14.55-6.51,14.55-14.55s-6.51-14.54-14.55-14.54-14.55,6.51-14.55,14.54,6.51,14.55,14.55,14.55Z"/>
        <path class="cls-4" d="m615.81,45.07c6.71,0,12.15-5.44,12.15-12.15s-5.44-12.15-12.15-12.15-12.15,5.45-12.15,12.15,5.45,12.15,12.15,12.15Z"/>
        <path class="cls-4" d="m1029.49,732.16c9.87,0,17.87-8,17.87-17.87s-8-17.88-17.87-17.88-17.86,8.01-17.86,17.88,8,17.87,17.86,17.87Z"/>
        <path class="cls-4" d="m966.79,718c9.07,0,16.43-7.35,16.43-16.42s-7.36-16.44-16.43-16.44-16.42,7.36-16.42,16.44,7.35,16.42,16.42,16.42Z"/>
        <path class="cls-4" d="m905.94,699.12c9.56,0,17.32-7.75,17.32-17.32s-7.75-17.32-17.32-17.32-17.32,7.77-17.32,17.32,7.76,17.32,17.32,17.32Z"/>
        <path class="cls-4" d="m847.73,672.68c9.64,0,17.44-7.82,17.44-17.45s-7.8-17.44-17.44-17.44-17.44,7.8-17.44,17.44,7.81,17.45,17.44,17.45Z"/>
        <path class="cls-4" d="m792.95,639.51c9.56,0,17.32-7.75,17.32-17.32s-7.75-17.31-17.32-17.31-17.32,7.76-17.32,17.31,7.76,17.32,17.32,17.32Z"/>
        <path class="cls-4" d="m742.27,600.18c9.44,0,17.08-7.64,17.08-17.07s-7.64-17.07-17.08-17.07-17.07,7.64-17.07,17.07,7.64,17.07,17.07,17.07Z"/>
        <path class="cls-4" d="m696.39,555.24c9.24,0,16.72-7.48,16.72-16.72s-7.48-16.71-16.72-16.71-16.71,7.48-16.71,16.71,7.49,16.72,16.71,16.72Z"/>
        <path class="cls-4" d="m655.89,506.31c9.56,0,17.32-7.75,17.32-17.32s-7.76-17.32-17.32-17.32-17.32,7.76-17.32,17.32,7.76,17.32,17.32,17.32Z"/>
        <path class="cls-4" d="m621.3,452.62c9.64,0,17.44-7.82,17.44-17.45s-7.8-17.44-17.44-17.44-17.44,7.8-17.44,17.44,7.8,17.45,17.44,17.45Z"/>
        <path class="cls-4" d="m593.07,395.32c9.7,0,17.56-7.86,17.56-17.57s-7.86-17.55-17.56-17.55-17.56,7.85-17.56,17.55,7.86,17.57,17.56,17.57Z"/>
        <path class="cls-4" d="m571.57,335.54c9.96,0,18.04-8.08,18.04-18.05s-8.08-18.05-18.04-18.05-18.05,8.09-18.05,18.05,8.08,18.05,18.05,18.05Z"/>
        <path class="cls-4" d="m557.07,269.15c7.73,0,13.98-6.26,13.98-13.99s-6.25-13.97-13.98-13.97-13.98,6.26-13.98,13.97,6.26,13.99,13.98,13.99Z"/>
        <path class="cls-4" d="m549.78,207.21c8.61,0,15.59-6.99,15.59-15.61s-6.98-15.59-15.59-15.59-15.6,6.98-15.6,15.59,6.98,15.61,15.6,15.61Z"/>
        <path class="cls-4" d="m549.78,141.73c7.79,0,14.1-6.31,14.1-14.1s-6.31-14.11-14.1-14.11-14.1,6.31-14.1,14.11,6.31,14.1,14.1,14.1Z"/>
        <path class="cls-4" d="m557.07,77.93c7.66,0,13.87-6.22,13.87-13.87s-6.21-13.87-13.87-13.87-13.87,6.22-13.87,13.87,6.21,13.87,13.87,13.87Z"/>
        <path class="cls-4" d="m1045.34,785.12c9.69,0,17.54-7.85,17.54-17.54s-7.85-17.53-17.54-17.53-17.53,7.85-17.53,17.53,7.85,17.54,17.53,17.54Z"/>
        <path class="cls-4" d="m982.14,775.85c10.09,0,18.29-8.18,18.29-18.28s-8.2-18.27-18.29-18.27-18.28,8.17-18.28,18.27,8.18,18.28,18.28,18.28Z"/>
        <path class="cls-4" d="m920.34,759c9.93,0,17.98-8.06,17.98-17.98s-8.05-17.99-17.98-17.99-17.99,8.05-17.99,17.99,8.05,17.98,17.99,17.98Z"/>
        <path class="cls-4" d="m860.59,736.38c10.11,0,18.3-8.2,18.3-18.3s-8.19-18.29-18.3-18.29-18.28,8.19-18.28,18.29,8.19,18.3,18.28,18.3Z"/>
        <path class="cls-4" d="m803.58,706.71c9.77,0,17.68-7.91,17.68-17.68s-7.91-17.68-17.68-17.68-17.68,7.92-17.68,17.68,7.92,17.68,17.68,17.68Z"/>
        <path class="cls-4" d="m700.19,631.58c9.76,0,17.68-7.9,17.68-17.68s-7.92-17.68-17.68-17.68-17.69,7.92-17.69,17.68,7.92,17.68,17.69,17.68Z"/>
        <path class="cls-4" d="m654.95,586.82c10.03,0,18.16-8.12,18.16-18.15s-8.14-18.18-18.16-18.18-18.17,8.14-18.17,18.18,8.13,18.15,18.17,18.15Z"/>
        <path class="cls-4" d="m614.67,536.87c9.91,0,17.93-8.03,17.93-17.94s-8.02-17.92-17.93-17.92-17.93,8.02-17.93,17.92,8.03,17.94,17.93,17.94Z"/>
        <path class="cls-4" d="m579.83,483.56c10.1,0,18.29-8.19,18.29-18.28s-8.19-18.3-18.29-18.3-18.29,8.18-18.29,18.3,8.19,18.28,18.29,18.28Z"/>
        <path class="cls-4" d="m550.78,426.42c10.03,0,18.17-8.12,18.17-18.16s-8.14-18.17-18.17-18.17-18.17,8.14-18.17,18.17,8.13,18.16,18.17,18.16Z"/>
        <path class="cls-4" d="m527.84,367.18c10.3,0,18.65-8.36,18.65-18.67s-8.35-18.64-18.65-18.64-18.66,8.34-18.66,18.64,8.36,18.67,18.66,18.67Z"/>
        <path class="cls-4" d="m511.28,305.37c10.3,0,18.65-8.37,18.65-18.66s-8.36-18.64-18.65-18.64-18.65,8.35-18.65,18.64,8.35,18.66,18.65,18.66Z"/>
        <path class="cls-4" d="m501.27,237.79c7.88,0,14.27-6.39,14.27-14.27s-6.39-14.26-14.27-14.26-14.27,6.38-14.27,14.26,6.39,14.27,14.27,14.27Z"/>
        <path class="cls-4" d="m497.92,177.04c9.62,0,17.42-7.8,17.42-17.43s-7.8-17.42-17.42-17.42-17.42,7.8-17.42,17.42,7.8,17.43,17.42,17.43Z"/>
        <path class="cls-4" d="m501.27,112.93c9.51,0,17.21-7.71,17.21-17.21s-7.7-17.2-17.21-17.2-17.2,7.7-17.2,17.2,7.7,17.21,17.2,17.21Z"/>
        <path class="cls-4" d="m511.28,46.05c7.49,0,13.54-6.06,13.54-13.54s-6.06-13.54-13.54-13.54-13.54,6.06-13.54,13.54,6.07,13.54,13.54,13.54Z"/>
        <path class="cls-4" d="m1061.28,836.45c9.01,0,16.3-7.3,16.3-16.31s-7.3-16.31-16.3-16.31-16.31,7.31-16.31,16.31,7.3,16.31,16.31,16.31Z"/>
        <path class="cls-4" d="m997.75,828.73c9.01,0,16.31-7.3,16.31-16.31s-7.3-16.31-16.31-16.31-16.3,7.3-16.3,16.31,7.3,16.31,16.3,16.31Z"/>
        <path class="cls-4" d="m935.26,816.15c9.69,0,17.54-7.85,17.54-17.53s-7.85-17.53-17.54-17.53-17.54,7.85-17.54,17.53,7.85,17.53,17.54,17.53Z"/>
        <path class="cls-4" d="m874.4,797.5c10.3,0,18.66-8.36,18.66-18.65s-8.36-18.64-18.66-18.64-18.65,8.34-18.65,18.64,8.36,18.65,18.65,18.65Z"/>
        <path class="cls-4" d="m815.74,771.82c10.24,0,18.53-8.29,18.53-18.54s-8.29-18.53-18.53-18.53-18.53,8.3-18.53,18.53,8.29,18.54,18.53,18.54Z"/>
        <path class="cls-4" d="m759.81,740.6c10.17,0,18.4-8.25,18.4-18.42s-8.24-18.4-18.4-18.4-18.41,8.24-18.41,18.4,8.24,18.42,18.41,18.42Z"/>
        <path class="cls-4" d="m707.14,704c10.04,0,18.17-8.13,18.17-18.16s-8.13-18.18-18.17-18.18-18.17,8.15-18.17,18.18,8.13,18.16,18.17,18.16Z"/>
        <path class="cls-4" d="m658.23,662.72c10.03,0,18.17-8.12,18.17-18.15s-8.14-18.18-18.17-18.18-18.17,8.14-18.17,18.18,8.13,18.15,18.17,18.15Z"/>
        <path class="cls-4" d="m613.53,616.95c10.04,0,18.18-8.13,18.18-18.17s-8.14-18.17-18.18-18.17-18.16,8.14-18.16,18.17,8.13,18.17,18.16,18.17Z"/>
        <path class="cls-4" d="m573.46,567.29c10.17,0,18.41-8.24,18.41-18.42s-8.24-18.4-18.41-18.4-18.41,8.25-18.41,18.4,8.24,18.42,18.41,18.42Z"/>
        <path class="cls-4" d="m538.39,513.64c10.1,0,18.29-8.18,18.29-18.29s-8.19-18.3-18.29-18.3-18.29,8.2-18.29,18.3,8.19,18.29,18.29,18.29Z"/>
        <path class="cls-4" d="m508.65,457.34c10.3,0,18.66-8.35,18.66-18.65s-8.36-18.64-18.66-18.64-18.65,8.34-18.65,18.64,8.35,18.65,18.65,18.65Z"/>
        <path class="cls-4" d="m484.52,398.08c10.3,0,18.66-8.36,18.66-18.65s-8.36-18.66-18.66-18.66-18.66,8.35-18.66,18.66,8.36,18.65,18.66,18.65Z"/>
        <path class="cls-4" d="m466.22,336.52c10.17,0,18.42-8.24,18.42-18.41s-8.25-18.41-18.42-18.41-18.41,8.24-18.41,18.41,8.24,18.41,18.41,18.41Z"/>
        <path class="cls-4" d="m453.93,272.61c9.56,0,17.31-7.75,17.31-17.31s-7.75-17.29-17.31-17.29-17.3,7.74-17.3,17.29,7.75,17.31,17.3,17.31Z"/>
        <path class="cls-4" d="m447.75,206.89c8.44,0,15.28-6.84,15.28-15.28s-6.84-15.28-15.28-15.28-15.28,6.84-15.28,15.28,6.84,15.28,15.28,15.28Z"/>
        <path class="cls-4" d="m447.75,142.11c8.01,0,14.5-6.48,14.5-14.49s-6.49-14.5-14.5-14.5-14.49,6.49-14.49,14.5,6.49,14.49,14.49,14.49Z"/>
        <path class="cls-4" d="m453.93,76.91c7.17,0,12.99-5.82,12.99-13s-5.82-12.98-12.99-12.98-12.99,5.81-12.99,12.98,5.81,13,12.99,13Z"/>
        <path class="cls-4" d="m1013.51,879.53c7.27,0,13.17-5.89,13.17-13.17s-5.89-13.16-13.17-13.16-13.17,5.88-13.17,13.16,5.9,13.17,13.17,13.17Z"/>
        <path class="cls-4" d="m950.54,869.03c7.78,0,14.08-6.31,14.08-14.09s-6.3-14.08-14.08-14.08-14.09,6.3-14.09,14.08,6.3,14.09,14.09,14.09Z"/>
        <path class="cls-4" d="m888.86,856.33c10.16,0,18.41-8.25,18.41-18.42s-8.25-18.4-18.41-18.4-18.42,8.25-18.42,18.4,8.25,18.42,18.42,18.42Z"/>
        <path class="cls-4" d="m828.94,833.85c10.17,0,18.41-8.25,18.41-18.42s-8.25-18.41-18.41-18.41-18.42,8.25-18.42,18.41,8.25,18.42,18.42,18.42Z"/>
        <path class="cls-4" d="m771.28,806.2c10.24,0,18.53-8.3,18.53-18.55s-8.3-18.53-18.53-18.53-18.53,8.31-18.53,18.53,8.3,18.55,18.53,18.55Z"/>
        <path class="cls-4" d="m716.33,773.38c10.24,0,18.53-8.3,18.53-18.53s-8.29-18.55-18.53-18.55-18.52,8.31-18.52,18.55,8.29,18.53,18.52,18.53Z"/>
        <path class="cls-4" d="m664.56,735.88c10.3,0,18.66-8.36,18.66-18.65s-8.36-18.65-18.66-18.65-18.65,8.35-18.65,18.65,8.36,18.65,18.65,18.65Z"/>
        <path class="cls-4" d="m616.38,693.53c10.16,0,18.41-8.25,18.41-18.42s-8.24-18.4-18.41-18.4-18.42,8.24-18.42,18.4,8.25,18.42,18.42,18.42Z"/>
        <path class="cls-4" d="m572.15,647.4c10.23,0,18.53-8.31,18.53-18.55s-8.3-18.54-18.53-18.54-18.53,8.3-18.53,18.54,8.29,18.55,18.53,18.55Z"/>
        <path class="cls-4" d="m532.25,597.48c10.3,0,18.65-8.36,18.65-18.65s-8.35-18.64-18.65-18.64-18.66,8.35-18.66,18.64,8.36,18.65,18.66,18.65Z"/>
        <path class="cls-4" d="m496.99,544.07c10.29,0,18.66-8.35,18.66-18.64s-8.36-18.64-18.66-18.64-18.66,8.33-18.66,18.64,8.36,18.64,18.66,18.64Z"/>
        <path class="cls-4" d="m441.52,428.63c10.17,0,18.41-8.25,18.41-18.41s-8.24-18.4-18.41-18.4-18.42,8.23-18.42,18.4,8.25,18.41,18.42,18.41Z"/>
        <path class="cls-4" d="m421.74,367.41c9.96,0,18.04-8.09,18.04-18.06s-8.08-18.04-18.04-18.04-18.05,8.09-18.05,18.04,8.08,18.06,18.05,18.06Z"/>
        <path class="cls-4" d="m407.5,305.24c10.1,0,18.29-8.18,18.29-18.29s-8.19-18.28-18.29-18.28-18.29,8.18-18.29,18.28,8.19,18.29,18.29,18.29Z"/>
        <path class="cls-4" d="m398.91,239.75c8.95,0,16.2-7.26,16.2-16.21s-7.25-16.2-16.2-16.2-16.2,7.26-16.2,16.2,7.26,16.21,16.2,16.21Z"/>
        <path class="cls-4" d="m396.04,177.05c9.63,0,17.44-7.8,17.44-17.44s-7.81-17.44-17.44-17.44-17.44,7.8-17.44,17.44,7.81,17.44,17.44,17.44Z"/>
        <path class="cls-4" d="m398.91,111.96c8.99,0,16.28-7.29,16.28-16.28s-7.29-16.28-16.28-16.28-16.28,7.29-16.28,16.28,7.29,16.28,16.28,16.28Z"/>
        <path class="cls-4" d="m407.5,44.9c6.98,0,12.64-5.66,12.64-12.64s-5.66-12.64-12.64-12.64-12.64,5.66-12.64,12.64,5.66,12.64,12.64,12.64Z"/>
        <path class="cls-4" d="m1029.36,933.62c7.75,0,14.03-6.3,14.03-14.05s-6.28-14.02-14.03-14.02-14.02,6.29-14.02,14.02,6.28,14.05,14.02,14.05Z"/>
        <path class="cls-4" d="m966.06,924.06c7.64,0,13.83-6.19,13.83-13.83s-6.19-13.83-13.83-13.83-13.83,6.19-13.83,13.83,6.19,13.83,13.83,13.83Z"/>
        <path class="cls-4" d="m903.75,909.14c7.46,0,13.52-6.06,13.52-13.53s-6.06-13.53-13.52-13.53-13.53,6.05-13.53,13.53,6.06,13.53,13.53,13.53Z"/>
        <path class="cls-4" d="m842.88,893.41c9.7,0,17.57-7.87,17.57-17.57s-7.87-17.55-17.57-17.55-17.56,7.85-17.56,17.55,7.86,17.57,17.56,17.57Z"/>
        <path class="cls-4" d="m783.89,869.45c10.17,0,18.41-8.25,18.41-18.42s-8.24-18.4-18.41-18.4-18.41,8.25-18.41,18.4,8.24,18.42,18.41,18.42Z"/>
        <path class="cls-4" d="m727.17,839.81c10.17,0,18.42-8.25,18.42-18.43s-8.25-18.4-18.42-18.4-18.41,8.25-18.41,18.4,8.24,18.43,18.41,18.43Z"/>
        <path class="cls-4" d="m673.13,805.51c10.17,0,18.41-8.24,18.41-18.42s-8.24-18.39-18.41-18.39-18.41,8.24-18.41,18.39,8.24,18.42,18.41,18.42Z"/>
        <path class="cls-4" d="m622.15,767.06c10.3,0,18.66-8.36,18.66-18.65s-8.36-18.64-18.66-18.64-18.65,8.33-18.65,18.64,8.36,18.65,18.65,18.65Z"/>
        <path class="cls-4" d="m574.59,724.24c10.3,0,18.66-8.36,18.66-18.65s-8.36-18.65-18.66-18.65-18.65,8.34-18.65,18.65,8.36,18.65,18.65,18.65Z"/>
        <path class="cls-4" d="m530.78,677.34c10.17,0,18.42-8.24,18.42-18.42s-8.24-18.4-18.42-18.4-18.41,8.24-18.41,18.4,8.24,18.42,18.41,18.42Z"/>
        <path class="cls-4" d="m491.03,627.43c10.3,0,18.66-8.36,18.66-18.65s-8.36-18.64-18.66-18.64-18.65,8.33-18.65,18.64,8.35,18.65,18.65,18.65Z"/>
        <path class="cls-4" d="m424.79,517.19c9.83,0,17.8-7.97,17.8-17.81s-7.97-17.8-17.8-17.8-17.81,7.97-17.81,17.8,7.97,17.81,17.81,17.81Z"/>
        <path class="cls-4" d="m398.75,458.84c9.91,0,17.93-8.03,17.93-17.93s-8.02-17.93-17.93-17.93-17.93,8.03-17.93,17.93,8.03,17.93,17.93,17.93Z"/>
        <path class="cls-4" d="m361.79,336.04c9.71,0,17.57-7.85,17.57-17.57s-7.86-17.55-17.57-17.55-17.56,7.86-17.56,17.55,7.86,17.57,17.56,17.57Z"/>
        <path class="cls-4" d="m351.11,268.56c7.28,0,13.17-5.9,13.17-13.17s-5.89-13.17-13.17-13.17-13.17,5.88-13.17,13.17,5.89,13.17,13.17,13.17Z"/>
        <path class="cls-4" d="m344.93,202.1c7.28,0,13.17-5.9,13.17-13.17s-5.89-13.17-13.17-13.17-13.17,5.88-13.17,13.17,5.89,13.17,13.17,13.17Z"/>
        <path class="cls-4" d="m345.76,142.15c8.03,0,14.54-6.51,14.54-14.53s-6.51-14.54-14.54-14.54-14.54,6.51-14.54,14.54,6.51,14.53,14.54,14.53Z"/>
        <path class="cls-4" d="m351.11,78.34c8.01,0,14.5-6.49,14.5-14.5s-6.49-14.5-14.5-14.5-14.49,6.5-14.49,14.5,6.48,14.5,14.49,14.5Z"/>
        <path class="cls-4" d="m1045.29,988c8.73,0,15.82-7.06,15.82-15.81s-7.08-15.81-15.82-15.81-15.81,7.07-15.81,15.81,7.09,15.81,15.81,15.81Z"/>
        <path class="cls-4" d="m981.74,977.08c6.85,0,12.4-5.55,12.4-12.4s-5.55-12.41-12.4-12.41-12.41,5.55-12.41,12.41,5.55,12.4,12.41,12.4Z"/>
        <path class="cls-4" d="m918.96,967.11c8.24,0,14.93-6.69,14.93-14.93s-6.69-14.92-14.93-14.92-14.92,6.69-14.92,14.92,6.69,14.93,14.92,14.93Z"/>
        <path class="cls-4" d="m857.36,951.77c9.37,0,16.96-7.58,16.96-16.95s-7.59-16.96-16.96-16.96-16.96,7.59-16.96,16.96,7.59,16.95,16.96,16.95Z"/>
        <path class="cls-4" d="m797.32,929.36c9.23,0,16.71-7.48,16.71-16.71s-7.48-16.7-16.71-16.7-16.71,7.48-16.71,16.7,7.48,16.71,16.71,16.71Z"/>
        <path class="cls-4" d="m739.2,903.43c9.7,0,17.56-7.85,17.56-17.57s-7.86-17.55-17.56-17.55-17.57,7.85-17.57,17.55,7.86,17.57,17.57,17.57Z"/>
        <path class="cls-4" d="m694.38,935.89c9.7,0,17.56-7.85,17.56-17.57s-7.86-17.55-17.56-17.55-17.57,7.85-17.57,17.55,7.86,17.57,17.57,17.57Z"/>
        <path class="cls-4" d="m683.36,872.76c10.03,0,18.17-8.12,18.17-18.16s-8.13-18.17-18.17-18.17-18.17,8.14-18.17,18.17,8.14,18.16,18.17,18.16Z"/>
        <path class="cls-4" d="m630.14,837.2c10.04,0,18.17-8.13,18.17-18.16s-8.13-18.18-18.17-18.18-18.16,8.14-18.16,18.18,8.13,18.16,18.16,18.16Z"/>
        <path class="cls-4" d="m579.88,797.83c10.17,0,18.41-8.25,18.41-18.41s-8.24-18.42-18.41-18.42-18.41,8.25-18.41,18.42,8.25,18.41,18.41,18.41Z"/>
        <path class="cls-4" d="m532.89,754.38c10.17,0,18.41-8.24,18.41-18.4s-8.24-18.41-18.41-18.41-18.42,8.24-18.42,18.41,8.25,18.4,18.42,18.4Z"/>
        <path class="cls-4" d="m489.44,707.39c10.17,0,18.42-8.25,18.42-18.43s-8.25-18.4-18.42-18.4-18.41,8.25-18.41,18.4,8.25,18.43,18.41,18.43Z"/>
        <path class="cls-4" d="m449.82,657.12c10.17,0,18.41-8.24,18.41-18.42s-8.24-18.4-18.41-18.4-18.41,8.24-18.41,18.4,8.24,18.42,18.41,18.42Z"/>
        <path class="cls-4" d="m414.26,603.18c9.77,0,17.69-7.91,17.69-17.68s-7.92-17.69-17.69-17.69-17.68,7.92-17.68,17.69,7.91,17.68,17.68,17.68Z"/>
        <path class="cls-4" d="m382.99,547.47c9.83,0,17.8-7.98,17.8-17.81s-7.98-17.81-17.8-17.81-17.81,7.98-17.81,17.81,7.97,17.81,17.81,17.81Z"/>
        <path class="cls-4" d="m356.2,488.26c9.24,0,16.71-7.49,16.71-16.73s-7.48-16.71-16.71-16.71-16.71,7.48-16.71,16.71,7.48,16.73,16.71,16.73Z"/>
        <path class="cls-4" d="m334.04,428.46c9.37,0,16.96-7.61,16.96-16.98s-7.59-16.95-16.96-16.95-16.96,7.6-16.96,16.95,7.59,16.98,16.96,16.98Z"/>
        <path class="cls-4" d="m316.67,366c8.9,0,16.11-7.21,16.11-16.11s-7.21-16.11-16.11-16.11-16.11,7.21-16.11,16.11,7.21,16.11,16.11,16.11Z"/>
        <path class="cls-4" d="m304.18,303.23c8.89,0,16.11-7.21,16.11-16.12s-7.21-16.11-16.11-16.11-16.11,7.22-16.11,16.11,7.21,16.12,16.11,16.12Z"/>
        <path class="cls-4" d="m296.66,236.78c7.3,0,13.21-5.92,13.21-13.21s-5.92-13.2-13.21-13.2-13.21,5.9-13.21,13.2,5.92,13.21,13.21,13.21Z"/>
        <path class="cls-4" d="m294.15,172.83c7.3,0,13.21-5.91,13.21-13.21s-5.91-13.21-13.21-13.21-13.21,5.91-13.21,13.21,5.92,13.21,13.21,13.21Z"/>
        <path class="cls-4" d="m296.66,108.73c7.22,0,13.08-5.85,13.08-13.08s-5.86-13.07-13.08-13.07-13.07,5.85-13.07,13.07,5.85,13.08,13.07,13.08Z"/>
        <path class="cls-4" d="m304.18,45.27c7.27,0,13.16-5.89,13.16-13.16s-5.89-13.16-13.16-13.16-13.16,5.89-13.16,13.16,5.89,13.16,13.16,13.16Z"/>
        <path class="cls-4" d="m1061.26,1038.74c7.96,0,14.42-6.46,14.42-14.42s-6.46-14.41-14.42-14.41-14.42,6.44-14.42,14.41,6.45,14.42,14.42,14.42Z"/>
        <path class="cls-4" d="m997.53,1031.23c7.08,0,12.81-5.74,12.81-12.82s-5.73-12.8-12.81-12.8-12.81,5.74-12.81,12.8,5.73,12.82,12.81,12.82Z"/>
        <path class="cls-4" d="m934.4,1020.07c6.77,0,12.25-5.48,12.25-12.25s-5.48-12.23-12.25-12.23-12.24,5.48-12.24,12.23,5.48,12.25,12.24,12.25Z"/>
        <path class="cls-4" d="m872.24,1007.6c8.29,0,15.01-6.71,15.01-15.01s-6.72-15.03-15.01-15.03-15.02,6.73-15.02,15.03,6.73,15.01,15.02,15.01Z"/>
        <path class="cls-4" d="m811.37,987.71c8.23,0,14.9-6.68,14.9-14.9s-6.67-14.89-14.9-14.89-14.89,6.66-14.89,14.89,6.66,14.9,14.89,14.9Z"/>
        <path class="cls-4" d="m752.13,965.19c9.17,0,16.59-7.43,16.59-16.6s-7.42-16.57-16.59-16.57-16.59,7.42-16.59,16.57,7.43,16.6,16.59,16.6Z"/>
        <path class="cls-4" d="m639.81,904.95c9.7,0,17.56-7.86,17.56-17.57s-7.86-17.55-17.56-17.55-17.57,7.85-17.57,17.55,7.86,17.57,17.57,17.57Z"/>
        <path class="cls-4" d="m587.34,868.88c10.04,0,18.17-8.11,18.17-18.16s-8.13-18.17-18.17-18.17-18.16,8.14-18.16,18.17,8.14,18.16,18.16,18.16Z"/>
        <path class="cls-4" d="m537.72,828.46c10.04,0,18.17-8.12,18.17-18.16s-8.13-18.17-18.17-18.17-18.17,8.14-18.17,18.17,8.13,18.16,18.17,18.16Z"/>
        <path class="cls-4" d="m491.23,784.36c9.96,0,18.05-8.08,18.05-18.04s-8.09-18.04-18.05-18.04-18.04,8.08-18.04,18.04,8.08,18.04,18.04,18.04Z"/>
        <path class="cls-4" d="m448.12,737.43c10.16,0,18.41-8.25,18.41-18.42s-8.25-18.4-18.41-18.4-18.42,8.24-18.42,18.4,8.25,18.42,18.42,18.42Z"/>
        <path class="cls-4" d="m408.6,686.22c9.7,0,17.56-7.86,17.56-17.57s-7.86-17.55-17.56-17.55-17.56,7.85-17.56,17.55,7.86,17.57,17.56,17.57Z"/>
        <path class="cls-4" d="m372.92,631.63c8.9,0,16.12-7.22,16.12-16.1s-7.22-16.12-16.12-16.12-16.1,7.22-16.1,16.12,7.21,16.1,16.1,16.1Z"/>
        <path class="cls-4" d="m341.26,576.26c9.03,0,16.35-7.33,16.35-16.35s-7.32-16.34-16.35-16.34-16.35,7.31-16.35,16.34,7.32,16.35,16.35,16.35Z"/>
        <path class="cls-4" d="m313.8,516.74c8.1,0,14.66-6.56,14.66-14.65s-6.56-14.65-14.66-14.65-14.65,6.57-14.65,14.65,6.56,14.65,14.65,14.65Z"/>
        <path class="cls-4" d="m290.68,458.51c8.89,0,16.1-7.21,16.1-16.1s-7.21-16.11-16.1-16.11-16.11,7.21-16.11,16.11,7.21,16.1,16.11,16.1Z"/>
        <path class="cls-4" d="m272.03,395.24c7.76,0,14.05-6.29,14.05-14.05s-6.29-14.05-14.05-14.05-14.05,6.28-14.05,14.05,6.3,14.05,14.05,14.05Z"/>
        <path class="cls-4" d="m257.96,332.8c7.75,0,14.04-6.28,14.04-14.04s-6.29-14.06-14.04-14.06-14.05,6.3-14.05,14.06,6.29,14.04,14.05,14.04Z"/>
        <path class="cls-4" d="m248.53,267.82c6.82,0,12.36-5.53,12.36-12.37s-5.54-12.37-12.36-12.37-12.37,5.53-12.37,12.37,5.54,12.37,12.37,12.37Z"/>
        <path class="cls-4" d="m243.8,206.39c8.16,0,14.77-6.62,14.77-14.77s-6.61-14.78-14.77-14.78-14.78,6.62-14.78,14.78,6.61,14.77,14.78,14.77Z"/>
        <path class="cls-4" d="m243.8,141.33c7.58,0,13.72-6.14,13.72-13.71s-6.14-13.72-13.72-13.72-13.72,6.14-13.72,13.72,6.14,13.71,13.72,13.71Z"/>
        <path class="cls-4" d="m248.53,76.29c6.9,0,12.5-5.6,12.5-12.5s-5.61-12.51-12.5-12.51-12.51,5.59-12.51,12.51,5.6,12.5,12.51,12.5Z"/>
        <path class="cls-4" d="m950.01,1073.48c5.97,0,10.81-4.85,10.81-10.81s-4.84-10.8-10.81-10.8-10.81,4.83-10.81,10.8,4.84,10.81,10.81,10.81Z"/>
        <path class="cls-4" d="m887.41,1063.53c7.83,0,14.17-6.35,14.17-14.18s-6.34-14.17-14.17-14.17-14.17,6.34-14.17,14.17,6.35,14.18,14.17,14.18Z"/>
        <path class="cls-4" d="m825.88,1045.76c7.76,0,14.05-6.29,14.05-14.05s-6.29-14.05-14.05-14.05-14.06,6.3-14.06,14.05,6.3,14.05,14.06,14.05Z"/>
        <path class="cls-4" d="m765.74,1024.48c8.09,0,14.65-6.56,14.65-14.65s-6.56-14.65-14.65-14.65-14.66,6.56-14.66,14.65,6.56,14.65,14.66,14.65Z"/>
        <path class="cls-4" d="m707.27,998.21c7.96,0,14.41-6.45,14.41-14.42s-6.45-14.41-14.41-14.41-14.42,6.45-14.42,14.41,6.45,14.42,14.42,14.42Z"/>
        <path class="cls-4" d="m650.75,970.1c9.03,0,16.35-7.32,16.35-16.36s-7.31-16.34-16.35-16.34-16.35,7.3-16.35,16.34,7.32,16.36,16.35,16.36Z"/>
        <path class="cls-4" d="m596.48,935.94c8.9,0,16.11-7.22,16.11-16.12s-7.21-16.1-16.11-16.1-16.11,7.22-16.11,16.1,7.21,16.12,16.11,16.12Z"/>
        <path class="cls-4" d="m544.69,899.76c9.7,0,17.56-7.85,17.56-17.57s-7.86-17.55-17.56-17.55-17.56,7.85-17.56,17.55,7.86,17.57,17.56,17.57Z"/>
        <path class="cls-4" d="m449.62,813.81c9.5,0,17.19-7.71,17.19-17.2s-7.69-17.2-17.19-17.2-17.2,7.7-17.2,17.2,7.7,17.2,17.2,17.2Z"/>
        <path class="cls-4" d="m406.79,766.48c9.64,0,17.44-7.81,17.44-17.45s-7.8-17.43-17.44-17.43-17.44,7.81-17.44,17.43,7.81,17.45,17.44,17.45Z"/>
        <path class="cls-4" d="m367.39,714.71c8.9,0,16.11-7.21,16.11-16.11s-7.22-16.11-16.11-16.11-16.11,7.21-16.11,16.11,7.21,16.11,16.11,16.11Z"/>
        <path class="cls-4" d="m331.6,661.65c8.9,0,16.11-7.22,16.11-16.11s-7.21-16.11-16.11-16.11-16.11,7.21-16.11,16.11,7.21,16.11,16.11,16.11Z"/>
        <path class="cls-4" d="m299.59,604.66c8.03,0,14.54-6.52,14.54-14.55s-6.51-14.54-14.54-14.54-14.53,6.5-14.53,14.54,6.5,14.55,14.53,14.55Z"/>
        <path class="cls-4" d="m271.54,546.63c7.76,0,14.06-6.28,14.06-14.04s-6.3-14.06-14.06-14.06-14.05,6.3-14.05,14.06,6.3,14.04,14.05,14.04Z"/>
        <path class="cls-4" d="m247.57,487.28c7.75,0,14.04-6.28,14.04-14.05s-6.29-14.05-14.04-14.05-14.05,6.29-14.05,14.05,6.29,14.05,14.05,14.05Z"/>
        <path class="cls-4" d="m227.79,426.41c7.76,0,14.05-6.28,14.05-14.05s-6.29-14.04-14.05-14.04-14.06,6.29-14.06,14.04,6.3,14.05,14.06,14.05Z"/>
        <path class="cls-4" d="m212.31,363.34c7.22,0,13.08-5.85,13.08-13.09s-5.86-13.07-13.08-13.07-13.09,5.85-13.09,13.07,5.85,13.09,13.09,13.09Z"/>
        <path class="cls-4" d="m201.18,300.79c7.5,0,13.57-6.07,13.57-13.57s-6.08-13.56-13.57-13.56-13.56,6.08-13.56,13.56,6.08,13.57,13.56,13.57Z"/>
        <path class="cls-4" d="m194.5,237.23c7.53,0,13.64-6.11,13.64-13.66s-6.11-13.65-13.64-13.65-13.66,6.1-13.66,13.65,6.11,13.66,13.66,13.66Z"/>
        <path class="cls-4" d="m192.26,172.54c7.14,0,12.93-5.79,12.93-12.93s-5.79-12.92-12.93-12.92-12.92,5.79-12.92,12.92,5.79,12.93,12.92,12.93Z"/>
        <path class="cls-4" d="m194.5,108.96c7.35,0,13.31-5.95,13.31-13.31s-5.96-13.31-13.31-13.31-13.31,5.96-13.31,13.31,5.95,13.31,13.31,13.31Z"/>
        <path class="cls-4" d="m201.18,39.74c4.28,0,7.75-3.47,7.75-7.75s-3.47-7.75-7.75-7.75-7.75,3.47-7.75,7.75,3.47,7.75,7.75,7.75Z"/>
        <circle class="cls-4" cx="779.87" cy="1069.77" r="11.75" transform="translate(-224.92 207.8) rotate(-13.28)"/>
        <path class="cls-4" d="m720.43,1057.89c6.56,0,11.87-5.33,11.87-11.88s-5.31-11.87-11.87-11.87-11.87,5.31-11.87,11.87,5.31,11.88,11.87,11.88Z"/>
        <path class="cls-4" d="m662.7,1030c6.42,0,11.63-5.2,11.63-11.63s-5.2-11.63-11.63-11.63-11.62,5.2-11.62,11.63,5.2,11.63,11.62,11.63Z"/>
        <path class="cls-4" d="m606.92,1001.04c7.76,0,14.05-6.28,14.05-14.05s-6.29-14.05-14.05-14.05-14.05,6.29-14.05,14.05,6.29,14.05,14.05,14.05Z"/>
        <path class="cls-4" d="m553.34,968.09c8.9,0,16.11-7.22,16.11-16.12s-7.21-16.11-16.11-16.11-16.11,7.21-16.11,16.11,7.21,16.12,16.11,16.12Z"/>
        <path class="cls-4" d="m502.19,929.26c8.7,0,15.74-7.05,15.74-15.74s-7.05-15.75-15.74-15.75-15.74,7.05-15.74,15.75,7.05,15.74,15.74,15.74Z"/>
        <path class="cls-4" d="m453.69,886.52c8.16,0,14.78-6.61,14.78-14.78s-6.62-14.78-14.78-14.78-14.78,6.61-14.78,14.78,6.61,14.78,14.78,14.78Z"/>
        <path class="cls-4" d="m408.06,841.64c8.16,0,14.77-6.61,14.77-14.78s-6.61-14.78-14.77-14.78-14.78,6.61-14.78,14.78,6.62,14.78,14.78,14.78Z"/>
        <path class="cls-4" d="m365.49,794.68c8.63,0,15.63-7,15.63-15.62s-7-15.62-15.63-15.62-15.62,6.99-15.62,15.62,7,15.62,15.62,15.62Z"/>
        <path class="cls-4" d="m326.18,742.24c7.56,0,13.68-6.12,13.68-13.68s-6.13-13.69-13.68-13.69-13.68,6.13-13.68,13.69,6.13,13.68,13.68,13.68Z"/>
        <path class="cls-4" d="m290.29,689.59c7.76,0,14.05-6.27,14.05-14.04s-6.29-14.06-14.05-14.06-14.06,6.3-14.06,14.06,6.3,14.04,14.06,14.04Z"/>
        <path class="cls-4" d="m257.98,632.04c6.49,0,11.75-5.25,11.75-11.75s-5.26-11.75-11.75-11.75-11.75,5.27-11.75,11.75,5.26,11.75,11.75,11.75Z"/>
        <path class="cls-4" d="m229.4,577.08c7.76,0,14.05-6.28,14.05-14.06s-6.29-14.04-14.05-14.04-14.05,6.3-14.05,14.04,6.3,14.06,14.05,14.06Z"/>
        <path class="cls-4" d="m204.66,515.39c6.28,0,11.38-5.11,11.38-11.39s-5.1-11.38-11.38-11.38-11.39,5.1-11.39,11.38,5.09,11.39,11.39,11.39Z"/>
        <path class="cls-4" d="m183.88,456.3c7.09,0,12.84-5.75,12.84-12.84s-5.75-12.83-12.84-12.83-12.84,5.74-12.84,12.83,5.75,12.84,12.84,12.84Z"/>
        <path class="cls-4" d="m166.87,392.93c7.09,0,12.84-5.75,12.84-12.84s-5.75-12.83-12.84-12.83-12.84,5.74-12.84,12.83,5.75,12.84,12.84,12.84Z"/>
        <path class="cls-4" d="m154.52,330.31c6.29,0,11.38-5.09,11.38-11.39s-5.1-11.37-11.38-11.37-11.39,5.1-11.39,11.37,5.09,11.39,11.39,11.39Z"/>
        <path class="cls-4" d="m146.08,266.87c6.29,0,11.39-5.09,11.39-11.4s-5.1-11.37-11.39-11.37-11.38,5.09-11.38,11.37,5.1,11.4,11.38,11.4Z"/>
        <path class="cls-4" d="m141.85,203c6.28,0,11.38-5.09,11.38-11.38s-5.1-11.39-11.38-11.39-11.39,5.09-11.39,11.39,5.09,11.38,11.39,11.38Z"/>
        <path class="cls-4" d="m141.85,138.52c6.02,0,10.89-4.88,10.89-10.9s-4.87-10.9-10.89-10.9-10.89,4.88-10.89,10.9,4.87,10.9,10.89,10.9Z"/>
        <path class="cls-4" d="m146.08,72.02c4.57,0,8.27-3.71,8.27-8.27s-3.7-8.27-8.27-8.27-8.27,3.7-8.27,8.27,3.7,8.27,8.27,8.27Z"/>
        <path class="cls-4" d="m618.4,1063.84c6.29,0,11.39-5.09,11.39-11.39s-5.09-11.38-11.39-11.38-11.38,5.1-11.38,11.38,5.1,11.39,11.38,11.39Z"/>
        <path class="cls-4" d="m563.31,1030.89c6.09,0,11.02-4.93,11.02-11.03s-4.93-11.01-11.02-11.01-11.03,4.92-11.03,11.01,4.94,11.03,11.03,11.03Z"/>
        <path class="cls-4" d="m510.37,997.1c7.29,0,13.2-5.9,13.2-13.19s-5.91-13.21-13.2-13.21-13.2,5.91-13.2,13.21,5.91,13.19,13.2,13.19Z"/>
        <path class="cls-4" d="m459.79,958.84c7.83,0,14.17-6.35,14.17-14.18s-6.34-14.17-14.17-14.17-14.17,6.34-14.17,14.17,6.34,14.18,14.17,14.18Z"/>
        <path class="cls-4" d="m411.78,915.54c7.29,0,13.2-5.92,13.2-13.2s-5.91-13.21-13.2-13.21-13.2,5.93-13.2,13.21,5.91,13.2,13.2,13.2Z"/>
        <path class="cls-4" d="m366.52,871.49c7.95,0,14.41-6.45,14.41-14.42s-6.46-14.42-14.41-14.42-14.42,6.46-14.42,14.42,6.45,14.42,14.42,14.42Z"/>
        <path class="cls-4" d="m324.19,817.9c4.88,0,8.84-3.95,8.84-8.84s-3.95-8.84-8.84-8.84-8.84,3.96-8.84,8.84,3.95,8.84,8.84,8.84Z"/>
        <path class="cls-4" d="m284.96,771.21c7.03,0,12.72-5.7,12.72-12.72s-5.69-12.71-12.72-12.71-12.72,5.69-12.72,12.71,5.7,12.72,12.72,12.72Z"/>
        <path class="cls-4" d="m248.98,716.57c6.09,0,11.03-4.93,11.03-11.04s-4.94-11-11.03-11-11.02,4.93-11.02,11,4.94,11.04,11.02,11.04Z"/>
        <path class="cls-4" d="m216.41,661.84c6.28,0,11.38-5.1,11.38-11.38s-5.1-11.38-11.38-11.38-11.39,5.09-11.39,11.38,5.1,11.38,11.39,11.38Z"/>
        <path class="cls-4" d="m187.34,604.8c6.29,0,11.38-5.08,11.38-11.38s-5.1-11.38-11.38-11.38-11.38,5.09-11.38,11.38,5.09,11.38,11.38,11.38Z"/>
        <path class="cls-4" d="m161.92,543.76c5.02,0,9.09-4.06,9.09-9.08s-4.07-9.08-9.09-9.08-9.08,4.07-9.08,9.08,4.07,9.08,9.08,9.08Z"/>
        <path class="cls-4" d="m140.25,484.03c5.28,0,9.56-4.28,9.56-9.58s-4.28-9.56-9.56-9.56-9.57,4.28-9.57,9.56,4.28,9.58,9.57,9.58Z"/>
        <path class="cls-4" d="m122.39,419.17c3.41,0,6.18-2.76,6.18-6.18s-2.76-6.18-6.18-6.18-6.18,2.78-6.18,6.18,2.76,6.18,6.18,6.18Z"/>
        <path class="cls-4" d="m108.42,358.77c4.55,0,8.24-3.69,8.24-8.25s-3.69-8.23-8.24-8.23-8.24,3.69-8.24,8.23,3.69,8.25,8.24,8.25Z"/>
        <path class="cls-4" d="m98.41,295.55c4.55,0,8.24-3.69,8.24-8.24s-3.69-8.24-8.24-8.24-8.23,3.69-8.23,8.24,3.69,8.24,8.23,8.24Z"/>
        <path class="cls-4" d="m92.39,231.83c4.54,0,8.23-3.69,8.23-8.24s-3.69-8.23-8.23-8.23-8.24,3.69-8.24,8.23,3.69,8.24,8.24,8.24Z"/>
        <path class="cls-4" d="m90.38,167.85c4.55,0,8.24-3.68,8.24-8.23s-3.68-8.24-8.24-8.24-8.24,3.69-8.24,8.24,3.69,8.23,8.24,8.23Z"/>
        <path class="cls-4" d="m92.39,102.26c3.65,0,6.61-2.97,6.61-6.62s-2.96-6.61-6.61-6.61-6.62,2.96-6.62,6.61,2.96,6.62,6.62,6.62Z"/>
        <path class="cls-4" d="m98.41,38.13c3.43,0,6.21-2.78,6.21-6.22s-2.78-6.21-6.21-6.21-6.21,2.79-6.21,6.21,2.78,6.22,6.21,6.22Z"/>
        <path class="cls-4" d="m519.88,1062.87c5.76,0,10.42-4.67,10.42-10.42s-4.67-10.42-10.42-10.42-10.41,4.66-10.41,10.42,4.67,10.42,10.41,10.42Z"/>
        <path class="cls-4" d="m467.55,1021.79c3.41,0,6.18-2.76,6.18-6.19s-2.77-6.18-6.18-6.18-6.18,2.78-6.18,6.18,2.77,6.19,6.18,6.19Z"/>
        <path class="cls-4" d="m417.5,983.08c4.08,0,7.39-3.31,7.39-7.38s-3.31-7.38-7.39-7.38-7.39,3.3-7.39,7.38,3.3,7.38,7.39,7.38Z"/>
        <path class="cls-4" d="m369.94,941.95c5.02,0,9.08-4.07,9.08-9.08s-4.07-9.08-9.08-9.08-9.08,4.07-9.08,9.08,4.07,9.08,9.08,9.08Z"/>
        <path class="cls-4" d="m325.01,894.43c3.95,0,7.15-3.2,7.15-7.16s-3.2-7.14-7.15-7.14-7.14,3.19-7.14,7.14,3.2,7.16,7.14,7.16Z"/>
        <path class="cls-4" d="m282.9,847.91c4.88,0,8.84-3.96,8.84-8.85s-3.96-8.84-8.84-8.84-8.85,3.96-8.85,8.84,3.96,8.85,8.85,8.85Z"/>
        <path class="cls-4" d="m243.75,798.61c5.62,0,10.17-4.56,10.17-10.19s-4.56-10.17-10.17-10.17-10.18,4.57-10.18,10.17,4.55,10.19,10.18,10.19Z"/>
        <path class="cls-4" d="m207.69,745.36c5.41,0,9.81-4.39,9.81-9.82s-4.39-9.8-9.81-9.8-9.81,4.38-9.81,9.8,4.4,9.82,9.81,9.82Z"/>
        <path class="cls-4" d="m174.86,688.72c4.48,0,8.11-3.63,8.11-8.12s-3.63-8.11-8.11-8.11-8.11,3.63-8.11,8.11,3.63,8.12,8.11,8.12Z"/>
        <path class="cls-4" d="m145.38,632.15c4.61,0,8.36-3.75,8.36-8.37s-3.74-8.35-8.36-8.35-8.36,3.74-8.36,8.35,3.74,8.37,8.36,8.37Z"/>
        <path class="cls-4" d="m119.34,570.28c2.75,0,4.96-2.23,4.96-4.97s-2.22-4.96-4.96-4.96-4.97,2.23-4.97,4.96,2.23,4.97,4.97,4.97Z"/>
        <path class="cls-4" d="m96.85,510.83c3.01,0,5.45-2.44,5.45-5.45s-2.44-5.45-5.45-5.45-5.45,2.43-5.45,5.45,2.45,5.45,5.45,5.45Z"/>
        <path class="cls-4" d="m77.99,450.4c3.41,0,6.18-2.77,6.18-6.19s-2.76-6.18-6.18-6.18-6.18,2.78-6.18,6.18,2.76,6.19,6.18,6.19Z"/>
        <path class="cls-4" d="m62.81,386.39c2.4,0,4.36-1.94,4.36-4.36s-1.95-4.36-4.36-4.36-4.36,1.97-4.36,4.36,1.95,4.36,4.36,4.36Z"/>
        <path class="cls-4" d="m51.38,323.41c2.41,0,4.36-1.94,4.36-4.36s-1.95-4.36-4.36-4.36-4.36,1.95-4.36,4.36,1.95,4.36,4.36,4.36Z"/>
        <path class="cls-4" d="m43.74,259.86c2.4,0,4.36-1.93,4.36-4.36s-1.95-4.36-4.36-4.36-4.36,1.96-4.36,4.36,1.95,4.36,4.36,4.36Z"/>
        <path class="cls-4" d="m39.91,195.98c2.41,0,4.35-1.96,4.35-4.37s-1.95-4.36-4.35-4.36-4.36,1.95-4.36,4.36,1.95,4.37,4.36,4.37Z"/>
        <path class="cls-4" d="m39.91,131.84c2.34,0,4.24-1.89,4.24-4.24s-1.9-4.24-4.24-4.24-4.24,1.9-4.24,4.24,1.9,4.24,4.24,4.24Z"/>
        <path class="cls-4" d="m43.74,67.47c2.07,0,3.75-1.68,3.75-3.75s-1.68-3.76-3.75-3.76-3.76,1.68-3.76,3.76,1.68,3.75,3.76,3.75Z"/>
        <path class="cls-4" d="m424.86,1052.1c2.74,0,4.97-2.22,4.97-4.96s-2.22-4.96-4.97-4.96-4.96,2.24-4.96,4.96,2.22,4.96,4.96,4.96Z"/>
        <path class="cls-4" d="m375.31,1012.08c3.01,0,5.45-2.44,5.45-5.46s-2.45-5.44-5.45-5.44-5.46,2.42-5.46,5.44,2.45,5.46,5.46,5.46Z"/>
        <path class="cls-4" d="m328.15,965.29c1.07,0,1.94-.87,1.94-1.95s-.87-1.93-1.94-1.93-1.93.87-1.93,1.93.86,1.95,1.93,1.95Z"/>
        <path class="cls-4" d="m283.54,922.04c2.54,0,4.6-2.06,4.6-4.61s-2.06-4.59-4.6-4.59-4.6,2.06-4.6,4.59,2.06,4.61,4.6,4.61Z"/>
        <path class="cls-4" d="m241.62,874.51c3.02,0,5.45-2.43,5.45-5.45s-2.44-5.44-5.45-5.44-5.45,2.44-5.45,5.44,2.44,5.45,5.45,5.45Z"/>
        <path class="cls-4" d="m202.53,822.5c2.28,0,4.11-1.84,4.11-4.12s-1.84-4.12-4.11-4.12-4.11,1.84-4.11,4.12,1.84,4.12,4.11,4.12Z"/>
        <path class="cls-4" d="m166.41,768.93c1.87,0,3.39-1.52,3.39-3.39s-1.52-3.39-3.39-3.39-3.39,1.52-3.39,3.39,1.51,3.39,3.39,3.39Z"/>
        <path class="cls-4" d="m133.35,714.48c2.07,0,3.75-1.69,3.75-3.76s-1.68-3.76-3.75-3.76-3.76,1.68-3.76,3.76,1.68,3.76,3.76,3.76Z"/>
        <path class="cls-4" d="m103.48,654.48c.19,0,.36-.16.36-.36s-.17-.36-.36-.36c-.21,0-.37.16-.37.36,0,.21.16.36.37.36Z"/>
        <path class="cls-4" d="m76.89,600.86c2.74,0,4.96-2.23,4.96-4.96s-2.22-4.97-4.96-4.97-4.97,2.23-4.97,4.97,2.22,4.96,4.97,4.96Z"/>
        <path class="cls-4" d="m53.66,537.21c.53,0,.97-.43.97-.97s-.43-.97-.97-.97-.96.44-.96.97.43.97.96.97Z"/>
        <path class="cls-4" d="m33.89,476.95c.87,0,1.57-.71,1.57-1.59s-.7-1.56-1.57-1.56-1.57.7-1.57,1.56.71,1.59,1.57,1.59Z"/>
      </g>
      <g>
        <g>
          <rect class="cls-3" x="742.76" y="328.65" width="8.76" height="33.59" transform="translate(463.1 -427.13) rotate(45)"/>
          <rect class="cls-3" x="742.76" y="328.65" width="8.76" height="33.59" transform="translate(1519.73 61.4) rotate(135)"/>
        </g>
        <g>
          <rect class="cls-3" x="373.35" y="364.2" width="8.76" height="33.59" transform="translate(380.04 -155.51) rotate(45)"/>
          <rect class="cls-3" x="373.35" y="364.2" width="8.76" height="33.59" transform="translate(914.24 383.3) rotate(135)"/>
        </g>
        <g>
          <rect class="cls-3" x="463" y="453.85" width="8.76" height="33.59" transform="translate(469.69 -192.64) rotate(45)"/>
          <rect class="cls-3" x="463" y="453.85" width="8.76" height="33.59" transform="translate(1130.67 472.95) rotate(135)"/>
        </g>
        <g>
          <rect class="cls-3" x="492.37" y="824.8" width="8.76" height="33.59" transform="translate(740.6 -104.76) rotate(45)"/>
          <rect class="cls-3" x="492.37" y="824.8" width="8.76" height="33.59" transform="translate(1443.11 1085.45) rotate(135)"/>
        </g>
        <g>
          <rect class="cls-3" x="745.86" y="637.78" width="8.76" height="33.59" transform="translate(682.6 -338.78) rotate(45)"/>
          <rect class="cls-3" x="745.86" y="637.78" width="8.76" height="33.59" transform="translate(1743.59 586.94) rotate(135)"/>
        </g>
        <g>
          <rect class="cls-3" x="448.56" y="537.61" width="8.85" height="33.91" transform="translate(524.81 -157.88) rotate(45)"/>
          <rect class="cls-3" x="448.56" y="537.61" width="8.85" height="33.91" transform="translate(1165.43 626.39) rotate(135)"/>
        </g>
      </g>
    </g>
  </g>
</svg>