<?xml version="1.0" encoding="UTF-8"?>
<svg id="Layer_1" data-name="Layer 1" xmlns="http://www.w3.org/2000/svg" xmlns:xlink="http://www.w3.org/1999/xlink" viewBox="0 0 1080 1080">
  <defs>
    <style>
      .cls-1 {
        fill: none;
      }

      .cls-2 {
        clip-path: url(#clippath);
      }

      .cls-3 {
        fill: lime;
      }

      .cls-4 {
        fill: #805cdd;
      }
    </style>
    <clipPath id="clippath">
      <rect class="cls-1" x="-4.5" y="4.5" width="1088" height="1079" transform="translate(1083.5 4.5) rotate(90)"/>
    </clipPath>
  </defs>
  <g class="cls-2">
    <g>
      <path class="cls-4" d="m1028.43,40.15c0,6.16,5,11.16,11.16,11.16s11.17-5,11.17-11.16-5-11.17-11.17-11.17-11.16,5-11.16,11.17Z"/>
      <path class="cls-4" d="m1028.72,165.82c0,6,4.87,10.87,10.87,10.87s10.87-4.87,10.87-10.87-4.87-10.87-10.87-10.87-10.87,4.87-10.87,10.87Z"/>
      <path class="cls-4" d="m1035.36,291.48c0,2.34,1.89,4.23,4.23,4.23s4.23-1.89,4.23-4.23-1.89-4.23-4.23-4.23-4.23,1.89-4.23,4.23Z"/>
      <path class="cls-4" d="m1026.05,417.15c0,7.48,6.07,13.55,13.55,13.55s13.55-6.07,13.55-13.55-6.07-13.55-13.55-13.55-13.55,6.07-13.55,13.55Z"/>
      <circle class="cls-4" cx="1039.59" cy="542.82" r="5.07"/>
      <path class="cls-4" d="m1024.1,668.48c0,8.55,6.94,15.49,15.49,15.49s15.49-6.94,15.49-15.49-6.94-15.49-15.49-15.49-15.49,6.94-15.49,15.49Z"/>
      <path class="cls-4" d="m1028.51,794.15c0,6.12,4.96,11.08,11.08,11.08s11.08-4.96,11.08-11.08-4.96-11.08-11.08-11.08-11.08,4.96-11.08,11.08Z"/>
      <path class="cls-4" d="m1034.59,919.81c0,2.76,2.24,5,5,5s5-2.24,5-5-2.24-5-5-5-5,2.24-5,5Z"/>
      <path class="cls-4" d="m1026.42,1045.48c0,7.27,5.9,13.17,13.17,13.17s13.17-5.9,13.17-13.17-5.9-13.17-13.17-13.17-13.17,5.9-13.17,13.17Z"/>
      <path class="cls-4" d="m907.59,40.15c0,3.5,2.84,6.34,6.34,6.34s6.34-2.84,6.34-6.34-2.84-6.34-6.34-6.34-6.34,2.84-6.34,6.34Z"/>
      <path class="cls-4" d="m909.05,165.82c0,2.69,2.19,4.88,4.88,4.88s4.88-2.18,4.88-4.88-2.18-4.88-4.88-4.88-4.88,2.18-4.88,4.88Z"/>
      <path class="cls-4" d="m906.25,291.48c0,4.24,3.44,7.68,7.68,7.68s7.68-3.44,7.68-7.68-3.44-7.68-7.68-7.68-7.68,3.44-7.68,7.68Z"/>
      <path class="cls-4" d="m904.69,417.15c0,5.1,4.13,9.23,9.23,9.23s9.24-4.13,9.24-9.23-4.13-9.24-9.24-9.24-9.23,4.13-9.23,9.24Z"/>
      <path class="cls-4" d="m910.08,542.82c0,2.12,1.72,3.85,3.85,3.85s3.85-1.72,3.85-3.85-1.72-3.85-3.85-3.85-3.85,1.72-3.85,3.85Z"/>
      <path class="cls-4" d="m894.28,794.15c0,10.85,8.8,19.65,19.65,19.65s19.65-8.8,19.65-19.65-8.8-19.65-19.65-19.65-19.65,8.8-19.65,19.65Z"/>
      <circle class="cls-4" cx="913.93" cy="919.81" r="20.96"/>
      <path class="cls-4" d="m897.87,1045.48c0,8.87,7.19,16.06,16.06,16.06s16.06-7.19,16.06-16.06-7.19-16.06-16.06-16.06-16.06,7.19-16.06,16.06Z"/>
      <path class="cls-4" d="m786.82,40.15c0,.79.65,1.44,1.44,1.44s1.45-.65,1.45-1.44-.65-1.45-1.45-1.45-1.44.65-1.44,1.45Z"/>
      <path class="cls-4" d="m784.87,165.82c0,1.87,1.52,3.39,3.39,3.39s3.39-1.52,3.39-3.39-1.52-3.39-3.39-3.39-3.39,1.52-3.39,3.39Z"/>
      <path class="cls-4" d="m779.62,291.48c0,4.77,3.87,8.64,8.64,8.64s8.64-3.87,8.64-8.64-3.87-8.64-8.64-8.64-8.64,3.87-8.64,8.64Z"/>
      <path class="cls-4" d="m776.92,417.15c0,6.26,5.08,11.34,11.34,11.34s11.34-5.08,11.34-11.34-5.08-11.34-11.34-11.34-11.34,5.08-11.34,11.34Z"/>
      <path class="cls-4" d="m783.91,542.82c0,2.4,1.95,4.35,4.35,4.35s4.35-1.95,4.35-4.35-1.95-4.35-4.35-4.35-4.35,1.95-4.35,4.35Z"/>
      <path class="cls-4" d="m776.22,668.48c0,6.65,5.39,12.04,12.04,12.04s12.05-5.39,12.05-12.04-5.39-12.05-12.05-12.05-12.04,5.39-12.04,12.05Z"/>
      <circle class="cls-4" cx="788.26" cy="794.15" r="10.79"/>
      <path class="cls-4" d="m782.13,919.81c0,3.39,2.75,6.13,6.13,6.13s6.14-2.75,6.14-6.13-2.75-6.14-6.14-6.14-6.13,2.75-6.13,6.14Z"/>
      <path class="cls-4" d="m782.46,1045.48c0,3.2,2.59,5.8,5.8,5.8s5.8-2.59,5.8-5.8-2.6-5.8-5.8-5.8-5.8,2.6-5.8,5.8Z"/>
      <path class="cls-4" d="m661.27,40.15c0,.73.59,1.32,1.32,1.32s1.33-.59,1.33-1.32-.59-1.33-1.33-1.33-1.32.59-1.32,1.33Z"/>
      <circle class="cls-4" cx="662.6" cy="165.82" r="3.76"/>
      <path class="cls-4" d="m655.79,291.48c0,3.75,3.05,6.8,6.8,6.8s6.8-3.05,6.8-6.8-3.04-6.8-6.8-6.8-6.8,3.05-6.8,6.8Z"/>
      <path class="cls-4" d="m648.48,417.15c0,7.79,6.32,14.11,14.11,14.11s14.12-6.32,14.12-14.11-6.32-14.12-14.12-14.12-14.11,6.32-14.11,14.12Z"/>
      <path class="cls-4" d="m655.12,542.82c0,4.13,3.35,7.47,7.47,7.47s7.48-3.35,7.48-7.47-3.35-7.48-7.48-7.48-7.47,3.35-7.47,7.48Z"/>
      <path class="cls-4" d="m660.35,668.48c0,1.24,1.01,2.25,2.25,2.25s2.25-1.01,2.25-2.25-1.01-2.25-2.25-2.25-2.25,1.01-2.25,2.25Z"/>
      <circle class="cls-4" cx="662.6" cy="794.15" r="4.91"/>
      <circle class="cls-4" cx="662.6" cy="919.81" r="17.94"/>
      <path class="cls-4" d="m658.15,1045.48c0,2.45,1.99,4.44,4.44,4.44s4.45-1.99,4.45-4.44-1.99-4.45-4.45-4.45-4.44,1.99-4.44,4.45Z"/>
      <path class="cls-4" d="m531.97,40.15c0,2.74,2.22,4.96,4.96,4.96s4.97-2.22,4.97-4.96-2.22-4.97-4.97-4.97-4.96,2.22-4.96,4.97Z"/>
      <path class="cls-4" d="m531.96,165.82c0,2.74,2.22,4.97,4.97,4.97s4.97-2.22,4.97-4.97-2.22-4.97-4.97-4.97-4.97,2.22-4.97,4.97Z"/>
      <path class="cls-4" d="m526.39,291.48c0,5.82,4.72,10.54,10.54,10.54s10.54-4.72,10.54-10.54-4.72-10.54-10.54-10.54-10.54,4.72-10.54,10.54Z"/>
      <path class="cls-4" d="m534.62,417.15c0,1.28,1.03,2.31,2.31,2.31s2.31-1.03,2.31-2.31-1.03-2.31-2.31-2.31-2.31,1.03-2.31,2.31Z"/>
      <path class="cls-4" d="m531.24,542.82c0,3.14,2.55,5.69,5.69,5.69s5.69-2.55,5.69-5.69-2.55-5.69-5.69-5.69-5.69,2.55-5.69,5.69Z"/>
      <circle class="cls-4" cx="536.93" cy="668.48" r="1.12"/>
      <path class="cls-4" d="m530.49,794.15c0,3.56,2.88,6.44,6.44,6.44s6.44-2.88,6.44-6.44-2.88-6.44-6.44-6.44-6.44,2.88-6.44,6.44Z"/>
      <path class="cls-4" d="m529.48,919.81c0,4.12,3.34,7.45,7.45,7.45s7.46-3.34,7.46-7.45-3.34-7.46-7.46-7.46-7.45,3.34-7.45,7.46Z"/>
      <path class="cls-4" d="m526.44,1045.48c0,5.79,4.69,10.49,10.49,10.49s10.49-4.69,10.49-10.49-4.7-10.49-10.49-10.49-10.49,4.7-10.49,10.49Z"/>
      <circle class="cls-4" cx="411.26" cy="40.15" r="4.15"/>
      <path class="cls-4" d="m402.53,165.82c0,4.83,3.91,8.74,8.74,8.74s8.74-3.91,8.74-8.74-3.91-8.74-8.74-8.74-8.74,3.91-8.74,8.74Z"/>
      <path class="cls-4" d="m397.75,291.48c0,7.46,6.05,13.52,13.52,13.52s13.52-6.05,13.52-13.52-6.05-13.52-13.52-13.52-13.52,6.05-13.52,13.52Z"/>
      <path class="cls-4" d="m394.93,417.15c0,9.02,7.31,16.33,16.33,16.33s16.33-7.31,16.33-16.33-7.31-16.33-16.33-16.33-16.33,7.31-16.33,16.33Z"/>
      <circle class="cls-4" cx="411.26" cy="542.82" r="13.47"/>
      <circle class="cls-4" cx="411.26" cy="668.48" r="5.3"/>
      <circle class="cls-4" cx="411.26" cy="794.15" r="5.49"/>
      <path class="cls-4" d="m410.39,919.81c0,.48.39.87.87.87s.87-.39.87-.87-.39-.87-.87-.87-.87.39-.87.87Z"/>
      <circle class="cls-4" cx="411.26" cy="1045.48" r="1.66"/>
      <circle class="cls-4" cx="285.6" cy="40.15" r="1.34"/>
      <path class="cls-4" d="m282.69,165.82c0,1.61,1.3,2.91,2.91,2.91s2.92-1.3,2.92-2.91-1.3-2.92-2.92-2.92-2.91,1.3-2.91,2.92Z"/>
      <path class="cls-4" d="m280.16,291.48c0,3,2.43,5.44,5.44,5.44s5.44-2.43,5.44-5.44-2.43-5.44-5.44-5.44-5.44,2.43-5.44,5.44Z"/>
      <path class="cls-4" d="m273.61,417.15c0,6.62,5.37,11.99,11.99,11.99s11.99-5.37,11.99-11.99-5.37-11.99-11.99-11.99-11.99,5.37-11.99,11.99Z"/>
      <path class="cls-4" d="m269.89,542.82c0,8.67,7.03,15.71,15.71,15.71s15.71-7.03,15.71-15.71-7.03-15.71-15.71-15.71-15.71,7.03-15.71,15.71Z"/>
      <path class="cls-4" d="m279.33,668.48c0,3.46,2.81,6.27,6.27,6.27s6.27-2.81,6.27-6.27-2.81-6.27-6.27-6.27-6.27,2.81-6.27,6.27Z"/>
      <circle class="cls-4" cx="285.6" cy="794.15" r="3.73"/>
      <path class="cls-4" d="m273.53,919.81c0,6.67,5.41,12.07,12.07,12.07s12.08-5.41,12.08-12.07-5.41-12.08-12.08-12.08-12.07,5.41-12.07,12.08Z"/>
      <circle class="cls-4" cx="285.6" cy="1045.48" r="1.76"/>
      <path class="cls-4" d="m151.31,40.15c0,4.76,3.86,8.62,8.62,8.62s8.63-3.86,8.63-8.62-3.86-8.63-8.63-8.63-8.62,3.86-8.62,8.63Z"/>
      <path class="cls-4" d="m149.4,165.82c0,5.82,4.72,10.54,10.54,10.54s10.54-4.72,10.54-10.54-4.72-10.54-10.54-10.54-10.54,4.72-10.54,10.54Z"/>
      <path class="cls-4" d="m153.89,291.48c0,3.34,2.7,6.04,6.04,6.04s6.04-2.7,6.04-6.04-2.7-6.04-6.04-6.04-6.04,2.7-6.04,6.04Z"/>
      <path class="cls-4" d="m148.65,417.15c0,6.23,5.05,11.29,11.29,11.29s11.29-5.05,11.29-11.29-5.05-11.29-11.29-11.29-11.29,5.05-11.29,11.29Z"/>
      <path class="cls-4" d="m148.81,542.82c0,6.14,4.98,11.12,11.12,11.12s11.12-4.98,11.12-11.12-4.98-11.12-11.12-11.12-11.12,4.98-11.12,11.12Z"/>
      <circle class="cls-4" cx="159.93" cy="668.48" r="20.07"/>
      <path class="cls-4" d="m154.3,794.15c0,3.11,2.52,5.63,5.63,5.63s5.64-2.52,5.64-5.63-2.52-5.64-5.64-5.64-5.63,2.52-5.63,5.64Z"/>
      <circle class="cls-4" cx="159.93" cy="919.81" r="11.84"/>
      <path class="cls-4" d="m155.89,1045.48c0,2.23,1.81,4.04,4.04,4.04s4.04-1.81,4.04-4.04-1.81-4.04-4.04-4.04-4.04,1.81-4.04,4.04Z"/>
      <path class="cls-4" d="m22.35,40.15c0,6.58,5.33,11.92,11.92,11.92s11.92-5.33,11.92-11.92-5.34-11.92-11.92-11.92-11.92,5.34-11.92,11.92Z"/>
      <path class="cls-4" d="m29.84,165.82c0,2.45,1.99,4.43,4.43,4.43s4.43-1.98,4.43-4.43-1.98-4.43-4.43-4.43-4.43,1.98-4.43,4.43Z"/>
      <path class="cls-4" d="m32.46,291.48c0,1,.81,1.81,1.81,1.81s1.81-.81,1.81-1.81-.81-1.81-1.81-1.81-1.81.81-1.81,1.81Z"/>
      <circle class="cls-4" cx="34.27" cy="417.15" r="11.01"/>
      <path class="cls-4" d="m29.7,542.82c0,2.52,2.05,4.57,4.57,4.57s4.57-2.05,4.57-4.57-2.05-4.57-4.57-4.57-4.57,2.05-4.57,4.57Z"/>
      <path class="cls-4" d="m23.25,668.48c0,6.09,4.93,11.02,11.02,11.02s11.02-4.93,11.02-11.02-4.94-11.02-11.02-11.02-11.02,4.94-11.02,11.02Z"/>
      <path class="cls-4" d="m24.11,794.15c0,5.61,4.55,10.16,10.16,10.16s10.16-4.55,10.16-10.16-4.55-10.16-10.16-10.16-10.16,4.55-10.16,10.16Z"/>
      <circle class="cls-4" cx="34.27" cy="919.81" r="7.88"/>
      <path class="cls-4" d="m27.83,1045.48c0,3.56,2.88,6.44,6.44,6.44s6.44-2.88,6.44-6.44-2.88-6.44-6.44-6.44-6.44,2.88-6.44,6.44Z"/>
    </g>
    <g>
      <rect class="cls-3" x="779.4" y="144.45" width="10.71" height="41.04" transform="translate(1456.3 -273.29) rotate(135)"/>
      <rect class="cls-3" x="779.4" y="144.45" width="10.71" height="41.04" transform="translate(1223.01 836.52) rotate(-135)"/>
    </g>
    <g>
      <rect class="cls-3" x="905.73" y="644.95" width="10.71" height="41.04" transform="translate(2025.87 491.79) rotate(135)"/>
      <rect class="cls-3" x="905.73" y="644.95" width="10.71" height="41.04" transform="translate(1084.76 1780.25) rotate(-135)"/>
    </g>
    <g>
      <rect class="cls-3" x="282.82" y="644.95" width="10.71" height="41.04" transform="translate(962.49 932.26) rotate(135)"/>
      <rect class="cls-3" x="282.82" y="644.95" width="10.71" height="41.04" transform="translate(21.38 1339.79) rotate(-135)"/>
    </g>
    <g>
      <rect class="cls-3" x="154.89" y="382.96" width="17.4" height="66.68" transform="translate(573.63 595) rotate(135)"/>
      <rect class="cls-3" x="154.89" y="382.96" width="17.4" height="66.68" transform="translate(-15.11 826.34) rotate(-135)"/>
    </g>
  </g>
</svg>