<?xml version="1.0" encoding="UTF-8"?>
<svg id="Layer_1" data-name="Layer 1" xmlns="http://www.w3.org/2000/svg" xmlns:xlink="http://www.w3.org/1999/xlink" viewBox="0 0 1080 1080">
  <defs>
    <style>
      .cls-1 {
        fill: none;
      }

      .cls-2 {
        clip-path: url(#clippath);
      }

      .cls-3 {
        fill: lime;
      }

      .cls-4 {
        fill: #805cdd;
      }

      .cls-5 {
        fill: #302353;
      }

      .cls-6 {
        fill: #302253;
      }

      .cls-7 {
        clip-path: url(#clippath-1);
      }

      .cls-8 {
        clip-path: url(#clippath-3);
      }

      .cls-9 {
        clip-path: url(#clippath-2);
      }
    </style>
    <clipPath id="clippath">
      <rect class="cls-1" x="1317.5" y="4.5" width="1088" height="1079" transform="translate(2405.5 -1317.5) rotate(90)"/>
    </clipPath>
    <clipPath id="clippath-1">
      <rect class="cls-1" x="1317.5" y="-2940.5" width="1088" height="1079" transform="translate(-539.5 -4262.5) rotate(90)"/>
    </clipPath>
    <clipPath id="clippath-2">
      <rect class="cls-5" x="-1285.84" y="5.92" width="1083.48" height="1083.48"/>
    </clipPath>
    <clipPath id="clippath-3">
      <rect class="cls-1" x="-1" y="-1" width="1082" height="1082"/>
    </clipPath>
  </defs>
  <rect class="cls-6" x="-8" y="-6" width="1092" height="1092"/>
  <g class="cls-2">
    <g>
      <path class="cls-4" d="m971.96,40.15c0,4.04,3.28,7.32,7.32,7.32s7.32-3.28,7.32-7.32-3.28-7.32-7.32-7.32-7.32,3.28-7.32,7.32Z"/>
      <path class="cls-4" d="m974.88,165.82c0,2.42,1.97,4.39,4.39,4.39s4.39-1.97,4.39-4.39-1.97-4.39-4.39-4.39-4.39,1.97-4.39,4.39Z"/>
      <circle class="cls-4" cx="979.27" cy="291.48" r="3.67"/>
      <path class="cls-4" d="m977.18,417.15c0,1.15.94,2.09,2.09,2.09s2.09-.94,2.09-2.09-.94-2.09-2.09-2.09-2.09.94-2.09,2.09Z"/>
      <path class="cls-4" d="m962.05,542.82c0,9.51,7.71,17.23,17.23,17.23s17.23-7.71,17.23-17.23-7.71-17.23-17.23-17.23-17.23,7.71-17.23,17.23Z"/>
      <path class="cls-4" d="m967.23,668.48c0,6.65,5.39,12.04,12.04,12.04s12.05-5.39,12.05-12.04-5.39-12.05-12.05-12.05-12.04,5.39-12.04,12.05Z"/>
      <path class="cls-4" d="m966.31,794.15c0,7.16,5.81,12.97,12.97,12.97s12.97-5.81,12.97-12.97-5.81-12.97-12.97-12.97-12.97,5.81-12.97,12.97Z"/>
      <circle class="cls-4" cx="979.27" cy="919.81" r="5.3"/>
      <path class="cls-4" d="m970.63,1045.48c0,4.77,3.87,8.64,8.64,8.64s8.64-3.87,8.64-8.64-3.87-8.64-8.64-8.64-8.64,3.87-8.64,8.64Z"/>
      <path class="cls-4" d="m851.98,40.15c0,.9.73,1.63,1.63,1.63s1.63-.73,1.63-1.63-.73-1.63-1.63-1.63-1.63.73-1.63,1.63Z"/>
      <path class="cls-4" d="m845.07,165.82c0,4.72,3.82,8.54,8.54,8.54s8.54-3.82,8.54-8.54-3.82-8.54-8.54-8.54-8.54,3.82-8.54,8.54Z"/>
      <circle class="cls-4" cx="853.61" cy="291.48" r="12.51"/>
      <circle class="cls-4" cx="853.61" cy="417.15" r="9.29"/>
      <path class="cls-4" d="m850.12,542.82c0,1.92,1.56,3.48,3.48,3.48s3.49-1.56,3.49-3.48-1.56-3.49-3.49-3.49-3.48,1.56-3.48,3.49Z"/>
      <circle class="cls-4" cx="853.61" cy="668.48" r="15.22"/>
      <path class="cls-4" d="m847.34,794.15c0,3.46,2.81,6.27,6.27,6.27s6.27-2.81,6.27-6.27-2.81-6.27-6.27-6.27-6.27,2.81-6.27,6.27Z"/>
      <path class="cls-4" d="m846.92,919.81c0,3.69,2.99,6.69,6.69,6.69s6.69-2.99,6.69-6.69-2.99-6.69-6.69-6.69-6.69,2.99-6.69,6.69Z"/>
      <path class="cls-4" d="m849.18,1045.48c0,2.44,1.98,4.43,4.43,4.43s4.43-1.98,4.43-4.43-1.98-4.43-4.43-4.43-4.43,1.98-4.43,4.43Z"/>
    </g>
  </g>
  <g class="cls-7">
    <g>
      <path class="cls-4" d="m975.59,111.12c0,2.04,1.65,3.69,3.69,3.69s3.69-1.65,3.69-3.69-1.65-3.69-3.69-3.69-3.69,1.65-3.69,3.69Z"/>
      <path class="cls-4" d="m960.46,236.79c0,10.39,8.42,18.82,18.82,18.82s18.82-8.42,18.82-18.82-8.43-18.82-18.82-18.82-18.82,8.43-18.82,18.82Z"/>
      <path class="cls-4" d="m965.54,362.45c0,7.58,6.15,13.74,13.74,13.74s13.74-6.15,13.74-13.74-6.15-13.74-13.74-13.74-13.74,6.15-13.74,13.74Z"/>
      <path class="cls-4" d="m845.11,111.12c0,4.69,3.8,8.49,8.49,8.49s8.5-3.8,8.5-8.49-3.8-8.5-8.5-8.5-8.49,3.8-8.49,8.5Z"/>
      <path class="cls-4" d="m850.65,236.79c0,1.63,1.33,2.96,2.96,2.96s2.96-1.33,2.96-2.96-1.33-2.96-2.96-2.96-2.96,1.33-2.96,2.96Z"/>
      <path class="cls-4" d="m841.75,362.45c0,6.55,5.31,11.85,11.85,11.85s11.86-5.31,11.86-11.85-5.31-11.86-11.86-11.86-11.85,5.31-11.85,11.86Z"/>
    </g>
  </g>
  <g>
    <rect class="cls-5" x="-1285.84" y="5.92" width="1083.48" height="1083.48"/>
    <g class="cls-9">
      <g>
        <path class="cls-4" d="m27.01,173.26c3.12,0,5.64-2.53,5.64-5.64s-2.52-5.64-5.64-5.64-5.64,2.52-5.64,5.64,2.53,5.64,5.64,5.64Z"/>
        <path class="cls-4" d="m17.05,236.46c3.24,0,5.86-2.64,5.86-5.87s-2.62-5.88-5.86-5.88-5.87,2.63-5.87,5.88,2.62,5.87,5.87,5.87Z"/>
        <path class="cls-4" d="m17.05,111.19c3.61,0,6.54-2.93,6.54-6.54s-2.93-6.53-6.54-6.53-6.54,2.92-6.54,6.53,2.92,6.54,6.54,6.54Z"/>
        <path class="cls-4" d="m77.97,173.58c3.3,0,5.96-2.67,5.96-5.97s-2.66-5.97-5.96-5.97-5.97,2.67-5.97,5.97,2.67,5.97,5.97,5.97Z"/>
        <path class="cls-4" d="m69.95,237.31c3.51,0,6.36-2.84,6.36-6.34s-2.84-6.36-6.36-6.36-6.34,2.85-6.34,6.36,2.84,6.34,6.34,6.34Z"/>
        <path class="cls-4" d="m46.46,296.44c3.38,0,6.12-2.74,6.12-6.12s-2.74-6.11-6.12-6.11-6.12,2.74-6.12,6.11,2.75,6.12,6.12,6.12Z"/>
        <path class="cls-4" d="m8.92,346.94c2.75,0,4.97-2.22,4.97-4.96s-2.23-4.97-4.97-4.97-4.96,2.24-4.96,4.97,2.23,4.96,4.96,4.96Z"/>
        <path class="cls-4" d="m8.92,1.12c4.36,0,7.88-3.53,7.88-7.87s-3.52-7.87-7.88-7.87S1.06-11.1,1.06-6.75,4.58,1.12,8.92,1.12Z"/>
        <path class="cls-4" d="m46.46,52.77c4.35,0,7.87-3.52,7.87-7.87s-3.52-7.88-7.87-7.88-7.87,3.53-7.87,7.88,3.52,7.87,7.87,7.87Z"/>
        <path class="cls-4" d="m69.95,111.49c4,0,7.24-3.23,7.24-7.22s-3.24-7.22-7.24-7.22-7.21,3.24-7.21,7.22,3.23,7.22,7.21,7.22Z"/>
        <path class="cls-4" d="m128.91,175c4.08,0,7.39-3.31,7.39-7.39s-3.31-7.39-7.39-7.39-7.39,3.3-7.39,7.39,3.32,7.39,7.39,7.39Z"/>
        <path class="cls-4" d="m122.23,238.88c4.27,0,7.72-3.45,7.72-7.72s-3.45-7.72-7.72-7.72-7.73,3.44-7.73,7.72,3.46,7.72,7.73,7.72Z"/>
        <path class="cls-4" d="m102.48,298.51c3.63,0,6.58-2.94,6.58-6.57s-2.95-6.58-6.58-6.58-6.58,2.93-6.58,6.58,2.94,6.57,6.58,6.57Z"/>
        <path class="cls-4" d="m70.53,353.94c3.68,0,6.66-2.98,6.66-6.68s-2.98-6.66-6.66-6.66-6.68,2.98-6.68,6.66,2.99,6.68,6.68,6.68Z"/>
        <path class="cls-4" d="m27.77,402.4c4.22,0,7.63-3.42,7.63-7.64s-3.42-7.62-7.63-7.62-7.63,3.41-7.63,7.62,3.41,7.64,7.63,7.64Z"/>
        <path class="cls-4" d="m102.48,53.59c5.69,0,10.3-4.61,10.3-10.3s-4.61-10.29-10.3-10.29-10.3,4.61-10.3,10.29,4.61,10.3,10.3,10.3Z"/>
        <path class="cls-4" d="m122.23,112.63c4.71,0,8.56-3.83,8.56-8.56s-3.85-8.57-8.56-8.57-8.56,3.84-8.56,8.57,3.84,8.56,8.56,8.56Z"/>
        <path class="cls-4" d="m179.85,176.41c4.86,0,8.8-3.94,8.8-8.8s-3.94-8.8-8.8-8.8-8.8,3.94-8.8,8.8,3.93,8.8,8.8,8.8Z"/>
        <path class="cls-4" d="m174.11,239.96c4.79,0,8.68-3.89,8.68-8.68s-3.88-8.67-8.68-8.67-8.67,3.89-8.67,8.67,3.88,8.68,8.67,8.68Z"/>
        <path class="cls-4" d="m157.11,300.72c4.32,0,7.81-3.49,7.81-7.81s-3.49-7.81-7.81-7.81-7.8,3.5-7.8,7.81,3.49,7.81,7.8,7.81Z"/>
        <path class="cls-4" d="m129.38,356.79c3.45,0,6.26-2.81,6.26-6.27s-2.81-6.27-6.26-6.27-6.27,2.81-6.27,6.27,2.81,6.27,6.27,6.27Z"/>
        <path class="cls-4" d="m91.78,409.87c4.22,0,7.64-3.42,7.64-7.63s-3.42-7.63-7.64-7.63-7.62,3.41-7.62,7.63,3.42,7.63,7.62,7.63Z"/>
        <path class="cls-4" d="m45.58,454.57c4.5,0,8.16-3.65,8.16-8.16s-3.66-8.14-8.16-8.14-8.15,3.64-8.15,8.14,3.65,8.16,8.15,8.16Z"/>
        <path class="cls-4" d="m-7.77,490.78c5.04,0,9.14-4.1,9.14-9.15s-4.1-9.14-9.14-9.14-9.15,4.08-9.15,9.14,4.1,9.15,9.15,9.15Z"/>
        <ellipse class="cls-4" cx="157.11" cy="42.31" rx="10.13" ry="10.13"/>
        <circle class="cls-4" cx="174.11" cy="103.94" r="10.85" transform="translate(11.12 224.58) rotate(-67.34)"/>
        <path class="cls-4" d="m230.79,179.03c6.31,0,11.42-5.11,11.42-11.42s-5.12-11.41-11.42-11.41-11.41,5.11-11.41,11.41,5.11,11.42,11.41,11.42Z"/>
        <path class="cls-4" d="m225.77,242.98c6.42,0,11.62-5.2,11.62-11.61s-5.2-11.62-11.62-11.62-11.62,5.21-11.62,11.62,5.2,11.61,11.62,11.61Z"/>
        <path class="cls-4" d="m210.85,302.32c4.85,0,8.77-3.92,8.77-8.77s-3.92-8.76-8.77-8.76-8.78,3.92-8.78,8.76,3.93,8.77,8.78,8.77Z"/>
        <path class="cls-4" d="m186.37,360.81c4.51,0,8.17-3.67,8.17-8.17s-3.67-8.16-8.17-8.16-8.17,3.65-8.17,8.16,3.66,8.17,8.17,8.17Z"/>
        <path class="cls-4" d="m152.96,415.46c4.58,0,8.31-3.72,8.31-8.3s-3.73-8.31-8.31-8.31-8.3,3.72-8.3,8.31,3.72,8.3,8.3,8.3Z"/>
        <path class="cls-4" d="m111.43,462.48c3.68,0,6.69-2.99,6.69-6.69s-3.01-6.69-6.69-6.69-6.69,2.99-6.69,6.69,3,6.69,6.69,6.69Z"/>
        <path class="cls-4" d="m62.79,506.4c5.03,0,9.08-4.05,9.08-9.07s-4.06-9.08-9.08-9.08-9.08,4.07-9.08,9.08,4.07,9.07,9.08,9.07Z"/>
        <path class="cls-4" d="m8.27,540.02c5.12,0,9.27-4.16,9.27-9.29s-4.15-9.27-9.27-9.27-9.27,4.15-9.27,9.27,4.15,9.29,9.27,9.29Z"/>
        <path class="cls-4" d="m210.85,54.67c7.18,0,13-5.81,13-13s-5.82-13-13-13-13.01,5.82-13.01,13,5.82,13,13.01,13Z"/>
        <path class="cls-4" d="m225.77,117.96c7.79,0,14.1-6.32,14.1-14.1s-6.31-14.1-14.1-14.1-14.1,6.31-14.1,14.1,6.31,14.1,14.1,14.1Z"/>
        <path class="cls-4" d="m281.73,180.49c7.11,0,12.87-5.77,12.87-12.88s-5.77-12.87-12.87-12.87-12.88,5.77-12.88,12.87,5.78,12.88,12.88,12.88Z"/>
        <path class="cls-4" d="m277.26,244.59c7.28,0,13.18-5.9,13.18-13.17s-5.9-13.16-13.18-13.16-13.15,5.9-13.15,13.16,5.89,13.17,13.15,13.17Z"/>
        <path class="cls-4" d="m263.98,306.17c6.72,0,12.18-5.45,12.18-12.19s-5.46-12.17-12.18-12.17-12.18,5.45-12.18,12.17,5.45,12.19,12.18,12.19Z"/>
        <path class="cls-4" d="m242.1,364.16c5.55,0,10.06-4.51,10.06-10.07s-4.51-10.06-10.06-10.06-10.07,4.5-10.07,10.06,4.51,10.07,10.07,10.07Z"/>
        <path class="cls-4" d="m212.08,418.56c4.4,0,7.98-3.57,7.98-7.99s-3.58-7.99-7.98-7.99-8,3.59-8,7.99,3.58,7.99,8,7.99Z"/>
        <path class="cls-4" d="m174.48,470.9c4.73,0,8.57-3.85,8.57-8.58s-3.84-8.58-8.57-8.58-8.59,3.84-8.59,8.58,3.84,8.58,8.59,8.58Z"/>
        <path class="cls-4" d="m130.04,517.01c4.79,0,8.67-3.88,8.67-8.67s-3.88-8.68-8.67-8.68-8.67,3.89-8.67,8.68,3.88,8.67,8.67,8.67Z"/>
        <path class="cls-4" d="m79.63,555.95c4.55,0,8.24-3.7,8.24-8.24s-3.69-8.23-8.24-8.23-8.23,3.7-8.23,8.23,3.69,8.24,8.23,8.24Z"/>
        <path class="cls-4" d="m24.24,590.73c6.09,0,11.03-4.94,11.03-11.03s-4.94-11.04-11.03-11.04-11.04,4.94-11.04,11.04,4.94,11.03,11.04,11.03Z"/>
        <path class="cls-4" d="m263.98,52.56c6.25,0,11.33-5.06,11.33-11.32s-5.07-11.32-11.33-11.32-11.33,5.07-11.33,11.32,5.07,11.32,11.33,11.32Z"/>
        <path class="cls-4" d="m277.26,117.49c7.57,0,13.68-6.12,13.68-13.68s-6.11-13.68-13.68-13.68-13.67,6.12-13.67,13.68,6.12,13.68,13.67,13.68Z"/>
        <path class="cls-4" d="m332.67,182.44c8.2,0,14.84-6.63,14.84-14.83s-6.64-14.83-14.84-14.83-14.82,6.64-14.82,14.83,6.64,14.83,14.82,14.83Z"/>
        <path class="cls-4" d="m328.66,245.14c7.55,0,13.68-6.13,13.68-13.67s-6.13-13.68-13.68-13.68-13.67,6.13-13.67,13.68,6.12,13.67,13.67,13.67Z"/>
        <path class="cls-4" d="m316.68,307.34c7.2,0,13.04-5.83,13.04-13.05s-5.83-13.04-13.04-13.04-13.05,5.84-13.05,13.04,5.84,13.05,13.05,13.05Z"/>
        <path class="cls-4" d="m296.91,368.69c7.47,0,13.53-6.07,13.53-13.54s-6.06-13.53-13.53-13.53-13.53,6.05-13.53,13.53,6.05,13.54,13.53,13.54Z"/>
        <path class="cls-4" d="m269.67,420.3c4.02,0,7.27-3.25,7.27-7.26s-3.24-7.27-7.27-7.27-7.27,3.25-7.27,7.27,3.25,7.26,7.27,7.26Z"/>
        <path class="cls-4" d="m235.39,474.92c4.35,0,7.87-3.52,7.87-7.88s-3.52-7.86-7.87-7.86-7.89,3.52-7.89,7.86,3.53,7.88,7.89,7.88Z"/>
        <path class="cls-4" d="m194.6,521.74c2.98,0,5.4-2.42,5.4-5.4s-2.42-5.39-5.4-5.39-5.38,2.42-5.38,5.39,2.42,5.4,5.38,5.4Z"/>
        <path class="cls-4" d="m147.97,567.88c4.27,0,7.74-3.47,7.74-7.74s-3.47-7.74-7.74-7.74-7.75,3.47-7.75,7.74,3.47,7.74,7.75,7.74Z"/>
        <path class="cls-4" d="m96.21,605.66c4.38,0,7.93-3.55,7.93-7.92s-3.55-7.91-7.93-7.91-7.91,3.55-7.91,7.91,3.54,7.92,7.91,7.92Z"/>
        <path class="cls-4" d="m40.15,639.02c5.78,0,10.47-4.68,10.47-10.46s-4.68-10.46-10.47-10.46-10.45,4.69-10.45,10.46,4.67,10.46,10.45,10.46Z"/>
        <path class="cls-4" d="m316.68,54.4c7.43,0,13.47-6.03,13.47-13.48s-6.04-13.47-13.47-13.47-13.47,6.03-13.47,13.47,6.03,13.48,13.47,13.48Z"/>
        <path class="cls-4" d="m328.66,119.47c8.67,0,15.7-7.03,15.7-15.7s-7.03-15.71-15.7-15.71-15.71,7.03-15.71,15.71,7.03,15.7,15.71,15.7Z"/>
        <path class="cls-4" d="m383.63,182.78c8.38,0,15.16-6.79,15.16-15.17s-6.79-15.17-15.16-15.17-15.17,6.79-15.17,15.17,6.8,15.17,15.17,15.17Z"/>
        <path class="cls-4" d="m379.97,246.63c8.36,0,15.13-6.78,15.13-15.13s-6.77-15.15-15.13-15.15-15.14,6.78-15.14,15.15,6.77,15.13,15.14,15.13Z"/>
        <path class="cls-4" d="m369.06,306.39c6.53,0,11.84-5.31,11.84-11.85s-5.31-11.85-11.84-11.85-11.85,5.31-11.85,11.85,5.3,11.85,11.85,11.85Z"/>
        <path class="cls-4" d="m351.04,366.47c5.82,0,10.54-4.72,10.54-10.54s-4.72-10.56-10.54-10.56-10.55,4.72-10.55,10.56,4.72,10.54,10.55,10.54Z"/>
        <path class="cls-4" d="m326.13,422.51c4.22,0,7.64-3.44,7.64-7.65s-3.42-7.64-7.64-7.64-7.64,3.43-7.64,7.64,3.43,7.65,7.64,7.65Z"/>
        <path class="cls-4" d="m294.67,477.66c3.91,0,7.07-3.18,7.07-7.08s-3.17-7.06-7.07-7.06-7.07,3.15-7.07,7.06,3.17,7.08,7.07,7.08Z"/>
        <path class="cls-4" d="m257.07,527.23c2.7,0,4.89-2.19,4.89-4.9s-2.19-4.9-4.89-4.9-4.92,2.19-4.92,4.9,2.2,4.9,4.92,4.9Z"/>
        <path class="cls-4" d="m213.79,574.3c2.66,0,4.82-2.16,4.82-4.82s-2.16-4.82-4.82-4.82-4.82,2.16-4.82,4.82,2.16,4.82,4.82,4.82Z"/>
        <path class="cls-4" d="m165.43,617.21c3.22,0,5.83-2.62,5.83-5.83s-2.61-5.83-5.83-5.83-5.82,2.62-5.82,5.83,2.61,5.83,5.82,5.83Z"/>
        <path class="cls-4" d="m112.63,657.31c5.42,0,9.81-4.39,9.81-9.82s-4.39-9.81-9.81-9.81-9.82,4.4-9.82,9.81,4.4,9.82,9.82,9.82Z"/>
        <path class="cls-4" d="m56.04,687.64c5.69,0,10.3-4.61,10.3-10.3s-4.61-10.28-10.3-10.28-10.3,4.59-10.3,10.28,4.61,10.3,10.3,10.3Z"/>
        <path class="cls-4" d="m-3.58,710.56c5.52,0,9.99-4.47,9.99-9.99s-4.47-10.01-9.99-10.01-10,4.48-10,10.01,4.48,9.99,10,9.99Z"/>
        <path class="cls-4" d="m369.06,55.05c7.93,0,14.35-6.44,14.35-14.36s-6.42-14.37-14.35-14.37-14.37,6.44-14.37,14.37,6.43,14.36,14.37,14.36Z"/>
        <path class="cls-4" d="m379.97,117.82c7.78,0,14.08-6.3,14.08-14.09s-6.31-14.08-14.08-14.08-14.09,6.3-14.09,14.08,6.31,14.09,14.09,14.09Z"/>
        <path class="cls-4" d="m434.56,182.97c8.49,0,15.36-6.88,15.36-15.36s-6.87-15.35-15.36-15.35-15.35,6.88-15.35,15.35,6.87,15.36,15.35,15.36Z"/>
        <path class="cls-4" d="m431.22,246.51c8.28,0,14.99-6.7,14.99-14.99s-6.71-14.99-14.99-14.99-15,6.7-15,14.99,6.72,14.99,15,14.99Z"/>
        <path class="cls-4" d="m421.21,307.17c6.89,0,12.46-5.57,12.46-12.47s-5.57-12.45-12.46-12.45-12.46,5.57-12.46,12.45,5.58,12.47,12.46,12.47Z"/>
        <path class="cls-4" d="m404.65,368.23c6.47,0,11.71-5.24,11.71-11.72s-5.24-11.69-11.71-11.69-11.71,5.24-11.71,11.69,5.24,11.72,11.71,11.72Z"/>
        <path class="cls-4" d="m381.72,426.36c5.57,0,10.08-4.52,10.08-10.1s-4.51-10.1-10.08-10.1-10.09,4.52-10.09,10.1,4.52,10.1,10.09,10.1Z"/>
        <path class="cls-4" d="m352.66,480.51c4,0,7.24-3.23,7.24-7.24s-3.24-7.24-7.24-7.24-7.24,3.24-7.24,7.24,3.25,7.24,7.24,7.24Z"/>
        <path class="cls-4" d="m317.81,532.23c2.91,0,5.29-2.37,5.29-5.3s-2.37-5.28-5.29-5.28-5.29,2.36-5.29,5.28,2.37,5.3,5.29,5.3Z"/>
        <path class="cls-4" d="m277.55,581.18c2.49,0,4.51-2.02,4.51-4.51s-2.02-4.51-4.51-4.51-4.52,2.02-4.52,4.51,2.02,4.51,4.52,4.51Z"/>
        <path class="cls-4" d="m232.3,625.92c2.21,0,4.01-1.79,4.01-4.01s-1.8-4.01-4.01-4.01-4.01,1.8-4.01,4.01,1.8,4.01,4.01,4.01Z"/>
        <path class="cls-4" d="m182.57,667.93c3.18,0,5.75-2.57,5.75-5.75s-2.57-5.76-5.75-5.76-5.75,2.58-5.75,5.76,2.57,5.75,5.75,5.75Z"/>
        <path class="cls-4" d="m128.91,703.73c3.7,0,6.69-3,6.69-6.7s-3-6.69-6.69-6.69-6.69,2.99-6.69,6.69,2.99,6.7,6.69,6.7Z"/>
        <path class="cls-4" d="m71.89,734.93c4.9,0,8.85-3.97,8.85-8.86s-3.96-8.84-8.85-8.84-8.84,3.96-8.84,8.84,3.96,8.86,8.84,8.86Z"/>
        <path class="cls-4" d="m12.15,760.61c6.41,0,11.6-5.19,11.6-11.6s-5.18-11.6-11.6-11.6-11.6,5.18-11.6,11.6,5.19,11.6,11.6,11.6Z"/>
        <path class="cls-4" d="m421.21,54.41c7.68,0,13.9-6.22,13.9-13.89s-6.22-13.9-13.9-13.9-13.91,6.22-13.91,13.9,6.23,13.89,13.91,13.89Z"/>
        <path class="cls-4" d="m431.22,120.12c9.06,0,16.41-7.35,16.41-16.41s-7.35-16.42-16.41-16.42-16.41,7.36-16.41,16.42,7.34,16.41,16.41,16.41Z"/>
        <path class="cls-4" d="m485.51,182.18c8.05,0,14.57-6.53,14.57-14.57s-6.52-14.57-14.57-14.57-14.56,6.53-14.56,14.57,6.52,14.57,14.56,14.57Z"/>
        <path class="cls-4" d="m482.42,244.66c7.24,0,13.11-5.88,13.11-13.13s-5.87-13.11-13.11-13.11-13.11,5.87-13.11,13.11,5.86,13.13,13.11,13.13Z"/>
        <path class="cls-4" d="m473.18,305.5c5.87,0,10.64-4.77,10.64-10.65s-4.77-10.65-10.64-10.65-10.66,4.77-10.66,10.65,4.77,10.65,10.66,10.65Z"/>
        <path class="cls-4" d="m457.86,366.15c5.06,0,9.16-4.1,9.16-9.17s-4.1-9.16-9.16-9.16-9.17,4.1-9.17,9.16,4.1,9.17,9.17,9.17Z"/>
        <path class="cls-4" d="m436.62,424.86c4.15,0,7.53-3.36,7.53-7.52s-3.37-7.51-7.53-7.51-7.52,3.36-7.52,7.51,3.36,7.52,7.52,7.52Z"/>
        <path class="cls-4" d="m409.65,480.71c2.95,0,5.34-2.38,5.34-5.33s-2.39-5.33-5.34-5.33-5.34,2.38-5.34,5.33,2.39,5.33,5.34,5.33Z"/>
        <path class="cls-4" d="m377.21,534.55c2.21,0,4-1.8,4-4.01s-1.78-4-4-4-4.01,1.79-4.01,4,1.8,4.01,4.01,4.01Z"/>
        <path class="cls-4" d="m339.59,584.85c1.41,0,2.55-1.14,2.55-2.53s-1.14-2.54-2.55-2.54-2.53,1.14-2.53,2.54,1.13,2.53,2.53,2.53Z"/>
        <path class="cls-4" d="m297.16,633.87c2.03,0,3.66-1.65,3.66-3.66s-1.63-3.67-3.66-3.67-3.66,1.65-3.66,3.67,1.64,3.66,3.66,3.66Z"/>
        <path class="cls-4" d="m250.3,675.88c1.15,0,2.08-.93,2.08-2.08s-.93-2.08-2.08-2.08-2.08.93-2.08,2.08.93,2.08,2.08,2.08Z"/>
        <path class="cls-4" d="m199.46,717.15c2.49,0,4.51-2.01,4.51-4.51s-2.02-4.49-4.51-4.49-4.51,2.01-4.51,4.49,2.01,4.51,4.51,4.51Z"/>
        <path class="cls-4" d="m145.1,753.62c3.97,0,7.2-3.23,7.2-7.21s-3.22-7.21-7.2-7.21-7.21,3.23-7.21,7.21,3.22,7.21,7.21,7.21Z"/>
        <path class="cls-4" d="m87.72,784.04c5.13,0,9.27-4.14,9.27-9.27s-4.14-9.26-9.27-9.26-9.24,4.15-9.24,9.26,4.14,9.27,9.24,9.27Z"/>
        <path class="cls-4" d="m27.89,808.24c5.96,0,10.79-4.82,10.79-10.78s-4.83-10.79-10.79-10.79-10.78,4.83-10.78,10.79,4.83,10.78,10.78,10.78Z"/>
        <path class="cls-4" d="m473.18,57.09c9.23,0,16.71-7.48,16.71-16.72s-7.48-16.72-16.71-16.72-16.72,7.48-16.72,16.72,7.49,16.72,16.72,16.72Z"/>
        <path class="cls-4" d="m482.42,121.19c9.65,0,17.48-7.83,17.48-17.49s-7.83-17.49-17.48-17.49-17.5,7.83-17.5,17.49,7.83,17.49,17.5,17.49Z"/>
        <path class="cls-4" d="m536.45,184.47c9.32,0,16.87-7.54,16.87-16.86s-7.55-16.87-16.87-16.87-16.86,7.55-16.86,16.87,7.54,16.86,16.86,16.86Z"/>
        <path class="cls-4" d="m533.58,246.36c8.18,0,14.82-6.64,14.82-14.81s-6.64-14.82-14.82-14.82-14.81,6.63-14.81,14.82,6.63,14.81,14.81,14.81Z"/>
        <path class="cls-4" d="m525,307.11c6.71,0,12.15-5.44,12.15-12.16s-5.44-12.16-12.15-12.16-12.17,5.44-12.17,12.16,5.45,12.16,12.17,12.16Z"/>
        <path class="cls-4" d="m510.75,367.47c5.59,0,10.12-4.53,10.12-10.12s-4.53-10.11-10.12-10.11-10.12,4.53-10.12,10.11,4.53,10.12,10.12,10.12Z"/>
        <path class="cls-4" d="m490.98,425.05c3.78,0,6.84-3.06,6.84-6.83s-3.06-6.84-6.84-6.84-6.83,3.05-6.83,6.84,3.06,6.83,6.83,6.83Z"/>
        <path class="cls-4" d="m465.82,483.32c3.46,0,6.25-2.81,6.25-6.25s-2.79-6.24-6.25-6.24-6.25,2.8-6.25,6.24,2.81,6.25,6.25,6.25Z"/>
        <path class="cls-4" d="m435.5,537.96c2.5,0,4.54-2.04,4.54-4.54s-2.04-4.55-4.54-4.55-4.55,2.04-4.55,4.55,2.04,4.54,4.55,4.54Z"/>
        <path class="cls-4" d="m400.25,588.93c1.16,0,2.1-.94,2.1-2.11s-.94-2.1-2.1-2.1-2.11.94-2.11,2.1.94,2.11,2.11,2.11Z"/>
        <path class="cls-4" d="m360.35,637.77c.5,0,.91-.4.91-.91s-.41-.9-.91-.9-.91.4-.91.9.41.91.91.91Z"/>
        <path class="cls-4" d="m316.13,685.19c1.14,0,2.06-.92,2.06-2.07s-.92-2.06-2.06-2.06-2.07.92-2.07,2.06.93,2.07,2.07,2.07Z"/>
        <path class="cls-4" d="m267.93,727.46c1.23,0,2.23-1,2.23-2.24s-.99-2.25-2.23-2.25-2.25,1-2.25,2.25,1,2.24,2.25,2.24Z"/>
        <path class="cls-4" d="m216.15,765.35c1.39,0,2.51-1.12,2.51-2.5s-1.12-2.53-2.51-2.53-2.51,1.13-2.51,2.53,1.12,2.5,2.51,2.5Z"/>
        <path class="cls-4" d="m161.21,803.03c4.07,0,7.36-3.3,7.36-7.38s-3.29-7.36-7.36-7.36-7.37,3.29-7.37,7.36,3.3,7.38,7.37,7.38Z"/>
        <path class="cls-4" d="m103.55,831.85c4.66,0,8.44-3.77,8.44-8.43s-3.78-8.43-8.44-8.43-8.42,3.78-8.42,8.43,3.77,8.43,8.42,8.43Z"/>
        <path class="cls-4" d="m43.64,855.36c5.22,0,9.44-4.24,9.44-9.45s-4.23-9.44-9.44-9.44-9.44,4.23-9.44,9.44,4.22,9.45,9.44,9.45Z"/>
        <path class="cls-4" d="m525,56.25c8.82,0,15.98-7.15,15.98-15.98s-7.15-15.99-15.98-15.99-15.99,7.15-15.99,15.99,7.16,15.98,15.99,15.98Z"/>
        <path class="cls-4" d="m533.58,117.98c7.9,0,14.3-6.4,14.3-14.3s-6.4-14.3-14.3-14.3-14.29,6.4-14.29,14.3,6.4,14.3,14.29,14.3Z"/>
        <path class="cls-4" d="m587.39,181.24c7.53,0,13.63-6.1,13.63-13.63s-6.1-13.62-13.63-13.62-13.62,6.1-13.62,13.62,6.1,13.63,13.62,13.63Z"/>
        <path class="cls-4" d="m584.72,244.76c7.28,0,13.19-5.91,13.19-13.19s-5.9-13.21-13.19-13.21-13.19,5.91-13.19,13.21,5.9,13.19,13.19,13.19Z"/>
        <path class="cls-4" d="m576.7,308.25c7.29,0,13.2-5.91,13.2-13.2s-5.9-13.2-13.2-13.2-13.2,5.91-13.2,13.2,5.9,13.2,13.2,13.2Z"/>
        <path class="cls-4" d="m563.39,368.08c5.77,0,10.44-4.66,10.44-10.44s-4.67-10.43-10.44-10.43-10.43,4.68-10.43,10.43,4.67,10.44,10.43,10.44Z"/>
        <path class="cls-4" d="m544.89,426.87c4.39,0,7.96-3.55,7.96-7.95s-3.56-7.95-7.96-7.95-7.95,3.56-7.95,7.95,3.56,7.95,7.95,7.95Z"/>
        <path class="cls-4" d="m521.33,483.24c2.65,0,4.81-2.16,4.81-4.83s-2.15-4.82-4.81-4.82-4.83,2.17-4.83,4.82,2.16,4.83,4.83,4.83Z"/>
        <path class="cls-4" d="m492.88,540.36c2.54,0,4.6-2.07,4.6-4.62s-2.06-4.59-4.6-4.59-4.61,2.06-4.61,4.59,2.06,4.62,4.61,4.62Z"/>
        <path class="cls-4" d="m459.72,594.56c2.26,0,4.07-1.82,4.07-4.07s-1.82-4.09-4.07-4.09-4.08,1.83-4.08,4.09,1.82,4.07,4.08,4.07Z"/>
        <path class="cls-4" d="m422.1,643.33c.59,0,1.08-.47,1.08-1.07s-.48-1.06-1.08-1.06-1.06.48-1.06,1.06.48,1.07,1.06,1.07Z"/>
        <path class="cls-4" d="m380.29,691.49c.43,0,.78-.35.78-.78s-.34-.78-.78-.78-.78.35-.78.78.35.78.78.78Z"/>
        <path class="cls-4" d="m334.56,735.71c.12,0,.21-.1.21-.22s-.08-.22-.21-.22-.22.1-.22.22.1.22.22.22Z"/>
        <path class="cls-4" d="m285.26,777.04c.41,0,.75-.34.75-.77s-.33-.75-.75-.75-.76.34-.76.75.34.77.76.77Z"/>
        <path class="cls-4" d="m232.7,815.4c1.43,0,2.59-1.17,2.59-2.61s-1.16-2.58-2.59-2.58-2.6,1.16-2.6,2.58,1.17,2.61,2.6,2.61Z"/>
        <path class="cls-4" d="m177.27,848.73c2.17,0,3.93-1.76,3.93-3.93s-1.76-3.92-3.93-3.92-3.92,1.77-3.92,3.92,1.75,3.93,3.92,3.93Z"/>
        <path class="cls-4" d="m119.37,878.53c3.56,0,6.47-2.9,6.47-6.47s-2.91-6.47-6.47-6.47-6.48,2.9-6.48,6.47,2.91,6.47,6.48,6.47Z"/>
        <path class="cls-4" d="m59.38,904.31c5.49,0,9.95-4.45,9.95-9.94s-4.46-9.95-9.95-9.95-9.95,4.45-9.95,9.95,4.45,9.94,9.95,9.94Z"/>
        <path class="cls-4" d="m-2.26,924.72c7.27,0,13.15-5.89,13.15-13.15s-5.88-13.14-13.15-13.14-13.14,5.9-13.14,13.14,5.88,13.15,13.14,13.15Z"/>
        <path class="cls-4" d="m576.7,54.84c8.09,0,14.66-6.56,14.66-14.66s-6.57-14.66-14.66-14.66-14.66,6.56-14.66,14.66,6.56,14.66,14.66,14.66Z"/>
        <circle class="cls-4" cx="584.72" cy="103.67" r="15.07"/>
        <path class="cls-4" d="m638.33,181.53c7.7,0,13.92-6.23,13.92-13.92s-6.22-13.91-13.92-13.91-13.92,6.22-13.92,13.91,6.24,13.92,13.92,13.92Z"/>
        <path class="cls-4" d="m635.82,242.85c6.23,0,11.28-5.05,11.28-11.28s-5.05-11.28-11.28-11.28-11.28,5.04-11.28,11.28,5.04,11.28,11.28,11.28Z"/>
        <path class="cls-4" d="m628.31,306.83c6.46,0,11.7-5.24,11.7-11.72s-5.24-11.69-11.7-11.69-11.71,5.24-11.71,11.69,5.24,11.72,11.71,11.72Z"/>
        <path class="cls-4" d="m615.81,367.76c5.45,0,9.88-4.42,9.88-9.87s-4.42-9.88-9.88-9.88-9.87,4.42-9.87,9.88,4.42,9.87,9.87,9.87Z"/>
        <path class="cls-4" d="m598.45,425.8c3.49,0,6.32-2.83,6.32-6.32s-2.83-6.31-6.32-6.31-6.32,2.83-6.32,6.31,2.83,6.32,6.32,6.32Z"/>
        <path class="cls-4" d="m576.29,484.77c2.9,0,5.24-2.33,5.24-5.24s-2.34-5.24-5.24-5.24-5.24,2.34-5.24,5.24,2.34,5.24,5.24,5.24Z"/>
        <path class="cls-4" d="m549.5,542.38c2.6,0,4.7-2.11,4.7-4.71s-2.1-4.72-4.7-4.72-4.71,2.11-4.71,4.72,2.11,4.71,4.71,4.71Z"/>
        <path class="cls-4" d="m518.22,596.46c1.64,0,2.95-1.32,2.95-2.96s-1.31-2.95-2.95-2.95-2.95,1.31-2.95,2.95,1.32,2.96,2.95,2.96Z"/>
        <path class="cls-4" d="m482.67,647.9c.66,0,1.19-.53,1.19-1.18s-.53-1.2-1.19-1.2-1.19.54-1.19,1.2.54,1.18,1.19,1.18Z"/>
        <path class="cls-4" d="m443.04,697.65c.38,0,.68-.29.68-.69,0-.35-.3-.67-.68-.67s-.67.31-.67.67c0,.39.3.69.67.69Z"/>
        <path class="cls-4" d="m302.34,827.71c.38,0,.68-.29.68-.67s-.3-.68-.68-.68-.67.3-.67.68.3.67.67.67Z"/>
        <path class="cls-4" d="m249.13,864.59c1.1,0,1.99-.88,1.99-1.99s-.89-1.99-1.99-1.99-1.98.88-1.98,1.99.88,1.99,1.98,1.99Z"/>
        <path class="cls-4" d="m193.29,898.88c2.77,0,5.02-2.24,5.02-5.01s-2.25-5-5.02-5-5.02,2.25-5.02,5,2.26,5.01,5.02,5.01Z"/>
        <path class="cls-4" d="m135.17,924.57c2.16,0,3.91-1.75,3.91-3.92s-1.75-3.9-3.91-3.9-3.92,1.74-3.92,3.9,1.75,3.92,3.92,3.92Z"/>
        <path class="cls-4" d="m75.12,949.27c3.56,0,6.45-2.88,6.45-6.45s-2.89-6.46-6.45-6.46-6.46,2.89-6.46,6.46,2.89,6.45,6.46,6.45Z"/>
        <path class="cls-4" d="m13.53,968.41c4.53,0,8.22-3.69,8.22-8.23s-3.69-8.21-8.22-8.21-8.22,3.68-8.22,8.21,3.68,8.23,8.22,8.23Z"/>
        <path class="cls-4" d="m628.31,55.03c8.24,0,14.91-6.69,14.91-14.93s-6.68-14.92-14.91-14.92-14.93,6.68-14.93,14.92,6.68,14.93,14.93,14.93Z"/>
        <path class="cls-4" d="m635.82,118.69c8.3,0,15.04-6.73,15.04-15.03s-6.74-15.02-15.04-15.02-15.03,6.73-15.03,15.02,6.74,15.03,15.03,15.03Z"/>
        <path class="cls-4" d="m689.28,178.98c6.29,0,11.37-5.09,11.37-11.37s-5.09-11.36-11.37-11.36-11.35,5.09-11.35,11.36,5.09,11.37,11.35,11.37Z"/>
        <path class="cls-4" d="m686.92,243.56c6.63,0,11.99-5.37,11.99-11.98s-5.37-11.99-11.99-11.99-11.99,5.37-11.99,11.99,5.37,11.98,11.99,11.98Z"/>
        <path class="cls-4" d="m679.83,303.73c4.72,0,8.55-3.82,8.55-8.55s-3.83-8.54-8.55-8.54-8.55,3.82-8.55,8.54,3.84,8.55,8.55,8.55Z"/>
        <path class="cls-4" d="m668.08,365.37c4.02,0,7.27-3.25,7.27-7.27s-3.25-7.27-7.27-7.27-7.27,3.26-7.27,7.27,3.25,7.27,7.27,7.27Z"/>
        <path class="cls-4" d="m651.7,426.8c3.78,0,6.84-3.05,6.84-6.84s-3.06-6.83-6.84-6.83-6.84,3.05-6.84,6.83,3.06,6.84,6.84,6.84Z"/>
        <path class="cls-4" d="m630.8,486.22c3.17,0,5.76-2.58,5.76-5.77s-2.59-5.74-5.76-5.74-5.74,2.57-5.74,5.74,2.57,5.77,5.74,5.77Z"/>
        <path class="cls-4" d="m605.49,542.16c1.61,0,2.91-1.3,2.91-2.92s-1.3-2.91-2.91-2.91-2.91,1.32-2.91,2.91,1.3,2.92,2.91,2.92Z"/>
        <path class="cls-4" d="m575.9,597.71c.95,0,1.72-.76,1.72-1.71s-.76-1.71-1.72-1.71-1.7.77-1.7,1.71.76,1.71,1.7,1.71Z"/>
        <path class="cls-4" d="m542.21,651c.34,0,.6-.26.6-.58s-.26-.59-.6-.59c-.31,0-.58.27-.58.59s.28.58.58.58Z"/>
        <path class="cls-4" d="m504.6,702.43c.13,0,.23-.1.23-.23s-.1-.23-.23-.23-.23.1-.23.23.1.23.23.23Z"/>
        <path class="cls-4" d="m265.47,914.35c1.16,0,2.12-.94,2.12-2.11s-.96-2.13-2.12-2.13-2.11.97-2.11,2.13.94,2.11,2.11,2.11Z"/>
        <path class="cls-4" d="m209.28,946.76c2.16,0,3.91-1.75,3.91-3.91s-1.75-3.91-3.91-3.91-3.92,1.75-3.92,3.91,1.75,3.91,3.92,3.91Z"/>
        <path class="cls-4" d="m150.97,973.12c2.13,0,3.85-1.74,3.85-3.87s-1.73-3.85-3.85-3.85-3.87,1.72-3.87,3.85,1.73,3.87,3.87,3.87Z"/>
        <path class="cls-4" d="m90.86,998.9c4.21,0,7.64-3.41,7.64-7.64s-3.43-7.63-7.64-7.63-7.63,3.42-7.63,7.63,3.41,7.64,7.63,7.64Z"/>
        <path class="cls-4" d="m29.3,1019.37c5.85,0,10.59-4.74,10.59-10.59s-4.73-10.57-10.59-10.57-10.57,4.73-10.57,10.57,4.73,10.59,10.57,10.59Z"/>
        <path class="cls-4" d="m679.83,52.21c6.71,0,12.16-5.45,12.16-12.16s-5.45-12.17-12.16-12.17-12.16,5.45-12.16,12.17,5.44,12.16,12.16,12.16Z"/>
        <circle class="cls-4" cx="686.92" cy="103.65" r="12.48" transform="translate(-7.63 117.89) rotate(-9.76)"/>
        <path class="cls-4" d="m740.22,176.92c5.15,0,9.31-4.17,9.31-9.3s-4.16-9.3-9.31-9.3-9.29,4.17-9.29,9.3,4.16,9.3,9.29,9.3Z"/>
        <path class="cls-4" d="m738,240.21c4.76,0,8.62-3.87,8.62-8.64s-3.86-8.63-8.62-8.63-8.64,3.87-8.64,8.63,3.87,8.64,8.64,8.64Z"/>
        <path class="cls-4" d="m731.3,303.61c4.63,0,8.38-3.76,8.38-8.38s-3.75-8.37-8.38-8.37-8.37,3.75-8.37,8.37,3.75,8.38,8.37,8.38Z"/>
        <path class="cls-4" d="m720.19,365.75c4.14,0,7.49-3.35,7.49-7.5s-3.35-7.49-7.49-7.49-7.49,3.35-7.49,7.49,3.35,7.5,7.49,7.5Z"/>
        <path class="cls-4" d="m704.7,426.18c3.21,0,5.81-2.6,5.81-5.82s-2.6-5.81-5.81-5.81-5.81,2.61-5.81,5.81,2.6,5.82,5.81,5.82Z"/>
        <path class="cls-4" d="m684.93,484.13c1.59,0,2.89-1.29,2.89-2.9s-1.3-2.89-2.89-2.89-2.91,1.29-2.91,2.89,1.3,2.9,2.91,2.9Z"/>
        <path class="cls-4" d="m660.94,542.3c.95,0,1.72-.78,1.72-1.71s-.77-1.71-1.72-1.71-1.71.76-1.71,1.71.76,1.71,1.71,1.71Z"/>
        <path class="cls-4" d="m632.89,598.73c.34,0,.62-.29.62-.62s-.28-.6-.62-.6-.62.27-.62.6.28.62.62.62Z"/>
        <path class="cls-4" d="m600.89,654.3c.41,0,.76-.33.76-.76s-.35-.76-.76-.76-.76.35-.76.76.34.76.76.76Z"/>
        <path class="cls-4" d="m565.1,706.82c.13,0,.22-.1.22-.22,0-.13-.09-.23-.22-.23-.14,0-.22.1-.22.23,0,.12.08.22.22.22Z"/>
        <path class="cls-4" d="m281.73,961.93c.11,0,.18-.08.18-.19,0-.1-.07-.18-.18-.18-.1,0-.18.08-.18.18,0,.11.08.19.18.19Z"/>
        <path class="cls-4" d="m225.22,993.53c.97,0,1.75-.78,1.75-1.75s-.78-1.75-1.75-1.75-1.75.78-1.75,1.75.78,1.75,1.75,1.75Z"/>
        <path class="cls-4" d="m166.75,1020.74c1.6,0,2.91-1.31,2.91-2.91s-1.31-2.91-2.91-2.91-2.91,1.3-2.91,2.91,1.3,2.91,2.91,2.91Z"/>
        <path class="cls-4" d="m106.6,1046.32c3.65,0,6.6-2.96,6.6-6.61s-2.95-6.6-6.6-6.6-6.59,2.96-6.59,6.6,2.95,6.61,6.59,6.61Z"/>
        <path class="cls-4" d="m45.08,1066.83c5.23,0,9.47-4.25,9.47-9.48s-4.24-9.46-9.47-9.46-9.47,4.25-9.47,9.46,4.24,9.48,9.47,9.48Z"/>
        <path class="cls-4" d="m731.3,50.19c5.63,0,10.2-4.56,10.2-10.19s-4.57-10.19-10.2-10.19-10.19,4.56-10.19,10.19,4.56,10.19,10.19,10.19Z"/>
        <path class="cls-4" d="m738,112.59c4.93,0,8.94-4,8.94-8.93s-4.01-8.93-8.94-8.93-8.95,4-8.95,8.93,4.01,8.93,8.95,8.93Z"/>
        <path class="cls-4" d="m791.17,174.86c3.99,0,7.24-3.24,7.24-7.24s-3.24-7.24-7.24-7.24-7.24,3.24-7.24,7.24,3.24,7.24,7.24,7.24Z"/>
        <path class="cls-4" d="m789.05,239.5c4.38,0,7.92-3.55,7.92-7.91s-3.54-7.92-7.92-7.92-7.91,3.54-7.91,7.92,3.54,7.91,7.91,7.91Z"/>
        <path class="cls-4" d="m782.72,301.53c3.46,0,6.25-2.8,6.25-6.26s-2.8-6.25-6.25-6.25-6.26,2.81-6.26,6.25,2.81,6.26,6.26,6.26Z"/>
        <path class="cls-4" d="m772.18,365.36c3.84,0,6.96-3.1,6.96-6.95s-3.11-6.96-6.96-6.96-6.96,3.11-6.96,6.96,3.12,6.95,6.96,6.95Z"/>
        <path class="cls-4" d="m757.5,425.89c2.86,0,5.18-2.33,5.18-5.19s-2.32-5.18-5.18-5.18-5.2,2.33-5.2,5.18,2.33,5.19,5.2,5.19Z"/>
        <path class="cls-4" d="m738.73,485.01c1.71,0,3.1-1.4,3.1-3.11s-1.39-3.1-3.1-3.1-3.1,1.38-3.1,3.1,1.39,3.11,3.1,3.11Z"/>
        <path class="cls-4" d="m715.95,544.12c1.33,0,2.41-1.08,2.41-2.41s-1.08-2.4-2.41-2.4-2.39,1.09-2.39,2.4,1.07,2.41,2.39,2.41Z"/>
        <path class="cls-4" d="m689.28,601.1c.66,0,1.19-.55,1.19-1.2s-.54-1.19-1.19-1.19-1.2.54-1.2,1.19.54,1.2,1.2,1.2Z"/>
        <path class="cls-4" d="m658.81,656.67c.27,0,.48-.21.48-.49,0-.26-.21-.47-.48-.47s-.49.22-.49.47c0,.29.22.49.49.49Z"/>
        <path class="cls-4" d="m241.15,1042.65c1.09,0,1.96-.88,1.96-1.97s-.88-1.97-1.96-1.97-1.97.87-1.97,1.97.88,1.97,1.97,1.97Z"/>
        <path class="cls-4" d="m182.54,1069.34c1.63,0,2.94-1.32,2.94-2.96s-1.31-2.94-2.94-2.94-2.95,1.32-2.95,2.94,1.32,2.96,2.95,2.96Z"/>
        <path class="cls-4" d="m782.72,46.71c3.73,0,6.75-3.03,6.75-6.76s-3.02-6.76-6.75-6.76-6.76,3.03-6.76,6.76,3.03,6.76,6.76,6.76Z"/>
        <path class="cls-4" d="m789.05,111.68c4.44,0,8.04-3.59,8.04-8.04s-3.6-8.04-8.04-8.04-8.03,3.6-8.03,8.04,3.6,8.04,8.03,8.04Z"/>
        <path class="cls-4" d="m842.11,173.83c3.44,0,6.22-2.78,6.22-6.22s-2.78-6.22-6.22-6.22-6.21,2.79-6.21,6.22,2.78,6.22,6.21,6.22Z"/>
        <path class="cls-4" d="m840.11,238.24c3.66,0,6.64-2.97,6.64-6.64s-2.98-6.66-6.64-6.66-6.66,2.97-6.66,6.66,2.97,6.64,6.66,6.64Z"/>
        <path class="cls-4" d="m834.07,300.4c2.83,0,5.1-2.28,5.1-5.1s-2.27-5.09-5.1-5.09-5.08,2.29-5.08,5.09,2.28,5.1,5.08,5.1Z"/>
        <path class="cls-4" d="m824.06,362.79c2.35,0,4.26-1.89,4.26-4.26s-1.91-4.26-4.26-4.26-4.26,1.91-4.26,4.26,1.91,4.26,4.26,4.26Z"/>
        <path class="cls-4" d="m810.1,424.36c1.86,0,3.36-1.5,3.36-3.37s-1.5-3.36-3.36-3.36-3.37,1.51-3.37,3.36,1.5,3.37,3.37,3.37Z"/>
        <path class="cls-4" d="m792.24,483.52c.59,0,1.06-.48,1.06-1.07s-.47-1.06-1.06-1.06-1.05.48-1.05,1.06.47,1.07,1.05,1.07Z"/>
        <path class="cls-4" d="m770.55,544.95c1.26,0,2.27-1.02,2.27-2.27s-1.01-2.25-2.27-2.25-2.24,1.01-2.24,2.25,1.01,2.27,2.24,2.27Z"/>
        <path class="cls-4" d="m745.15,601.61c.09,0,.17-.09.17-.19,0-.09-.07-.17-.17-.17-.1,0-.18.08-.18.17,0,.1.08.19.18.19Z"/>
        <path class="cls-4" d="m716.08,658.88c.25,0,.44-.18.44-.42s-.2-.43-.44-.43c-.23,0-.43.2-.43.43s.2.42.43.42Z"/>
        <path class="cls-4" d="m834.07,43.75c2.13,0,3.84-1.72,3.84-3.84s-1.72-3.83-3.84-3.83-3.82,1.72-3.82,3.83,1.72,3.84,3.82,3.84Z"/>
        <path class="cls-4" d="m840.11,109.44c3.2,0,5.79-2.6,5.79-5.8s-2.59-5.8-5.79-5.8-5.81,2.6-5.81,5.8,2.6,5.8,5.81,5.8Z"/>
        <path class="cls-4" d="m893.05,171.22c2,0,3.61-1.61,3.61-3.6s-1.62-3.6-3.61-3.6-3.6,1.61-3.6,3.6,1.62,3.6,3.6,3.6Z"/>
        <path class="cls-4" d="m891.14,235.38c2.09,0,3.79-1.7,3.79-3.78s-1.71-3.78-3.79-3.78-3.77,1.7-3.77,3.78,1.69,3.78,3.77,3.78Z"/>
        <path class="cls-4" d="m885.41,298.19c1.57,0,2.84-1.26,2.84-2.85s-1.27-2.84-2.84-2.84-2.84,1.26-2.84,2.84,1.26,2.85,2.84,2.85Z"/>
        <path class="cls-4" d="m875.86,362.64c2.21,0,4-1.79,4-4.01s-1.79-3.99-4-3.99-4.01,1.79-4.01,3.99,1.79,4.01,4.01,4.01Z"/>
        <path class="cls-4" d="m862.55,424.61c1.86,0,3.37-1.51,3.37-3.37s-1.51-3.36-3.37-3.36-3.36,1.5-3.36,3.36,1.5,3.37,3.36,3.37Z"/>
        <path class="cls-4" d="m845.53,483.36c.23,0,.41-.19.41-.41s-.18-.41-.41-.41-.4.19-.4.41.18.41.4.41Z"/>
        <path class="cls-4" d="m824.85,544.19c.37,0,.67-.3.67-.68s-.3-.69-.67-.69-.68.31-.68.69.3.68.68.68Z"/>
        <path class="cls-4" d="m891.14,106.68c1.69,0,3.05-1.36,3.05-3.04s-1.36-3.05-3.05-3.05-3.04,1.36-3.04,3.05,1.36,3.04,3.04,3.04Z"/>
      </g>
    </g>
  </g>
  <g class="cls-8">
    <g>
      <g>
        <path class="cls-4" d="m8.16,57.19c561.73.63,1016.95,455.85,1017.58,1017.59,0,1.94-.06,3.86-.07,5.79h50.83c.01-1.93.07-3.86.07-5.79C1075.91,484.99,597.95,7.03,8.16,6.37c-1.94,0-3.86.06-5.79.07v50.82c1.94-.01,3.86-.07,5.79-.07Z"/>
        <path class="cls-4" d="m8.16,133.04c-1.94,0-3.85.14-5.79.15v60.83c1.94-.01,3.85-.15,5.79-.15,486.28.55,880.35,394.62,880.9,880.9,0,1.94-.13,3.85-.15,5.79h60.84c.01-1.94.15-3.85.15-5.79-.59-519.87-421.88-941.15-941.75-941.74Z"/>
        <path class="cls-4" d="m8.16,259.71c-1.94,0-3.85.13-5.79.15v70.84c1.94-.02,3.85-.15,5.79-.15,410.83.46,743.76,333.4,744.23,744.23,0,1.94-.13,3.85-.15,5.79h70.84c.02-1.94.15-3.85.15-5.79-.51-449.94-365.13-814.56-815.07-815.07Z"/>
        <path class="cls-4" d="m8.16,513.05c-1.94,0-3.86.13-5.79.15v90.86c1.94-.02,3.85-.15,5.79-.15,259.93.29,470.58,210.93,470.87,470.87,0,1.94-.12,3.86-.15,5.79h90.84c.02-1.94.15-3.85.15-5.79-.35-310.09-251.63-561.38-561.72-561.73Z"/>
        <path class="cls-4" d="m8.16,1019.74c-1.94.09-3.87.29-5.79.58v60.25h60.25c.3-1.92.49-3.85.59-5.79-.03-30.38-24.66-55.01-55.04-55.04Z"/>
        <path class="cls-4" d="m8.16,766.4c-1.94,0-3.86.11-5.79.15v111.01c1.94-.06,3.84-.29,5.79-.29,109.03.13,197.38,88.48,197.51,197.51,0,1.96-.24,3.85-.29,5.79h111.03c.04-1.93.15-3.85.15-5.79-.2-170.24-138.15-308.19-308.39-308.38Z"/>
        <path class="cls-4" d="m8.16,893.06c-1.95,0-3.85.23-5.79.29v121.17c1.94-.19,3.81-.59,5.79-.59,33.58.04,60.8,27.25,60.83,60.83,0,1.98-.4,3.86-.59,5.79h121.17c.06-1.94.29-3.84.29-5.79-.11-100.31-81.4-181.6-181.71-181.72Z"/>
        <path class="cls-4" d="m730.13-31.82h-57.83c181.29,109.29,333.17,261.17,442.46,442.46v-57.83c-100.4-153.29-231.33-284.23-384.63-384.63Z"/>
        <path class="cls-4" d="m459.28-31.82h-122.72c373.87,111.86,666.35,404.35,778.2,778.22v-122.71C992.72,326.32,756.64,90.24,459.28-31.82Z"/>
        <path class="cls-4" d="m941.57-31.82h-32.51c75.33,61.45,144.25,130.36,205.7,205.69v-32.51c-52.78-62.47-110.71-120.41-173.19-173.19Z"/>
        <path class="cls-4" d="m8.16,386.38c-1.94,0-3.85.13-5.79.15v80.85c1.94-.02,3.85-.15,5.79-.15,335.38.38,607.17,272.16,607.55,607.55,0,1.94-.13,3.85-.15,5.79h80.85c.02-1.94.15-3.85.15-5.79-.43-380.01-308.38-687.97-688.4-688.4Z"/>
        <path class="cls-4" d="m8.16,639.73c-1.94,0-3.86.12-5.79.15v100.86c1.94-.03,3.85-.15,5.79-.15,184.48.21,333.98,149.71,334.19,334.19,0,1.94-.11,3.86-.15,5.79h100.86c.03-1.94.15-3.85.15-5.79-.27-240.16-194.89-434.78-435.05-435.05Z"/>
      </g>
      <g>
        <path class="cls-3" d="m747.43,562.53c-6.05,0-11.74-2.36-16.02-6.63s-6.63-9.97-6.63-16.02,2.36-11.74,6.63-16.02c4.28-4.28,9.97-6.63,16.02-6.63s11.74,2.36,16.02,6.63c8.83,8.83,8.83,23.2,0,32.03-4.28,4.28-9.97,6.63-16.02,6.63Z"/>
        <path class="cls-5" d="m747.43,523.54c4.18,0,8.36,1.6,11.55,4.79,6.38,6.38,6.38,16.73,0,23.11-3.19,3.19-7.37,4.79-11.55,4.79s-8.36-1.6-11.55-4.79c-6.38-6.38-6.38-16.73,0-23.11,3.19-3.19,7.37-4.79,11.55-4.79m0-12.62c-7.74,0-15.01,3.01-20.48,8.48-5.47,5.47-8.48,12.74-8.48,20.48s3.01,15.01,8.48,20.48,12.74,8.48,20.48,8.48,15.01-3.01,20.48-8.48,8.48-12.74,8.48-20.48-3.01-15.01-8.48-20.48c-5.47-5.47-12.74-8.48-20.48-8.48h0Z"/>
      </g>
      <g>
        <path class="cls-3" d="m954.28,196.55c-6.05,0-11.74-2.36-16.02-6.63-4.28-4.28-6.63-9.97-6.63-16.02s2.36-11.74,6.63-16.02,9.97-6.63,16.02-6.63,11.74,2.36,16.02,6.63,6.63,9.97,6.63,16.02-2.36,11.74-6.63,16.02c-4.28,4.28-9.97,6.63-16.02,6.63Z"/>
        <path class="cls-5" d="m954.28,157.56c4.18,0,8.36,1.6,11.55,4.79,6.38,6.38,6.38,16.73,0,23.11-3.19,3.19-7.37,4.79-11.55,4.79s-8.36-1.6-11.55-4.79c-6.38-6.38-6.38-16.73,0-23.11,3.19-3.19,7.37-4.79,11.55-4.79m0-12.62c-7.74,0-15.01,3.01-20.48,8.48-5.47,5.47-8.48,12.74-8.48,20.48s3.01,15.01,8.48,20.48,12.74,8.48,20.48,8.48,15.01-3.01,20.48-8.48,8.48-12.74,8.48-20.48-3.01-15.01-8.48-20.48c-5.47-5.47-12.74-8.48-20.48-8.48h0Z"/>
      </g>
      <g>
        <path class="cls-3" d="m722.96,166.98c-6.05,0-11.74-2.36-16.02-6.63s-6.63-9.97-6.63-16.02,2.36-11.74,6.63-16.02,9.97-6.63,16.02-6.63,11.74,2.36,16.02,6.63c8.83,8.83,8.83,23.2,0,32.03-4.28,4.28-9.97,6.63-16.02,6.63Z"/>
        <path class="cls-5" d="m722.96,127.99c4.18,0,8.36,1.6,11.55,4.79,6.38,6.38,6.38,16.73,0,23.11-3.19,3.19-7.37,4.79-11.55,4.79s-8.36-1.6-11.55-4.79c-6.38-6.38-6.38-16.73,0-23.11,3.19-3.19,7.37-4.79,11.55-4.79m0-12.62c-7.74,0-15.01,3.01-20.48,8.48-5.47,5.47-8.48,12.74-8.48,20.48s3.01,15.01,8.48,20.48,12.74,8.48,20.48,8.48,15.01-3.01,20.48-8.48,8.48-12.74,8.48-20.48-3.01-15.01-8.48-20.48c-5.47-5.47-12.74-8.48-20.48-8.48h0Z"/>
      </g>
    </g>
  </g>
</svg>