<?xml version="1.0" encoding="UTF-8"?>
<svg id="Layer_1" data-name="Layer 1" xmlns="http://www.w3.org/2000/svg" viewBox="0 0 600 56">
  <defs>
    <style>
      .cls-1 {
        fill: lime;
      }

      .cls-2 {
        fill: #fff;
      }
    </style>
  </defs>
  <g>
    <path class="cls-1" d="m365.61,50.17v3.35h-24.65V1.75h3.5v48.42h21.15Z"/>
    <path class="cls-1" d="m391.87,54.25c-11.52,0-19.4-6.71-19.4-21.08V1.75h3.5v31.43c0,12.62,6.71,17.72,15.9,17.72s15.82-5.11,15.82-17.72V1.75h3.5v31.43c0,14.37-7.88,21.08-19.33,21.08Z"/>
    <path class="cls-1" d="m473.62,1.75v51.78h-3.57V8.24l-20.64,33.84h-2.19l-20.64-33.84v45.29h-3.5V1.75h3.5l21.73,35.59L470.05,1.75h3.57Z"/>
    <path class="cls-1" d="m489.81,1.75h3.5v51.78h-3.5V1.75Z"/>
    <path class="cls-1" d="m548.74,1.75v51.78h-3.5l-32.45-45.8v45.8h-3.5V1.75h3.5l32.45,45.8V1.75h3.5Z"/>
    <path class="cls-1" d="m590.75,39.38h-23.7l-5.1,14.15h-3.65l18.67-51.78h3.86l18.67,51.78h-3.65l-5.11-14.15Zm-1.17-3.35l-10.65-29.54-10.65,29.54h21.29Z"/>
  </g>
  <g>
    <path class="cls-2" d="m32.32,27.34l18.55,24.57c.29.39.02.94-.47.94h-11.68c-.18,0-.36-.09-.47-.23l-12.47-16.58-12.54,16.58c-.11.15-.28.23-.47.23H1.09c-.48,0-.76-.55-.47-.94l18.55-24.57L.62,2.77c-.29-.39-.02-.94.47-.94h11.68c.18,0,.36.09.47.23l12.54,16.58L38.25,2.06c.11-.15.28-.23.47-.23h11.68c.48,0,.76.55.47.94l-18.55,24.57Z"/>
    <path class="cls-2" d="m104.46,19.72c0,11.21-9.05,17.82-18.97,17.82h-8.77v14.38c0,.51-.42.93-.93.93h-9.06c-.51,0-.93-.42-.93-.93V2.76c0-.51.42-.93.93-.93h18.76c9.92,0,18.97,6.61,18.97,17.89Zm-10.85,0c0-4.89-3.45-7.69-8.12-7.69h-8.34c-.24,0-.43.19-.43.43v14.44c0,.24.19.43.43.43h8.34c4.67,0,8.12-2.73,8.12-7.62Z"/>
    <path class="cls-2" d="m150.94,43.15v9.12c0,.32-.26.58-.58.58h-30.54c-.32,0-.58-.26-.58-.58V2.41c0-.32.26-.58.58-.58h9.7c.32,0,.58.26.58.58v40.17h20.26c.32,0,.58.26.58.58Z"/>
    <path class="cls-2" d="m196.07,42.64h-19.26l-3.58,9.96c-.05.14-.19.24-.34.24h-10.51c-.25,0-.42-.25-.34-.48L180.17,2.07c.05-.14.19-.24.34-.24h11.85c.15,0,.29.1.34.24l18.13,50.3c.08.24-.09.48-.34.48h-10.44c-.15,0-.29-.09-.34-.24l-3.65-9.97Zm-3.66-10.28l-5.96-16.53-5.96,16.53h11.93Z"/>
    <path class="cls-2" d="m225.52,1.83h10.13c.2,0,.36.16.36.36v50.3c0,.2-.16.36-.36.36h-10.13c-.2,0-.36-.16-.36-.36V2.19c0-.2.16-.36.36-.36Z"/>
    <path class="cls-2" d="m300.54,2.18v50.32c0,.19-.16.35-.35.35h-10.33c-.11,0-.22-.05-.28-.14l-23.54-32.69v32.49c0,.19-.16.35-.35.35h-10.16c-.19,0-.35-.16-.35-.35V2.18c0-.19.16-.35.35-.35h10.33c.11,0,.22.05.28.14l23.54,32.69V2.18c0-.19.16-.35.35-.35h10.16c.19,0,.35.16.35.35Z"/>
  </g>
</svg>