<?xml version="1.0" encoding="UTF-8"?>
<svg id="Layer_1" data-name="Layer 1" xmlns="http://www.w3.org/2000/svg" viewBox="0 0 600 56">
  <defs>
    <style>
      .cls-1 {
        fill: lime;
      }

      .cls-2 {
        fill: #fff;
      }
    </style>
  </defs>
  <g>
    <path class="cls-2" d="m32.22,27.85l18.78,24.87c.29.39.02.95-.47.95h-11.83c-.19,0-.36-.09-.47-.24l-12.62-16.78-12.7,16.78c-.11.15-.29.23-.47.23H.61c-.49,0-.77-.56-.47-.95l18.78-24.87L.14,2.98c-.29-.39-.02-.95.47-.95h11.83c.19,0,.36.09.47.23l12.7,16.78L38.22,2.27c.11-.15.29-.24.47-.24h11.83c.49,0,.77.56.47.95l-18.78,24.87Z"/>
    <path class="cls-2" d="m105.24,20.14c0,11.35-9.16,18.04-19.2,18.04h-8.87v14.55c0,.52-.42.94-.94.94h-9.17c-.52,0-.94-.42-.94-.94V2.97c0-.52.42-.94.94-.94h18.99c10.04,0,19.2,6.69,19.2,18.11Zm-10.98,0c0-4.95-3.49-7.78-8.22-7.78h-8.44c-.24,0-.44.2-.44.44v14.62c0,.24.2.44.44.44h8.44c4.73,0,8.22-2.76,8.22-7.71Z"/>
    <path class="cls-2" d="m152.29,43.85v9.23c0,.32-.26.58-.58.58h-30.91c-.32,0-.58-.26-.58-.58V2.62c0-.32.26-.58.58-.58h9.82c.32,0,.58.26.58.58v40.65h20.51c.32,0,.58.26.58.58Z"/>
    <path class="cls-2" d="m197.96,43.34h-19.49l-3.62,10.09c-.05.14-.19.24-.34.24h-10.64c-.25,0-.43-.25-.34-.49L181.87,2.27c.05-.14.19-.24.34-.24h12c.15,0,.29.1.34.24l18.36,50.91c.09.24-.09.49-.34.49h-10.57c-.15,0-.29-.1-.34-.24l-3.69-10.09Zm-3.71-10.4l-6.04-16.73-6.04,16.73h12.07Z"/>
    <path class="cls-2" d="m227.77,2.03h10.26c.2,0,.36.16.36.36v50.91c0,.2-.16.36-.36.36h-10.26c-.2,0-.36-.16-.36-.36V2.4c0-.2.16-.36.36-.36Z"/>
    <path class="cls-2" d="m303.7,2.38v50.94c0,.19-.16.35-.35.35h-10.45c-.11,0-.22-.05-.28-.15l-23.82-33.09v32.89c0,.19-.16.35-.35.35h-10.28c-.19,0-.35-.16-.35-.35V2.38c0-.19.16-.35.35-.35h10.45c.11,0,.22.05.28.15l23.82,33.09V2.38c0-.19.16-.35.35-.35h10.28c.19,0,.35.16.35.35Z"/>
  </g>
  <g>
    <path class="cls-1" d="m372.57,18.58c0,10.8-7.68,16.23-17.68,16.23h-11.88v18.92h-3.48V2.27h15.36c10,0,17.68,5.44,17.68,16.31Zm-3.48,0c0-8.91-6.01-12.97-14.2-12.97h-11.88v25.87h11.88c8.19,0,14.2-3.99,14.2-12.9Z"/>
    <path class="cls-1" d="m402.57,35.39h-13.55v18.34h-3.48V2.27h17.32c8.19,0,15.73,6.31,15.73,16.6,0,8.77-5.51,14.64-12.32,16.16l12.47,18.7h-4.06l-12.1-18.34Zm-13.55-3.33h13.84c6.38,0,12.25-4.93,12.25-13.19s-5.87-13.26-12.25-13.26h-13.84v26.45Z"/>
    <path class="cls-1" d="m433.23,2.27h3.48v51.45h-3.48V2.27Z"/>
    <path class="cls-1" d="m454.46,40.68c.65,7.1,6.45,10.44,12.17,10.44,7.17,0,11.67-3.77,11.67-9.28,0-6.67-5.87-10-12.39-13.04-7.68-3.77-13.84-6.74-13.84-15.15,0-7.1,6.3-12.1,14.06-12.1s13.04,5.65,13.62,12.47h-3.48c-.58-5.07-4.57-9.13-10.15-9.13s-10.58,3.62-10.58,8.84c0,6.81,5.29,8.99,11.31,11.81,8.33,3.91,14.93,8.12,14.93,16.38,0,7.61-6.23,12.54-15.15,12.54-7.97,0-15.07-5.22-15.65-13.77h3.48Z"/>
    <path class="cls-1" d="m546.43,2.27v51.45h-3.55V8.72l-20.51,33.63h-2.17l-20.51-33.63v45h-3.48V2.27h3.48l21.6,35.37,21.6-35.37h3.55Z"/>
    <path class="cls-1" d="m591.29,39.67h-23.55l-5.07,14.06h-3.62l18.55-51.45h3.84l18.55,51.45h-3.62l-5.07-14.06Zm-1.16-3.33l-10.58-29.35-10.58,29.35h21.16Z"/>
  </g>
</svg>