<?xml version="1.0" encoding="UTF-8"?>
<svg id="Layer_1" data-name="Layer 1" xmlns="http://www.w3.org/2000/svg" viewBox="0 0 600 106">
  <defs>
    <style>
      .cls-1 {
        fill: #fff;
      }
    </style>
  </defs>
  <path class="cls-1" d="m66,53l36.72,48.64c.58.76.03,1.86-.92,1.86h-23.13c-.36,0-.71-.17-.93-.46l-24.69-32.83-24.83,32.83c-.22.29-.56.46-.92.46H4.16c-.96,0-1.5-1.09-.92-1.86l36.72-48.64L3.24,4.36c-.58-.76-.03-1.86.92-1.86h23.13c.36,0,.7.17.92.46l24.83,32.83L77.74,2.96c.22-.29.56-.46.93-.46h23.13c.96,0,1.5,1.09.92,1.86l-36.72,48.65Z"/>
  <path class="cls-1" d="m208.81,37.92c0,22.19-17.92,35.28-37.56,35.28h-17.36v28.46c0,1.02-.82,1.84-1.84,1.84h-17.94c-1.02,0-1.84-.82-1.84-1.84V4.34c0-1.02.82-1.84,1.84-1.84h37.14c19.63,0,37.56,13.09,37.56,35.42Zm-21.48,0c0-9.67-6.83-15.22-16.07-15.22h-16.5c-.47,0-.85.38-.85.85v28.59c0,.47.38.85.85.85h16.5c9.25,0,16.07-5.41,16.07-15.08Z"/>
  <path class="cls-1" d="m300.84,84.3v18.06c0,.63-.51,1.14-1.14,1.14h-60.45c-.63,0-1.14-.51-1.14-1.14V3.64c0-.63.51-1.14,1.14-1.14h19.2c.63,0,1.14.51,1.14,1.14v79.52h40.11c.63,0,1.14.51,1.14,1.14Z"/>
  <path class="cls-1" d="m390.17,83.3h-38.12l-7.09,19.73c-.1.28-.37.47-.67.47h-20.82c-.49,0-.84-.49-.67-.96L358.71,2.97c.1-.28.37-.47.67-.47h23.46c.3,0,.57.19.67.47l35.9,99.57c.17.47-.18.96-.67.96h-20.68c-.3,0-.57-.19-.67-.47l-7.23-19.73Zm-7.26-20.34l-11.81-32.72-11.81,32.72h23.61Z"/>
  <path class="cls-1" d="m448.49,2.5h20.06c.39,0,.71.32.71.71v99.58c0,.39-.32.71-.71.71h-20.06c-.39,0-.71-.32-.71-.71V3.21c0-.39.32-.71.71-.71Z"/>
  <path class="cls-1" d="m597,3.19v99.63c0,.38-.31.69-.69.69h-20.44c-.22,0-.43-.11-.56-.29l-46.6-64.72v64.32c0,.38-.31.69-.69.69h-20.11c-.38,0-.69-.31-.69-.69V3.19c0-.38.31-.69.69-.69h20.44c.22,0,.43.11.56.29l46.6,64.72V3.19c0-.38.31-.69.69-.69h20.11c.38,0,.69.31.69.69Z"/>
</svg>